<?xml version="1.0" encoding="utf-8"?>
<!-- Generator: Adobe Illustrator 16.0.4, SVG Export Plug-In . SVG Version: 6.00 Build 0)  -->
<!DOCTYPE svg PUBLIC "-//W3C//DTD SVG 1.1//EN" "http://www.w3.org/Graphics/SVG/1.1/DTD/svg11.dtd">
<svg version="1.1" id="Layer_1" xmlns="http://www.w3.org/2000/svg" xmlns:xlink="http://www.w3.org/1999/xlink" x="0px" y="0px"
	 width="256.27px" height="274.406px" viewBox="0 0 256.27 274.406" enable-background="new 0 0 256.27 274.406"
	 xml:space="preserve">
<g id="Layer_2">
	<g>
		<path fill="#4D4D4D" d="M26.202,175.559c18.729,41,43.7,48.666,75.243,66c10.515,6,19.058,12.666,25.63,23.332
			c-1.369-2.222,9.248-10.815,10.814-11.877c4.378-2.963,13.755-10.125,18.749-11.789c14-4.666,20.253-9.242,29-17.666
			c5.938-5.718,6.948-7.106,12.669-13.035c11.793-12.222,24.297-32.06,26.163-49.254c0.838-7.711-1.294-15.353-2.537-22.899
			c-1.026-6.228-1.869-12.03-5.167-17.552c-3.303-5.53-7.307-10.723-12.148-15.016c-10.026-8.892-20.896-16.917-34.156-19.927
			c-19.888-4.515-41.186-5.905-61.46-7.39c-16.078-1.177-31.06,0.696-45.671,7.741c-5.399,2.603-10.332,6.417-15.1,9.984
			c-6.053,4.528-13.477,9.818-17.429,16.355c-2.114,3.499-3.581,7.189-5.852,10.66C14.91,138.57,18.98,159.75,26.202,175.559z"/>
		<g>
			<path fill="none" d="M26.202,175.559c18.729,41,43.7,48.666,75.243,66c10.515,6,19.058,12.666,25.63,23.332
				c-1.369-2.222,9.248-10.815,10.814-11.877c4.378-2.963,13.755-10.125,18.749-11.789c14-4.666,20.253-9.242,29-17.666
				c5.938-5.718,6.948-7.106,12.669-13.035c11.793-12.222,24.297-32.06,26.163-49.254c0.838-7.711-1.294-15.353-2.537-22.899
				c-1.026-6.228-1.869-12.03-5.167-17.552c-3.303-5.53-7.307-10.723-12.148-15.016c-10.026-8.892-20.896-16.917-34.156-19.927
				c-19.888-4.515-41.186-5.905-61.46-7.39c-16.078-1.177-31.06,0.696-45.671,7.741c-5.399,2.603-10.332,6.417-15.1,9.984
				c-6.053,4.528-13.477,9.818-17.429,16.355c-2.114,3.499-3.581,7.189-5.852,10.66C14.91,138.57,18.98,159.75,26.202,175.559z"/>
			<path d="M25.236,175.816c9.558,20.619,23.39,36.742,42.828,48.553c20.312,12.34,44.704,19.754,58.045,40.781
				c0.287,0.451,2.096-0.012,1.932-0.519c-0.911-2.813,5.741-7.595,7.53-9.118c3.105-2.647,6.554-4.888,9.893-7.223
				c5.225-3.652,10.292-6.251,16.247-8.475c4.824-1.803,9.418-4.125,13.708-6.969c9.062-6.011,16.297-14.59,23.771-22.369
				c8.837-9.194,16.082-20.015,21.246-31.668c2.495-5.632,4.228-11.586,4.992-17.696c0.889-7.108-0.947-14.317-2.228-21.261
				c-1.239-6.727-2.095-13.224-5.468-19.295c-3.139-5.651-7.46-10.756-12.208-15.102c-9.856-9.019-21.162-16.781-34.276-19.986
				c-14.642-3.578-29.88-4.932-44.863-6.163c-14.977-1.23-30.217-2.923-45.057,0.382c-15.151,3.375-26.712,10.941-38.89,20.245
				c-5.287,4.039-10.115,8.489-13.463,14.295c-3.68,6.382-7.784,12.963-9.704,20.121C15.594,148.057,19.615,163.243,25.236,175.816
				c0.24,0.537,2.119-0.098,1.932-0.518c-5.355-11.982-8.622-25.188-6.596-38.331c0.981-6.369,4.024-11.417,7.118-16.916
				c1.914-3.401,3.432-6.908,5.749-10.08c2.509-3.434,5.928-6.251,9.212-8.893c5.338-4.294,10.92-8.462,16.689-12.154
				c8.016-5.13,17.636-7.893,26.955-9.37c15.782-2.501,32.472-0.036,48.262,1.449c15.323,1.441,31.971,2.72,46.15,9.084
				c13.033,5.85,25.448,16.432,33.383,28.253c3.854,5.742,5.468,11.858,6.601,18.599c1.272,7.578,3.163,15.08,2.957,22.81
				c-0.374,13.973-8.617,28.053-16.474,39.089c-6.087,8.552-13.651,16.179-21.13,23.517c-8.352,8.194-17.034,14.09-28.11,18.035
				c-7.785,2.773-14.396,8.006-21.077,12.756c-2.622,1.863-11.962,8.252-10.747,12.004c0.644-0.174,1.288-0.346,1.932-0.519
				c-12.7-20.017-35.36-27.853-55.055-39.122c-20.795-11.898-35.725-28.438-45.818-50.211
				C26.918,174.762,25.045,175.406,25.236,175.816z"/>
		</g>
	</g>
	<g>
		<g>
			<path fill="none" d="M486.638,254.559"/>
			<path d="M486.012,254.957c0.408,0,2.203-0.795,1.252-0.795C486.856,254.162,485.061,254.957,486.012,254.957L486.012,254.957z"/>
		</g>
	</g>
</g>
<g id="Layer_6" display="none">
	<g display="inline">
		<g>
			<path fill="none" d="M61.972,115.892c-6.667,27.333-27.333,90.667,8.667,108.667"/>
			<path d="M60.991,115.958c-4.885,19.892-10.655,39.603-11.809,60.173c-1.056,18.821,2.709,39.66,20.904,49.1
				c0.824,0.429,2.206-0.771,1.104-1.344c-19.314-10.02-21.324-33.201-19.721-52.576c1.565-18.914,6.977-37.14,11.482-55.484
				C63.19,114.856,61.208,115.073,60.991,115.958L60.991,115.958z"/>
		</g>
	</g>
	<g display="inline">
		<g>
			<path fill="none" d="M81.305,111.892c-8,22.667-9.333,50.667-6,74c1.333,10.666,6,20.666,11.333,30c4,8,14,18,15.333,27.332"/>
			<path d="M80.345,112.033c-7.616,22.109-9.106,46.14-6.622,69.283c1.362,12.688,5.703,23.777,11.95,34.834
				c5.057,8.951,13.429,16.953,15.333,27.334c0.103,0.561,2.045,0.1,1.932-0.519c-1.759-9.594-9.156-17.048-14.104-25.104
				c-6.387-10.398-11.114-21.711-12.782-33.826c-3.296-23.94-1.679-49.37,6.214-72.285
				C82.455,111.201,80.544,111.454,80.345,112.033L80.345,112.033z"/>
		</g>
	</g>
	<g display="inline">
		<g>
			<path fill="none" d="M91.972,103.225c-5.333,17.333-3.333,40.667-2.667,58.667c0,13.332,2.667,24.666,9.333,36.666
				c12.667,20.666,26.667,40.666,30.667,65.334"/>
			<path d="M91.007,103.353c-3.745,12.769-3.813,26.244-3.458,39.44c0.376,13.984-0.015,28.588,4.055,42.085
				c4.22,13.993,13.821,25.935,21.017,38.47c7.32,12.752,13.211,26.247,15.719,40.805c0.108,0.629,2.05,0.166,1.932-0.519
				c-2.418-14.039-8.004-26.948-14.89-39.339c-6.83-12.291-15.759-23.646-20.79-36.841c-4.878-12.796-4.385-26.679-4.935-40.144
				c-0.602-14.729-0.909-29.933,3.279-44.212C93.128,102.442,91.192,102.722,91.007,103.353L91.007,103.353z"/>
		</g>
	</g>
	<g display="inline">
		<g>
			<path fill="none" d="M185.972,95.225c14,27.333,18,46,8,75.333c-8,22-20,46.666-20,70.666"/>
			<path d="M185.006,95.484c5.399,10.629,10.212,21.554,12.447,33.325c2.336,12.294,0.673,24.737-2.752,36.654
				c-7.337,25.528-21.374,48.749-21.695,76.021c-0.003,0.269,1.926,0.014,1.932-0.519c0.326-27.735,14.689-51.582,22.156-77.565
				c3.154-10.977,4.217-22.356,2.535-33.673c-1.823-12.262-7.127-23.807-12.691-34.761
				C186.708,94.514,184.868,95.211,185.006,95.484L185.006,95.484z"/>
		</g>
	</g>
	<g display="inline">
		<g>
			<path fill="none" d="M160.638,99.225c-2,1.333,9.334,25.333,10.667,31.333c4,15.333,0,28-4,42.667
				c-5.333,23.334-22.667,56-15.333,80"/>
			<path d="M159.749,99.242c-1.331,1.507,0.881,5.858,1.397,7.328c1.792,5.094,3.921,10.072,5.923,15.085
				c1.954,4.891,3.559,9.573,4.411,14.796c1.632,9.994-0.63,20.097-3.173,29.727c-3.922,14.856-8.961,29.249-13.481,43.922
				c-4.259,13.823-7.902,29.088-3.819,43.385c0.167,0.584,2.096,0.056,1.932-0.519c-4.078-14.282-0.357-29.325,3.809-43.147
				c4.43-14.696,9.479-29.09,13.482-43.922c3.72-13.779,5.361-27.401,0.229-41.031c-1.9-5.047-4.017-10.012-5.97-15.038
				c-0.611-1.575-4.39-9.002-2.96-10.619C162.028,98.642,160.113,98.83,159.749,99.242L159.749,99.242z"/>
		</g>
	</g>
	<g display="inline">
		<g>
			<path fill="none" d="M133.972,111.892c-2,4,6.666,24.667,7.333,33.333c0.667,15.334,0,32.668-1.333,48.668
				c-2.667,27.332-12,52-6,80"/>
			<path d="M133.011,112.033c-1.061,2.812,0.342,6.592,1.043,9.321c1.315,5.127,2.992,10.16,4.42,15.257
				c3.831,13.675,2.249,28.919,1.529,42.936c-0.836,16.294-3.561,32.079-6.279,48.135c-2.62,15.473-3.86,30.976-0.718,46.471
				c0.115,0.567,2.056,0.095,1.932-0.519c-3.251-16.034-1.704-31.991,1.003-47.978c2.622-15.484,5.115-30.686,5.984-46.391
				c0.71-12.843,2.306-27.23-0.652-39.852c-1.203-5.133-2.887-10.157-4.356-15.217c-0.985-3.392-3.32-8.906-1.983-12.446
				C135.134,111.217,133.23,111.454,133.011,112.033L133.011,112.033z"/>
		</g>
	</g>
</g>
<g id="Layer_7">
	<g>
		<g>
			<path fill="none" d="M69.972,98.559c-9.333-4-18.667,38-18.667,45.333c-0.667,38,30,75.332,55.333,101.332"/>
			<path fill="#333333" d="M70.737,98.078c-7.243-2.56-11.294,9.897-13.048,14.585c-3.802,10.165-7.291,21.933-7.361,32.884
				c-0.121,18.745,7.656,36.701,17.135,52.489c10.496,17.481,24.12,32.996,38.281,47.575c0.493,0.507,2.328-0.217,1.79-0.771
				c-23.634-24.331-47.997-53.01-54.181-87.39c-2.007-11.156-0.465-21.107,2.268-31.913c1.004-3.97,6.889-28.865,13.586-26.498
				C69.818,99.256,71.564,98.37,70.737,98.078L70.737,98.078z"/>
		</g>
	</g>
	<g>
		<g>
			<path fill="none" d="M172.638,91.225c16.667,18,16.667,40,18,63.333c2,41.334-20.333,44.666-29,84.666"/>
			<path fill="#333333" d="M171.738,91.59c10.194,11.32,14.551,25.058,16.323,39.934c1.695,14.233,3.06,29.625,0.251,43.759
				c-2.127,10.699-7.746,19.919-13.268,29.148c-6.573,10.989-11.557,22.387-14.369,34.926c-0.147,0.658,1.789,0.343,1.926-0.268
				c2.969-13.238,8.419-24.99,15.369-36.566c5.487-9.139,10.415-18.189,12.515-28.758c2.741-13.795,1.014-28.904-0.492-42.76
				c-1.622-14.919-6.295-28.866-16.454-40.147C173.123,90.397,171.284,91.086,171.738,91.59L171.738,91.59z"/>
		</g>
	</g>
	<g>
		<g>
			<path fill="none" d="M136.305,91.226c22.667,13.333,16.667,37.333,17.334,58.667c0.666,14.668,2,27.334-0.667,41.334
				c-4.667,30.666-15.334,40.332-24.667,69.666"/>
			<path fill="#333333" d="M135.567,91.806c12.844,7.873,16.93,20.272,17.313,34.693c0.174,6.527-0.251,13.062-0.278,19.588
				c-0.037,8.558,0.875,17.104,0.98,25.663c0.2,16.291-3.269,32.798-9.248,47.913c-5.47,13.826-12.367,26.897-16.959,41.095
				c-0.355,1.098,1.576,1.145,1.859,0.268c4.729-14.617,11.824-28.113,17.458-42.355c6.331-16.004,9.175-33.402,8.792-50.568
				c-0.185-8.254-0.993-16.476-0.899-24.736c0.079-6.95,0.479-13.887,0.105-20.836c-0.721-13.437-5.956-24.717-17.647-31.883
				C136.268,90.17,134.606,91.218,135.567,91.806L135.567,91.806z"/>
		</g>
	</g>
	<g>
		<g>
			<path fill="none" d="M89.305,93.225c-5.333,16.667-3.333,40-2.667,57.333c2.667,38,12,72.666,33.333,104.666"/>
			<path fill="#333333" d="M88.337,93.338c-3.957,12.99-3.831,26.826-3.402,40.271c0.456,14.29,1.39,28.481,3.651,42.609
				c4.537,28.347,14.662,55.417,30.49,79.394c0.378,0.572,2.25-0.075,1.79-0.772c-15.84-23.993-25.623-50.849-30.348-79.138
				c-2.267-13.572-3.056-27.234-3.593-40.962c-0.541-13.854-0.732-28.234,3.348-41.626C90.494,92.387,88.545,92.655,88.337,93.338
				L88.337,93.338z"/>
		</g>
	</g>
</g>
<g id="Layer_2_copy">
	<g>
		<g>
			<path fill="none" d="M26.202,175.559c18.729,41,43.7,48.666,75.243,66c10.515,6,19.058,12.666,25.63,23.332
				c-1.369-2.222,9.248-10.815,10.814-11.877c4.378-2.963,13.755-10.125,18.749-11.789c14-4.666,20.253-9.242,29-17.666
				c5.938-5.718,6.948-7.106,12.669-13.035c11.793-12.222,24.297-32.06,26.163-49.254c0.838-7.711-1.294-15.353-2.537-22.899
				c-1.026-6.228-1.869-12.03-5.167-17.552c-3.303-5.53-7.307-10.723-12.148-15.016c-10.026-8.892-20.896-16.917-34.156-19.927
				c-19.888-4.515-41.186-5.905-61.46-7.39c-16.078-1.177-31.06,0.696-45.671,7.741c-5.399,2.603-10.332,6.417-15.1,9.984
				c-6.053,4.528-13.477,9.818-17.429,16.355c-2.114,3.499-3.581,7.189-5.852,10.66C14.91,138.57,18.98,159.75,26.202,175.559z"/>
			<path d="M25.236,175.816c9.558,20.619,23.39,36.742,42.828,48.553c20.312,12.34,44.704,19.754,58.045,40.781
				c0.287,0.451,2.096-0.012,1.932-0.519c-0.911-2.813,5.741-7.595,7.53-9.118c3.105-2.647,6.554-4.888,9.893-7.223
				c5.225-3.652,10.292-6.251,16.247-8.475c4.824-1.803,9.418-4.125,13.708-6.969c9.062-6.011,16.297-14.59,23.771-22.369
				c8.837-9.194,16.082-20.015,21.246-31.668c2.495-5.632,4.228-11.586,4.992-17.696c0.889-7.108-0.947-14.317-2.228-21.261
				c-1.239-6.727-2.095-13.224-5.468-19.295c-3.139-5.651-7.46-10.756-12.208-15.102c-9.856-9.019-21.162-16.781-34.276-19.986
				c-14.642-3.578-29.88-4.932-44.863-6.163c-14.977-1.23-30.217-2.923-45.057,0.382c-15.151,3.375-26.712,10.941-38.89,20.245
				c-5.287,4.039-10.115,8.489-13.463,14.295c-3.68,6.382-7.784,12.963-9.704,20.121C15.594,148.057,19.615,163.243,25.236,175.816
				c0.24,0.537,2.119-0.098,1.932-0.518c-5.355-11.982-8.622-25.188-6.596-38.331c0.981-6.369,4.024-11.417,7.118-16.916
				c1.914-3.401,3.432-6.908,5.749-10.08c2.509-3.434,5.928-6.251,9.212-8.893c5.338-4.294,10.92-8.462,16.689-12.154
				c8.016-5.13,17.636-7.893,26.955-9.37c15.782-2.501,32.472-0.036,48.262,1.449c15.323,1.441,31.971,2.72,46.15,9.084
				c13.033,5.85,25.448,16.432,33.383,28.253c3.854,5.742,5.468,11.858,6.601,18.599c1.272,7.578,3.163,15.08,2.957,22.81
				c-0.374,13.973-8.617,28.053-16.474,39.089c-6.087,8.552-13.651,16.179-21.13,23.517c-8.352,8.194-17.034,14.09-28.11,18.035
				c-7.785,2.773-14.396,8.006-21.077,12.756c-2.622,1.863-11.962,8.252-10.747,12.004c0.644-0.174,1.288-0.346,1.932-0.519
				c-12.7-20.017-35.36-27.853-55.055-39.122c-20.795-11.898-35.725-28.438-45.818-50.211
				C26.918,174.762,25.045,175.406,25.236,175.816z"/>
		</g>
	</g>
	<g>
		<g>
			<path fill="none" d="M486.638,254.559"/>
			<path d="M486.012,254.957c0.408,0,2.203-0.795,1.252-0.795C486.856,254.162,485.061,254.957,486.012,254.957L486.012,254.957z"/>
		</g>
	</g>
</g>
<g id="Layer_5" display="none">
	<g display="inline">
		<g>
			<path fill="none" d="M41.305,108.225c-9,17.667,9,64,18.667,79c10.667,17.334,29.333,27.668,44,41.334
				c7,6.668,19.333,17,20.667,27"/>
			<path d="M40.349,108.381c-5.222,10.904-1.745,25.157,1.105,36.213c3.443,13.354,8.507,26.592,15.09,38.719
				c7.875,14.508,20.692,24.552,33.426,34.59c6.557,5.17,12.766,10.646,18.832,16.379c6.221,5.881,13.324,12.761,14.871,21.537
				c0.085,0.48,2.029,0.033,1.932-0.519c-1.317-7.473-6.721-13.403-11.854-18.646c-5.741-5.861-11.927-11.356-18.298-16.519
				c-13.578-10.999-27.734-21.062-36.547-36.571c-6.54-11.506-11.23-24.285-14.838-36.979c-3.281-11.546-7.297-27.047-1.804-38.516
				C42.448,107.681,40.601,107.855,40.349,108.381L40.349,108.381z"/>
		</g>
	</g>
	<g display="inline">
		<g>
			<path fill="none" d="M75.972,104.225c7.667,16.667-2.667,44,3.667,61.667c4,11.666,12,20.998,20.333,30.332
				c11.667,13.666,23.667,32.668,25.667,51.668"/>
			<path d="M75.006,104.483c4.865,11.324,2.708,24.432,1.876,36.339c-0.827,11.822-0.268,22.38,5.176,33.113
				c6.313,12.448,17.119,21.938,25.185,33.178c8.716,12.145,15.624,26.066,17.429,41.037c0.107,0.888,2.044,0.41,1.932-0.519
				c-1.693-14.042-7.902-26.847-15.63-38.526s-18.241-21.156-25.536-33.137c-7.364-12.094-7.384-24.652-6.382-38.326
				c0.812-11.085,2.404-23.153-2.118-33.679C76.568,103.107,74.653,103.663,75.006,104.483L75.006,104.483z"/>
		</g>
	</g>
	<g display="inline">
		<g>
			<path fill="none" d="M104.639,106.225c-1.333,12.333-0.713,32.611-3.333,44.667c-6.667,30.666,17.333,42.332,26.667,80.332"/>
			<path d="M103.662,106.306c-1.239,12.251-0.904,24.604-2.139,36.86c-1.022,10.143-3.474,19.021-0.873,29.186
				c2.268,8.861,7.35,16.854,11.831,24.721c6.231,10.938,11.419,22.175,14.525,34.412c0.22,0.865,2.152,0.353,1.932-0.518
				c-2.816-11.1-7.316-21.431-12.83-31.436c-4.791-8.692-10.304-17.09-13.231-26.653c-3.137-10.247-0.559-19.612,0.601-29.873
				c1.383-12.239,0.9-24.609,2.138-36.86C105.713,105.176,103.747,105.464,103.662,106.306L103.662,106.306z"/>
		</g>
	</g>
	<g display="inline">
		<g>
			<path fill="none" d="M164.972,101.558c15,14,16.666,31.667,14.333,62c-0.873,11.346-2.363,28.478-8.333,38
				c-5.728,9.137-4.334,12-17.334,19.666c-3.369,1.987-7.443,6.78-10,9.668c-7.611,8.592-15.82,15.827-16,27.666"/>
			<path d="M164.062,101.888c10.084,9.627,14.023,21.839,14.932,35.484c1.122,16.858-0.23,35.405-4.116,51.851
				c-1.607,6.801-4.954,12.264-8.155,18.354c-3.551,6.759-8.555,10.159-14.854,14.293c-6.247,4.101-11.416,11.476-16.273,17.075
				c-5,5.765-8.563,12.129-8.922,19.873c-0.014,0.295,1.905,0.056,1.932-0.519c0.461-9.948,6.351-16.97,12.784-24.024
				c2.615-2.866,5.144-5.813,7.82-8.625c3.4-3.569,7.709-5.737,11.615-8.66c4.122-3.084,6.364-7.053,8.731-11.504
				c3.699-6.954,6.604-13.116,8.175-20.94c3.169-15.778,4.174-32.993,3.106-49.026c-0.877-13.178-5.308-25.081-14.954-34.292
				C165.512,100.875,163.758,101.598,164.062,101.888L164.062,101.888z"/>
		</g>
	</g>
	<g display="inline">
		<g>
			<path fill="none" d="M178.266,101.761c12.083,5.183,15.606,11.713,19.981,24.544c8.725,25.587,9.001,58.285-9.275,78.919
				c-20.667,23.334-45,25.334-57.667,51.668"/>
			<path d="M177.505,102.257c6.291,2.798,11.326,6.554,14.86,12.526c4.059,6.857,6.268,15.227,8.062,22.921
				c3.865,16.575,3.803,34.464-2.167,50.522c-12.221,32.873-52.749,38.24-67.863,68.615c-0.442,0.889,1.502,0.727,1.814,0.1
				c8.102-16.28,22.691-24.549,37.242-34.26c14.108-9.416,26.066-21.063,31.716-37.367c5.474-15.793,4.602-33.498,0.856-49.556
				c-1.736-7.445-4.189-15.042-7.875-21.763c-3.357-6.121-8.878-9.954-15.125-12.732
				C178.396,100.983,176.644,101.875,177.505,102.257L177.505,102.257z"/>
		</g>
	</g>
	<g display="inline">
		<g>
			<path fill="none" d="M130.305,240.893c1.667-4,2.667-9,5.333-12.668c3.667-6,9.334-10.332,13-16.666
				c5-8.666,6.334-19,7.667-28.666c2.667-23-7.667-44-11.667-66"/>
			<path d="M131.26,240.73c1.681-4.303,2.778-8.766,5.333-12.668c3.247-4.961,7.551-9.041,11.104-13.768
				c6.388-8.497,7.916-19.725,9.341-29.949c3.252-23.353-7.174-45.226-11.434-67.713c-0.085-0.449-2.029,0.005-1.932,0.518
				c4.245,22.412,14.662,44.246,11.455,67.521c-1.51,10.955-3.372,22.004-10.176,31.057c-2.947,3.92-6.519,7.312-9.389,11.304
				c-3.075,4.276-4.324,9.19-6.213,14.022C129.197,241.449,131.059,241.244,131.26,240.73L131.26,240.73z"/>
		</g>
	</g>
</g>
<g id="Layer_1_1_" display="none">
	<g display="inline">
		<g>
			<path fill="#00A651" d="M114.834,8.417c1.027,1.417,3.597,16.521,2.569,21.24c-2.569,10.856-13.43,9.234-25.097,12.568
				c-18.271,5.22-38.668,16.646-51,30.333c-11.818,12.743-20.667,33-24.1,47.721c-1.342,5.756-9.763,8.967-14.901,11.8"/>
			<g>
				<path fill="none" d="M114.834,8.417c1.027,1.417,3.597,16.521,2.569,21.24c-2.569,10.856-13.43,9.234-25.097,12.568
					c-18.271,5.22-38.668,16.646-51,30.333c-11.818,12.743-20.667,33-24.1,47.721c-1.342,5.756-9.763,8.967-14.901,11.8"/>
				<path d="M113.868,8.675c2.209,4.043,2.266,10.251,2.652,14.724c0.268,3.1,0.24,5.953-0.881,8.892
					c-2.066,5.413-8.313,6.556-13.337,7.491C86.69,42.688,72.235,48.68,58.862,57.26C44.841,66.256,34.279,78.327,26.57,93.025
					c-3.729,7.11-6.68,14.642-8.976,22.329c-1.098,3.677-1.44,6.876-4.279,9.713c-3.14,3.137-7.714,4.816-11.567,6.883
					c-1.128,0.605,0.662,0.499,1.113,0.256c5.133-2.753,11.155-4.997,14.482-10.055c1.944-2.956,2.317-7.795,3.414-11.162
					c1.404-4.309,3.122-8.51,4.973-12.645c8.126-18.146,20.562-32.316,37.433-42.812c9.065-5.64,18.988-10.002,29.223-13.011
					c6.348-1.866,13.879-1.671,19.763-4.971c4.809-2.696,6.557-7.118,6.433-12.458c-0.116-5.004-0.318-12.428-2.782-16.937
					C115.537,7.677,113.71,8.386,113.868,8.675L113.868,8.675z"/>
			</g>
		</g>
		<g>
			<path fill="#00A651" d="M56.771,107.535c-5.652,10.383-15.415,17.936-27.233,22.183c-6.68,2.36-18.565,8.318-27.899,3.173"/>
			<g>
				<path fill="none" d="M56.771,107.535c-5.652,10.383-15.415,17.936-27.233,22.183c-6.68,2.36-18.565,8.318-27.899,3.173"/>
				<path d="M55.859,107.467c-5.161,9.099-12.971,15.629-22.396,20.016c-9.098,4.234-21.382,9.608-31.069,4.894
					c-0.662-0.322-2.402,0.597-1.512,1.03c10.16,4.944,20.809-0.115,30.528-3.748c11.005-4.113,20.47-11.824,26.272-22.055
					C58.184,106.72,56.226,106.819,55.859,107.467L55.859,107.467z"/>
			</g>
		</g>
		<g>
			<path fill="#00A651" d="M128.523,3.438c-2.344,4.965,1.192,17.798,2.113,23.361c1.719,10.379,10.672,5.772,19.002,6.142
				c9.993,0.444,21.226,8.074,27.764,14.712c8.009,8.131,15.821,17.116,21.995,26.662c6.699,10.356,10.24,21.509,15.493,32.437
				c4.279,8.896,17.535,23.594,28.915,23.724"/>
			<g>
				<path fill="none" d="M128.523,3.438c-2.344,4.965,1.192,17.798,2.113,23.361c1.719,10.379,10.672,5.772,19.002,6.142
					c9.993,0.444,21.226,8.074,27.764,14.712c8.009,8.131,15.821,17.116,21.995,26.662c6.699,10.356,10.24,21.509,15.493,32.437
					c4.279,8.896,17.535,23.594,28.915,23.724"/>
				<path d="M127.568,3.599c-2.144,5.57-0.085,12.574,1.054,18.16c0.932,4.567,1.138,11.318,6.972,12.115
					c2.574,0.352,5.113,0.07,7.685-0.204c5.014-0.534,9.531-0.088,14.302,1.611c9.006,3.208,16.233,9.829,22.688,16.624
					c7.504,7.9,14.488,16.431,20.084,25.798c5.213,8.726,8.573,18.456,12.798,27.667c5.166,11.264,16.782,24.819,30.036,25.523
					c0.44,0.023,2.225-0.783,1.24-0.835c-15.322-0.814-26.09-17.657-31.555-30.141c-3.854-8.808-7.365-17.694-12.508-25.861
					c-4.87-7.735-10.861-14.782-17.034-21.494c-9.938-10.806-22.486-21.213-38.053-19.846c-3.526,0.31-7.399,1.25-10.67-0.563
					c-2.844-1.577-3.002-5.759-3.566-8.556c-1.24-6.153-3.922-14.187-1.562-20.321C129.633,2.872,127.767,3.082,127.568,3.599
					L127.568,3.599z"/>
			</g>
		</g>
		<g>
			<path fill="#00A651" d="M115.636,8.226c5.138-1.887,7.933-3.113,13.071-5.001"/>
			<g>
				<path fill="none" d="M115.636,8.226c5.138-1.887,7.933-3.113,13.071-5.001"/>
				<path d="M116.053,8.754c4.376-1.618,8.696-3.383,13.072-5.001c1.249-0.462,0.135-1.414-0.834-1.056
					c-4.376,1.618-8.695,3.383-13.071,5.001C113.97,8.16,115.085,9.112,116.053,8.754L116.053,8.754z"/>
			</g>
		</g>
		<g>
			<path fill="#00A651" d="M183.173,111.783c10.79,16.047,42.298,26.189,60.796,19.11"/>
			<g>
				<path fill="none" d="M183.173,111.783c10.79,16.047,42.298,26.189,60.796,19.11"/>
				<path d="M182.292,112.219c12.307,17.558,41.749,26.637,61.866,19.375c1.15-0.416,0.803-1.829-0.377-1.403
					c-19.403,7.004-47.861-1.917-59.726-18.844C183.522,110.586,181.691,111.362,182.292,112.219L182.292,112.219z"/>
			</g>
		</g>
		<g>
			<path fill="#00A651" d="M192.422,159.454c2.55-17.229-2.783-34.563-9.249-47.671"/>
			<g>
				<path fill="none" d="M192.422,159.454c2.55-17.229-2.783-34.563-9.249-47.671"/>
				<path d="M193.4,159.375c2.188-16.6-2.042-32.952-9.261-47.852c-0.4-0.826-2.307-0.255-1.932,0.518
					c7.166,14.792,11.412,30.995,9.237,47.49C191.318,160.5,193.288,160.225,193.4,159.375L193.4,159.375z"/>
			</g>
		</g>
		<g>
			<path fill="#00A651" d="M192.422,159.454c-21.066-9.44-21.261-36.232-40.124-53.505"/>
			<g>
				<path fill="none" d="M192.422,159.454c-21.066-9.44-21.261-36.232-40.124-53.505"/>
				<path d="M193.205,159.036c-10.597-5.011-16.238-14.718-21.285-24.819c-5.167-10.345-10.184-20.574-18.717-28.621
					c-0.427-0.402-2.219,0.317-1.809,0.704c9.118,8.598,14.198,19.75,19.757,30.75c4.791,9.479,10.61,18.151,20.489,22.821
					C192.119,160.098,193.9,159.364,193.205,159.036L193.205,159.036z"/>
			</g>
		</g>
		<g>
			<path fill="#00A651" d="M152.298,105.948c3.341,8.609,2.621,15.172,2.841,21.777c0.333,10.001-4.445,11.558-6.5,18.166
				c-3.084,10.385-8,12-7.646,23.305c-15.021-13.305-29.143-35.609-37.021-60.638"/>
			<g>
				<path fill="none" d="M152.298,105.948c3.341,8.609,2.621,15.172,2.841,21.777c0.333,10.001-4.445,11.558-6.5,18.166
					c-3.084,10.385-8,12-7.646,23.305c-15.021-13.305-29.143-35.609-37.021-60.638"/>
				<path d="M151.333,106.207c3.9,10.794,4.993,24.832-1.276,34.787c-2.673,4.246-3.748,9.262-6.119,13.691
					c-2.563,4.791-3.954,9.102-3.911,14.625c0.621-0.168,1.242-0.334,1.863-0.5c-17.754-15.988-29.71-37.97-36.951-60.513
					c-0.229-0.711-2.152-0.168-1.932,0.518c7.262,22.609,19.286,44.729,37.092,60.765c0.381,0.344,1.868,0.175,1.863-0.499
					c-0.045-5.855,1.608-10.268,4.335-15.361c2.516-4.701,3.754-9.801,6.622-14.33c2.942-4.647,3.201-9.221,3.137-14.613
					c-0.077-6.616-0.518-12.797-2.791-19.087C153.007,104.979,151.091,105.54,151.333,106.207L151.333,106.207z"/>
			</g>
		</g>
		<g>
			<path fill="#00A651" d="M58.973,104.891c-2.667,2-4,7-5.667,10c-2.667,5.333-5,10.667-7.667,16c-3,5.333-4,11.667-7.667,16.667
				c-3.333,5-8.333,9-11.333,14.332c7.333-2.332,15-1.666,22.333-3.666c8.333-2.334,15.333-5,22.667-9.666
				c11.333-7,35.667-24.333,31.333-40.333"/>
			<g>
				<path fill="none" d="M58.973,104.891c-2.667,2-4,7-5.667,10c-2.667,5.333-5,10.667-7.667,16c-3,5.333-4,11.667-7.667,16.667
					c-3.333,5-8.333,9-11.333,14.332c7.333-2.332,15-1.666,22.333-3.666c8.333-2.334,15.333-5,22.667-9.666
					c11.333-7,35.667-24.333,31.333-40.333"/>
				<path d="M58.197,104.727c-2.961,2.711-4.012,6.658-5.792,10.14c-2.945,5.761-5.441,11.742-8.438,17.478
					c-2.603,4.981-3.718,10.464-6.895,15.189c-3.417,5.085-8.137,9.073-11.333,14.333c-0.375,0.617,0.713,0.605,1.032,0.516
					c5.549-1.595,11.257-1.842,16.95-2.588c4.662-0.609,9.164-2.127,13.586-3.672c8.318-2.905,15.814-7.539,22.96-12.618
					c10.6-7.533,27.133-20.557,23.671-35.539c-0.157-0.682-2.094-0.184-1.932,0.518c3.45,14.933-13.395,27.649-23.926,35.134
					c-6.713,4.771-13.8,8.834-21.542,11.696c-9.825,3.632-20.104,3.233-30.032,6.086c0.344,0.172,0.688,0.344,1.032,0.516
					c2.617-4.307,6.158-7.844,9.372-11.691c3.337-3.994,5.194-8.531,6.99-13.349c2.347-6.294,5.685-12.333,8.568-18.404
					c2.034-4.281,3.764-10.198,7.278-13.416C60.582,104.293,58.668,104.296,58.197,104.727L58.197,104.727z"/>
			</g>
		</g>
	</g>
</g>
<g>
	<g>
		
			<ellipse fill="#FFFFFF" stroke="#000000" stroke-width="2" stroke-miterlimit="10" cx="79.471" cy="160.301" rx="31.278" ry="36.26"/>
		<circle stroke="#000000" stroke-width="2" stroke-miterlimit="10" cx="64.42" cy="179.703" r="9.477"/>
	</g>
	<g>
		
			<ellipse fill="#FFFFFF" stroke="#000000" stroke-width="2" stroke-miterlimit="10" cx="168.471" cy="160.301" rx="31.277" ry="36.26"/>
		<circle stroke="#000000" stroke-width="2" stroke-miterlimit="10" cx="154.462" cy="179.836" r="9.477"/>
	</g>
</g>
<g id="Layer_4">
	<g>
		<path fill="#B3B3B3" d="M110.972,8.558c5.333-2.333,11-5,16.333-8c1.333,8.333,0,16.333,2,24.333
			c2.333,10.333,8,7.333,16.667,7.667c23,0.667,45.333,18.333,55.666,38c7,12.667,8.334,27.667,17,39.667
			c7.667,11,18.667,17.667,31.334,21.333c-23.334,4.333-51.667-2.667-66.334-23c8,15,13.334,34.333,9.667,51.333
			c-1.667-4-8.667-8.332-11.667-12c-3.666-4.332-8-8.666-11-13.667c-6-8.667-14-18.667-18-28.333c4.334,12.333,5,21-0.333,33.333
			c-2.667,6-6.333,11.666-8,18c-1.333,5.666,0,11-0.333,16.666c-10-4-19-21.666-23.667-30.666c-6-12-13.667-24.333-18-37
			c2.333,8.667,4.333,13-3.333,20c-7.333,6.333-16.333,11.667-24.667,16.667c-14.667,9.334-31,15.334-48,17
			c7.667-3.666,13.333-15,17-22.333c4.333-9,10.333-19.333,11-29.667c-6.667,11-11,19-23.667,23.333c-8.333,2.667-21,6.333-29.667,4
			c20-2,21-29.333,27-43.333c8.333-19.333,19.667-33.333,36.667-45c9-6.667,17-9.667,28-11.667c8-1.333,17-2,24.667-4.667
			c0.333-6-1-18.667-5.667-22.333"/>
		<g>
			<path fill="none" d="M110.972,8.558c5.333-2.333,11-5,16.333-8c1.333,8.333,0,16.333,2,24.333c2.333,10.333,8,7.333,16.667,7.667
				c23,0.667,45.333,18.333,55.666,38c7,12.667,8.334,27.667,17,39.667c7.667,11,18.667,17.667,31.334,21.333
				c-23.334,4.333-51.667-2.667-66.334-23c8,15,13.334,34.333,9.667,51.333c-1.667-4-8.667-8.332-11.667-12
				c-3.666-4.332-8-8.666-11-13.667c-6-8.667-14-18.667-18-28.333c4.334,12.333,5,21-0.333,33.333c-2.667,6-6.333,11.666-8,18
				c-1.333,5.666,0,11-0.333,16.666c-10-4-19-21.666-23.667-30.666c-6-12-13.667-24.333-18-37c2.333,8.667,4.333,13-3.333,20
				c-7.333,6.333-16.333,11.667-24.667,16.667c-14.667,9.334-31,15.334-48,17c7.667-3.666,13.333-15,17-22.333
				c4.333-9,10.333-19.333,11-29.667c-6.667,11-11,19-23.667,23.333c-8.333,2.667-21,6.333-29.667,4c20-2,21-29.333,27-43.333
				c8.333-19.333,19.667-33.333,36.667-45c9-6.667,17-9.667,28-11.667c8-1.333,17-2,24.667-4.667c0.333-6-1-18.667-5.667-22.333"/>
			<path fill="#333333" d="M111.351,8.947c5.63-2.484,11.165-5.131,16.552-8.11c-0.521-0.007-1.042-0.014-1.563-0.021
				c1.263,9.204-0.489,19.246,3.203,27.994c1.835,4.349,6.298,4.545,10.376,4.392c18.809-0.708,35.288,7.557,48.372,20.753
				c6.502,6.557,11.599,14.398,15.258,22.853c3.744,8.652,5.812,17.909,9.846,26.457c7,14.837,20.634,24.204,35.985,28.812
				c0.242-0.349,0.483-0.697,0.728-1.046c-23.854,4.195-50.672-2.799-65.57-22.849c-0.345-0.463-2.148,0.091-1.863,0.635
				c8.152,15.587,13.156,33.619,9.668,51.197c0.644-0.127,1.287-0.255,1.931-0.382c-1.819-3.556-5.133-6.012-8.102-8.571
				c-4.338-3.742-8.062-8.41-11.628-12.873c-3.856-4.829-7.215-10.217-10.781-15.271c-3.862-5.474-7.486-11.122-10.156-17.283
				c-0.279-0.645-2.149-0.12-1.932,0.518c3.938,11.524,4.39,21.821-0.332,33.199c-2.303,5.547-5.51,10.594-7.498,16.289
				c-2.055,5.883-0.657,12.312-0.835,18.377c0.578-0.195,1.156-0.392,1.734-0.587c-10.644-4.733-16.887-17.893-21.997-27.626
				c-6.843-13.032-14.551-25.92-19.474-39.836c-0.232-0.657-2.112-0.143-1.932,0.518c1.417,5.183,3.342,10.33,0.516,15.376
				c-3.498,6.247-11.863,10.635-17.677,14.359c-13.024,8.345-26.267,15.941-41.26,20.123c-3.744,1.044-7.564,1.786-11.4,2.394
				c-1.263,0.199-2.638,0.385-3.534,0.861c0.761-0.404,1.569-1.05,2.257-1.56c4.521-3.349,7.622-8.672,10.33-13.47
				c6.272-11.113,13.509-23.933,14.7-36.8c0.074-0.805-1.616-0.303-1.864,0.107c-4.627,7.652-9.06,15.392-16.907,20.167
				c-4.777,2.907-10.6,4.226-15.974,5.574c-6.152,1.543-12.702,2.529-18.961,1.088c-0.242,0.349-0.484,0.697-0.727,1.046
				c10.061-1.277,15.901-8.357,19.642-17.299c2.316-5.536,3.722-11.435,5.324-17.203c1.883-6.779,4.542-13.034,7.859-19.254
				c7.649-14.341,18.69-25.491,31.749-34.951c8.234-5.965,17.142-9.411,27.093-11.293c8.356-1.58,16.793-2.056,24.928-4.718
				c0.234-0.077,0.825-0.266,0.838-0.599c0.282-7.042-0.112-17.494-5.734-22.586c-0.5-0.453-2.31,0.285-1.795,0.752
				c4.9,4.438,5.421,13.113,5.634,19.282c0.105,3.056-1.313,2.904-3.939,3.582c-3.192,0.823-6.476,1.297-9.733,1.783
				c-4.481,0.669-8.965,1.226-13.406,2.135C72.6,38.802,58.201,49.236,46.613,61.406C36.259,72.281,28.319,86.033,24.165,100.46
				c-3.703,12.86-6.855,32.181-23.059,34.238c-0.42,0.053-1.752,0.81-0.727,1.046c10.772,2.479,23.425-1.148,33.419-5.194
				c10.341-4.187,15.895-13.53,21.405-22.642c-0.621,0.036-1.243,0.071-1.864,0.107c-1.02,11.023-6.6,20.871-11.47,30.6
				c-3.853,7.697-8.244,16.79-16.162,20.996c-0.78,0.414-0.134,0.871,0.463,0.807c19.663-2.096,36.455-9.836,53.193-19.929
				c7.548-4.551,17.084-9.517,22.717-16.492c4.709-5.833,3.021-11.334,1.19-18.031c-0.644,0.172-1.288,0.345-1.932,0.518
				c5.175,14.632,13.331,28.259,20.583,41.938c4.975,9.385,11.084,21.396,21.281,25.934c0.388,0.172,1.717,0.02,1.734-0.586
				c0.183-6.188-0.938-12.332,0.835-18.379c1.855-6.326,5.699-11.953,8.22-18.025c4.437-10.689,3.269-21.034-0.388-31.731
				c-0.644,0.172-1.288,0.345-1.932,0.518c4.494,10.373,11.642,19.244,18.068,28.45c3.593,5.148,7.597,9.821,11.759,14.524
				c3.408,3.851,8.431,6.317,10.84,11.024c0.303,0.593,1.81,0.231,1.931-0.381c3.507-17.668-1.468-35.794-9.666-51.47
				c-0.621,0.211-1.242,0.423-1.863,0.635c15.214,20.474,42.794,27.424,67.098,23.151c0.432-0.076,1.737-0.743,0.727-1.046
				c-17.905-5.375-30.995-16.916-37.862-34.392c-3.248-8.264-5.361-16.886-9.314-24.876c-3.397-6.867-8.029-13.037-13.301-18.566
				c-10.657-11.177-25.065-19.315-40.526-20.983c-5.079-0.548-13.336,1.836-17.128-2.367c-2.75-3.048-2.931-8.809-3.235-12.616
				c-0.453-5.656-0.152-11.298-0.926-16.939c-0.08-0.583-1.313-0.159-1.563-0.021c-5.243,2.899-10.636,5.473-16.115,7.89
				C109.358,8.713,110.492,9.327,111.351,8.947L111.351,8.947z"/>
		</g>
	</g>
</g>
<g id="Layer_3" display="none">
</g>
</svg>
