<?xml version="1.0" encoding="UTF-8" standalone="no"?>
<!-- Generator: Adobe Illustrator 16.0.4, SVG Export Plug-In . SVG Version: 6.00 Build 0)  -->

<svg
   xmlns:dc="http://purl.org/dc/elements/1.1/"
   xmlns:cc="http://creativecommons.org/ns#"
   xmlns:rdf="http://www.w3.org/1999/02/22-rdf-syntax-ns#"
   xmlns:svg="http://www.w3.org/2000/svg"
   xmlns="http://www.w3.org/2000/svg"
   xmlns:sodipodi="http://sodipodi.sourceforge.net/DTD/sodipodi-0.dtd"
   xmlns:inkscape="http://www.inkscape.org/namespaces/inkscape"
   version="1.1"
   id="Layer_1"
   x="0px"
   y="0px"
   width="600"
   height="600"
   viewBox="0 0 600 600"
   enable-background="new 0 0 288 288"
   xml:space="preserve"
   sodipodi:docname="hazelnut-face-twelf.svg"
   inkscape:version="0.92.1 r15371"><metadata
     id="metadata2869"><rdf:RDF><cc:Work
         rdf:about=""><dc:format>image/svg+xml</dc:format><dc:type
           rdf:resource="http://purl.org/dc/dcmitype/StillImage" /><dc:title></dc:title></cc:Work></rdf:RDF></metadata><defs
     id="defs2867"><filter
       inkscape:collect="always"
       style="color-interpolation-filters:sRGB"
       id="filter1414"><feBlend
         inkscape:collect="always"
         mode="multiply"
         in2="BackgroundImage"
         id="feBlend1416" /></filter></defs><sodipodi:namedview
     pagecolor="#ffffff"
     bordercolor="#666666"
     borderopacity="1"
     objecttolerance="10"
     gridtolerance="10"
     guidetolerance="10"
     inkscape:pageopacity="0"
     inkscape:pageshadow="2"
     inkscape:window-width="1331"
     inkscape:window-height="719"
     id="namedview2865"
     showgrid="false"
     inkscape:zoom="0.94316065"
     inkscape:cx="144"
     inkscape:cy="228.82118"
     inkscape:window-x="0"
     inkscape:window-y="0"
     inkscape:window-maximized="0"
     inkscape:current-layer="Layer_1" /><g
     id="Layer_2"
     transform="translate(130.41257,287.61391)"><g
       id="g2600"><path
         d="m 47.896,181.333 c 18.729,41 43.7,48.667 75.243,66.001 10.515,6 19.058,12.666 25.63,23.332 -1.369,-2.223 9.248,-10.816 10.813,-11.877 4.378,-2.963 13.755,-10.125 18.749,-11.789 14,-4.666 20.253,-9.243 29,-17.666 5.938,-5.718 6.947,-7.107 12.669,-13.035 11.793,-12.222 24.297,-32.061 26.163,-49.254 0.838,-7.712 -1.294,-15.354 -2.537,-22.9 -1.025,-6.228 -1.869,-12.03 -5.167,-17.552 -3.303,-5.53 -7.308,-10.723 -12.147,-15.016 -10.026,-8.892 -20.896,-16.917 -34.156,-19.927 -19.889,-4.515 -41.186,-5.905 -61.46,-7.39 -16.078,-1.177 -31.06,0.696 -45.671,7.741 -5.399,2.603 -10.332,6.417 -15.1,9.984 -6.053,4.528 -13.477,9.818 -17.429,16.355 -2.114,3.499 -3.581,7.189 -5.852,10.66 -10.04,15.345 -5.969,36.523 1.252,52.333 z"
         id="path2594"
         inkscape:connector-curvature="0"
         style="fill:#995432" /><g
         id="g2598"><path
           d="m 46.931,181.592 c 9.558,20.618 23.39,36.741 42.828,48.553 20.312,12.34 44.704,19.754 58.046,40.78 0.286,0.452 2.096,-0.012 1.932,-0.518 -0.911,-2.813 5.74,-7.595 7.529,-9.119 3.105,-2.647 6.555,-4.888 9.894,-7.222 5.225,-3.653 10.292,-6.252 16.247,-8.476 4.824,-1.802 9.418,-4.124 13.708,-6.969 9.062,-6.011 16.297,-14.589 23.771,-22.368 8.838,-9.195 16.082,-20.015 21.246,-31.669 2.495,-5.631 4.229,-11.585 4.992,-17.696 0.889,-7.107 -0.947,-14.316 -2.229,-21.261 -1.238,-6.726 -2.095,-13.223 -5.467,-19.295 -3.14,-5.651 -7.461,-10.756 -12.209,-15.102 -9.855,-9.019 -21.162,-16.781 -34.275,-19.986 -14.643,-3.578 -29.881,-4.932 -44.863,-6.163 -14.977,-1.23 -30.217,-2.923 -45.057,0.382 -15.151,3.375 -26.712,10.941 -38.89,20.245 -5.287,4.039 -10.115,8.489 -13.463,14.295 -3.68,6.382 -7.784,12.963 -9.704,20.121 -3.678,13.708 0.343,28.894 5.964,41.468 0.24,0.537 2.119,-0.098 1.932,-0.518 -5.355,-11.982 -8.622,-25.188 -6.596,-38.331 0.981,-6.369 4.024,-11.417 7.118,-16.916 1.914,-3.401 3.432,-6.908 5.749,-10.08 2.509,-3.434 5.928,-6.251 9.212,-8.893 5.338,-4.294 10.92,-8.462 16.689,-12.154 8.016,-5.13 17.636,-7.893 26.955,-9.37 15.782,-2.501 32.472,-0.036 48.262,1.449 15.323,1.441 31.971,2.72 46.15,9.084 13.033,5.85 25.447,16.432 33.383,28.253 3.854,5.742 5.468,11.858 6.602,18.599 1.271,7.577 3.162,15.079 2.956,22.811 -0.374,13.973 -8.616,28.053 -16.474,39.089 -6.087,8.551 -13.651,16.179 -21.131,23.517 -8.352,8.194 -17.033,14.089 -28.109,18.035 -7.785,2.773 -14.396,8.005 -21.077,12.756 -2.622,1.863 -11.962,8.251 -10.747,12.003 0.645,-0.173 1.288,-0.345 1.932,-0.518 -12.699,-20.017 -35.359,-27.854 -55.054,-39.122 -20.795,-11.898 -35.725,-28.438 -45.818,-50.211 -0.252,-0.538 -2.125,0.107 -1.934,0.517 z"
           id="path2596"
           inkscape:connector-curvature="0"
           style="fill:#231f20" /></g></g><g
       id="g2608"><g
         id="g2606"><path
           d="M 508.333,260.334"
           id="path2602"
           inkscape:connector-curvature="0"
           style="fill:none" /><path
           d="m 507.707,260.73 c 0.408,0 2.203,-0.795 1.252,-0.795 -0.408,0.003 -2.203,0.795 -1.252,0.795 z"
           id="path2604"
           inkscape:connector-curvature="0"
           style="fill:#231f20" /></g></g></g><g
     id="Layer_6"
     display="none"
     style="display:none"
     transform="translate(0,312)"><g
       display="inline"
       id="g2617"
       style="display:inline"><g
         id="g2615"><path
           d="M 83.667,121.667 C 77,149 56.333,212.334 92.333,230.334"
           id="path2611"
           inkscape:connector-curvature="0"
           style="fill:none" /><path
           d="m 82.686,121.733 c -4.885,19.892 -10.655,39.602 -11.809,60.173 -1.056,18.82 2.709,39.66 20.904,49.1 0.824,0.428 2.206,-0.771 1.104,-1.344 -19.314,-10.02 -21.324,-33.202 -19.721,-52.577 1.565,-18.914 6.977,-37.139 11.482,-55.484 0.239,-0.97 -1.743,-0.753 -1.96,0.132 z"
           id="path2613"
           inkscape:connector-curvature="0"
           style="fill:#231f20" /></g></g><g
       display="inline"
       id="g2625"
       style="display:inline"><g
         id="g2623"><path
           d="m 103,117.667 c -8,22.667 -9.333,50.667 -6,74 1.333,10.667 6,20.667 11.333,30 4,8 14,18 15.333,27.333"
           id="path2619"
           inkscape:connector-curvature="0"
           style="fill:none" /><path
           d="m 102.04,117.808 c -7.616,22.109 -9.106,46.14 -6.622,69.283 1.362,12.688 5.703,23.778 11.95,34.835 5.057,8.95 13.429,16.952 15.333,27.333 0.103,0.562 2.045,0.101 1.932,-0.518 -1.759,-9.595 -9.156,-17.048 -14.104,-25.104 -6.387,-10.398 -11.114,-21.712 -12.782,-33.826 -3.296,-23.94 -1.679,-49.371 6.214,-72.286 0.189,-0.549 -1.722,-0.296 -1.921,0.283 z"
           id="path2621"
           inkscape:connector-curvature="0"
           style="fill:#231f20" /></g></g><g
       display="inline"
       id="g2633"
       style="display:inline"><g
         id="g2631"><path
           d="m 113.667,109 c -5.333,17.333 -3.333,40.667 -2.667,58.667 0,13.333 2.667,24.667 9.333,36.667 C 133,225 147,245 151,269.667"
           id="path2627"
           inkscape:connector-curvature="0"
           style="fill:none" /><path
           d="m 112.702,109.127 c -3.745,12.769 -3.813,26.244 -3.458,39.439 0.376,13.984 -0.015,28.589 4.055,42.086 4.22,13.992 13.821,25.934 21.017,38.469 7.32,12.752 13.211,26.248 15.719,40.805 0.107,0.629 2.05,0.167 1.932,-0.518 -2.418,-14.039 -8.004,-26.949 -14.89,-39.34 -6.83,-12.291 -15.759,-23.646 -20.79,-36.84 -4.878,-12.797 -4.385,-26.68 -4.935,-40.145 -0.602,-14.729 -0.909,-29.932 3.279,-44.212 0.192,-0.654 -1.744,-0.374 -1.929,0.256 z"
           id="path2629"
           inkscape:connector-curvature="0"
           style="fill:#231f20" /></g></g><g
       display="inline"
       id="g2641"
       style="display:inline"><g
         id="g2639"><path
           d="m 207.667,101 c 14,27.333 18,46 8,75.334 -8,22 -20,46.666 -20,70.666"
           id="path2635"
           inkscape:connector-curvature="0"
           style="fill:none" /><path
           d="m 206.701,101.259 c 5.398,10.629 10.212,21.554 12.447,33.325 2.336,12.295 0.672,24.736 -2.752,36.654 -7.338,25.527 -21.375,48.748 -21.695,76.021 -0.003,0.269 1.926,0.015 1.932,-0.518 0.326,-27.736 14.689,-51.582 22.156,-77.565 3.154,-10.977 4.217,-22.357 2.535,-33.674 -1.823,-12.262 -7.127,-23.807 -12.691,-34.761 -0.231,-0.452 -2.071,0.245 -1.932,0.518 z"
           id="path2637"
           inkscape:connector-curvature="0"
           style="fill:#231f20" /></g></g><g
       display="inline"
       id="g2649"
       style="display:inline"><g
         id="g2647"><path
           d="m 182.333,105 c -2,1.333 9.334,25.333 10.667,31.333 4,15.333 0,28 -4,42.667 -5.333,23.334 -22.667,56 -15.333,80"
           id="path2643"
           inkscape:connector-curvature="0"
           style="fill:none" /><path
           d="m 181.443,105.017 c -1.332,1.507 0.881,5.858 1.396,7.328 1.792,5.094 3.922,10.072 5.924,15.085 1.953,4.891 3.559,9.573 4.41,14.796 1.633,9.995 -0.63,20.097 -3.173,29.727 -3.922,14.855 -8.961,29.249 -13.481,43.922 -4.259,13.823 -7.901,29.088 -3.818,43.384 0.167,0.585 2.096,0.056 1.932,-0.518 -4.078,-14.282 -0.357,-29.325 3.809,-43.147 4.431,-14.697 9.479,-29.091 13.482,-43.923 3.721,-13.778 5.361,-27.401 0.229,-41.031 -1.899,-5.047 -4.016,-10.012 -5.969,-15.038 -0.611,-1.575 -4.391,-9.002 -2.961,-10.619 0.5,-0.566 -1.414,-0.378 -1.78,0.034 z"
           id="path2645"
           inkscape:connector-curvature="0"
           style="fill:#231f20" /></g></g><g
       display="inline"
       id="g2657"
       style="display:inline"><g
         id="g2655"><path
           d="m 155.667,117.667 c -2,4 6.666,24.667 7.333,33.333 0.667,15.334 0,32.667 -1.333,48.667 -2.667,27.333 -12,52 -6,80"
           id="path2651"
           inkscape:connector-curvature="0"
           style="fill:none" /><path
           d="m 154.706,117.808 c -1.062,2.812 0.342,6.592 1.043,9.321 1.315,5.127 2.992,10.16 4.42,15.257 3.831,13.675 2.249,28.919 1.529,42.937 -0.837,16.294 -3.562,32.078 -6.279,48.134 -2.62,15.474 -3.86,30.976 -0.718,46.471 0.115,0.568 2.056,0.095 1.932,-0.518 -3.251,-16.035 -1.703,-31.991 1.004,-47.978 2.621,-15.484 5.114,-30.686 5.983,-46.392 0.71,-12.842 2.306,-27.229 -0.652,-39.851 -1.202,-5.133 -2.887,-10.157 -4.356,-15.217 -0.984,-3.392 -3.319,-8.906 -1.982,-12.446 0.199,-0.534 -1.705,-0.297 -1.924,0.282 z"
           id="path2653"
           inkscape:connector-curvature="0"
           style="fill:#231f20" /></g></g></g><g
     id="Layer_7"
     transform="translate(130.41257,287.61391)"><g
       id="g2684"><g
         id="g2664"><g
           id="g2662"><path
             d="m 92.432,103.853 c -7.243,-2.56 -11.294,9.897 -13.048,14.585 -3.802,10.165 -7.291,21.933 -7.361,32.884 -0.121,18.744 7.656,36.701 17.135,52.488 10.496,17.481 24.12,32.996 38.281,47.575 0.493,0.507 2.328,-0.217 1.79,-0.771 -23.634,-24.331 -47.997,-53.01 -54.181,-87.391 -2.007,-11.156 -0.465,-21.106 2.268,-31.913 1.004,-3.97 6.889,-28.865 13.586,-26.498 0.611,0.219 2.357,-0.667 1.53,-0.959 z"
             id="path2660"
             inkscape:connector-curvature="0"
             style="fill:#66331e" /></g></g><g
         id="g2670"><g
           id="g2668"><path
             d="m 193.434,97.365 c 10.193,11.32 14.551,25.058 16.322,39.934 1.695,14.233 3.061,29.625 0.251,43.76 -2.127,10.699 -7.745,19.918 -13.269,29.148 -6.572,10.988 -11.557,22.387 -14.368,34.926 -0.147,0.658 1.789,0.342 1.926,-0.268 2.97,-13.238 8.419,-24.991 15.369,-36.567 5.487,-9.138 10.415,-18.188 12.515,-28.758 2.741,-13.794 1.014,-28.903 -0.492,-42.759 -1.621,-14.919 -6.295,-28.866 -16.453,-40.147 -0.419,-0.462 -2.256,0.227 -1.801,0.731 z"
             id="path2666"
             inkscape:connector-curvature="0"
             style="fill:#66331e" /></g></g><g
         id="g2676"><g
           id="g2674"><path
             d="m 157.262,97.581 c 12.844,7.873 16.93,20.272 17.313,34.693 0.174,6.527 -0.251,13.061 -0.278,19.587 -0.037,8.559 0.875,17.104 0.98,25.664 0.199,16.291 -3.27,32.798 -9.248,47.912 -5.471,13.826 -12.367,26.897 -16.959,41.096 -0.355,1.098 1.576,1.145 1.859,0.268 4.729,-14.617 11.823,-28.113 17.457,-42.355 6.331,-16.004 9.176,-33.403 8.793,-50.568 -0.186,-8.254 -0.994,-16.477 -0.9,-24.736 0.08,-6.951 0.479,-13.888 0.105,-20.837 -0.721,-13.437 -5.955,-24.717 -17.646,-31.883 -0.774,-0.477 -2.437,0.571 -1.476,1.159 z"
             id="path2672"
             inkscape:connector-curvature="0"
             style="fill:#66331e" /></g></g><g
         id="g2682"><g
           id="g2680"><path
             d="m 110.032,99.113 c -3.957,12.99 -3.831,26.826 -3.402,40.271 0.456,14.289 1.39,28.481 3.651,42.609 4.537,28.346 14.662,55.417 30.49,79.394 0.378,0.571 2.25,-0.076 1.79,-0.772 -15.84,-23.993 -25.623,-50.849 -30.348,-79.138 -2.267,-13.572 -3.056,-27.234 -3.593,-40.962 -0.541,-13.853 -0.732,-28.234 3.348,-41.626 0.221,-0.727 -1.728,-0.459 -1.936,0.224 z"
             id="path2678"
             inkscape:connector-curvature="0"
             style="fill:#66331e" /></g></g></g></g><g
     id="Layer_2_copy"
     transform="translate(130.41257,287.61391)"><g
       id="g2693"><g
         id="g2691"><path
           d="m 47.896,181.333 c 18.729,41 43.7,48.667 75.243,66.001 10.515,6 19.058,12.666 25.63,23.332 -1.369,-2.223 9.248,-10.816 10.813,-11.877 4.378,-2.963 13.755,-10.125 18.749,-11.789 14,-4.666 20.253,-9.243 29,-17.666 5.938,-5.718 6.947,-7.107 12.669,-13.035 11.793,-12.222 24.297,-32.061 26.163,-49.254 0.838,-7.712 -1.294,-15.354 -2.537,-22.9 -1.025,-6.228 -1.869,-12.03 -5.167,-17.552 -3.303,-5.53 -7.308,-10.723 -12.147,-15.016 -10.026,-8.892 -20.896,-16.917 -34.156,-19.927 -19.889,-4.515 -41.186,-5.905 -61.46,-7.39 -16.078,-1.177 -31.06,0.696 -45.671,7.741 -5.399,2.603 -10.332,6.417 -15.1,9.984 -6.053,4.528 -13.477,9.818 -17.429,16.355 -2.114,3.499 -3.581,7.189 -5.852,10.66 -10.04,15.345 -5.969,36.523 1.252,52.333 z"
           id="path2687"
           inkscape:connector-curvature="0"
           style="fill:none" /><path
           d="m 46.931,181.592 c 9.558,20.618 23.39,36.741 42.828,48.553 20.312,12.34 44.704,19.754 58.046,40.78 0.286,0.452 2.096,-0.012 1.932,-0.518 -0.911,-2.813 5.74,-7.595 7.529,-9.119 3.105,-2.647 6.555,-4.888 9.894,-7.222 5.225,-3.653 10.292,-6.252 16.247,-8.476 4.824,-1.802 9.418,-4.124 13.708,-6.969 9.062,-6.011 16.297,-14.589 23.771,-22.368 8.838,-9.195 16.082,-20.015 21.246,-31.669 2.495,-5.631 4.229,-11.585 4.992,-17.696 0.889,-7.107 -0.947,-14.316 -2.229,-21.261 -1.238,-6.726 -2.095,-13.223 -5.467,-19.295 -3.14,-5.651 -7.461,-10.756 -12.209,-15.102 -9.855,-9.019 -21.162,-16.781 -34.275,-19.986 -14.643,-3.578 -29.881,-4.932 -44.863,-6.163 -14.977,-1.23 -30.217,-2.923 -45.057,0.382 -15.151,3.375 -26.712,10.941 -38.89,20.245 -5.287,4.039 -10.115,8.489 -13.463,14.295 -3.68,6.382 -7.784,12.963 -9.704,20.121 -3.678,13.708 0.343,28.894 5.964,41.468 0.24,0.537 2.119,-0.098 1.932,-0.518 -5.355,-11.982 -8.622,-25.188 -6.596,-38.331 0.981,-6.369 4.024,-11.417 7.118,-16.916 1.914,-3.401 3.432,-6.908 5.749,-10.08 2.509,-3.434 5.928,-6.251 9.212,-8.893 5.338,-4.294 10.92,-8.462 16.689,-12.154 8.016,-5.13 17.636,-7.893 26.955,-9.37 15.782,-2.501 32.472,-0.036 48.262,1.449 15.323,1.441 31.971,2.72 46.15,9.084 13.033,5.85 25.447,16.432 33.383,28.253 3.854,5.742 5.468,11.858 6.602,18.599 1.271,7.577 3.162,15.079 2.956,22.811 -0.374,13.973 -8.616,28.053 -16.474,39.089 -6.087,8.551 -13.651,16.179 -21.131,23.517 -8.352,8.194 -17.033,14.089 -28.109,18.035 -7.785,2.773 -14.396,8.005 -21.077,12.756 -2.622,1.863 -11.962,8.251 -10.747,12.003 0.645,-0.173 1.288,-0.345 1.932,-0.518 -12.699,-20.017 -35.359,-27.854 -55.054,-39.122 -20.795,-11.898 -35.725,-28.438 -45.818,-50.211 -0.252,-0.538 -2.125,0.107 -1.934,0.517 z"
           id="path2689"
           inkscape:connector-curvature="0"
           style="fill:#231f20" /></g></g><g
       id="g2701"><g
         id="g2699"><path
           d="M 508.333,260.334"
           id="path2695"
           inkscape:connector-curvature="0"
           style="fill:none" /><path
           d="m 507.707,260.73 c 0.408,0 2.203,-0.795 1.252,-0.795 -0.408,0.003 -2.203,0.795 -1.252,0.795 z"
           id="path2697"
           inkscape:connector-curvature="0"
           style="fill:#231f20" /></g></g></g><g
     id="Layer_5"
     display="none"
     style="display:none"
     transform="translate(0,312)"><g
       display="inline"
       id="g2710"
       style="display:inline"><g
         id="g2708"><path
           d="m 63,114 c -9,17.667 9,64 18.667,79 10.667,17.334 29.333,27.668 44,41.334 7,6.667 19.333,17 20.667,27"
           id="path2704"
           inkscape:connector-curvature="0"
           style="fill:none" /><path
           d="m 62.043,114.156 c -5.222,10.904 -1.745,25.157 1.105,36.213 3.443,13.354 8.507,26.592 15.09,38.719 7.875,14.508 20.692,24.551 33.426,34.59 6.557,5.17 12.766,10.646 18.832,16.379 6.221,5.881 13.324,12.76 14.871,21.536 0.085,0.481 2.029,0.034 1.932,-0.518 -1.316,-7.474 -6.721,-13.403 -11.854,-18.646 -5.741,-5.861 -11.927,-11.356 -18.298,-16.519 C 103.569,214.911 89.413,204.847 80.6,189.339 74.06,177.833 69.37,165.054 65.762,152.359 c -3.281,-11.545 -7.297,-27.046 -1.804,-38.516 0.185,-0.387 -1.663,-0.213 -1.915,0.313 z"
           id="path2706"
           inkscape:connector-curvature="0"
           style="fill:#231f20" /></g></g><g
       display="inline"
       id="g2718"
       style="display:inline"><g
         id="g2716"><path
           d="m 97.667,110 c 7.667,16.667 -2.667,44 3.667,61.667 4,11.667 12,20.999 20.333,30.333 11.667,13.666 23.667,32.667 25.667,51.667"
           id="path2712"
           inkscape:connector-curvature="0"
           style="fill:none" /><path
           d="m 96.701,110.258 c 4.865,11.324 2.708,24.432 1.876,36.34 -0.827,11.821 -0.268,22.379 5.176,33.113 6.313,12.448 17.119,21.938 25.185,33.178 8.716,12.145 15.625,26.065 17.429,41.036 0.107,0.888 2.044,0.41 1.932,-0.518 -1.693,-14.042 -7.902,-26.847 -15.63,-38.526 -7.728,-11.679 -18.241,-21.156 -25.536,-33.137 -7.364,-12.094 -7.384,-24.653 -6.382,-38.326 0.812,-11.085 2.404,-23.153 -2.118,-33.679 -0.37,-0.857 -2.285,-0.301 -1.932,0.519 z"
           id="path2714"
           inkscape:connector-curvature="0"
           style="fill:#231f20" /></g></g><g
       display="inline"
       id="g2726"
       style="display:inline"><g
         id="g2724"><path
           d="M 126.333,112 C 125,124.333 125.62,144.611 123,156.667 116.333,187.333 140.333,199 149.667,237"
           id="path2720"
           inkscape:connector-curvature="0"
           style="fill:none" /><path
           d="m 125.357,112.081 c -1.239,12.251 -0.904,24.604 -2.139,36.86 -1.022,10.143 -3.474,19.021 -0.873,29.185 2.268,8.862 7.35,16.854 11.831,24.722 6.231,10.938 11.42,22.174 14.525,34.412 0.22,0.865 2.152,0.352 1.932,-0.518 -2.816,-11.1 -7.316,-21.432 -12.83,-31.436 -4.791,-8.692 -10.304,-17.09 -13.231,-26.654 -3.137,-10.246 -0.559,-19.611 0.601,-29.872 1.383,-12.239 0.9,-24.609 2.138,-36.86 0.097,-0.969 -1.869,-0.681 -1.954,0.161 z"
           id="path2722"
           inkscape:connector-curvature="0"
           style="fill:#231f20" /></g></g><g
       display="inline"
       id="g2734"
       style="display:inline"><g
         id="g2732"><path
           d="m 186.667,107.333 c 15,14 16.666,31.667 14.333,62 -0.873,11.347 -2.363,28.478 -8.333,38.001 -5.728,9.137 -4.334,12 -17.334,19.666 -3.369,1.986 -7.442,6.78 -10,9.667 -7.61,8.593 -15.819,15.828 -16,27.667"
           id="path2728"
           inkscape:connector-curvature="0"
           style="fill:none" /><path
           d="m 185.757,107.663 c 10.084,9.627 14.022,21.839 14.933,35.484 1.121,16.859 -0.23,35.405 -4.116,51.851 -1.607,6.8 -4.954,12.263 -8.155,18.354 -3.551,6.76 -8.555,10.159 -14.854,14.293 -6.248,4.101 -11.416,11.476 -16.273,17.075 -5,5.765 -8.562,12.13 -8.922,19.873 -0.014,0.296 1.904,0.056 1.932,-0.518 0.461,-9.948 6.352,-16.97 12.784,-24.024 2.615,-2.867 5.144,-5.814 7.82,-8.625 3.399,-3.57 7.709,-5.738 11.614,-8.66 4.123,-3.084 6.364,-7.054 8.731,-11.504 3.699,-6.955 6.604,-13.117 8.175,-20.941 3.17,-15.777 4.174,-32.992 3.106,-49.025 -0.877,-13.178 -5.308,-25.081 -14.954,-34.292 -0.371,-0.354 -2.125,0.369 -1.821,0.659 z"
           id="path2730"
           inkscape:connector-curvature="0"
           style="fill:#231f20" /></g></g><g
       display="inline"
       id="g2742"
       style="display:inline"><g
         id="g2740"><path
           d="m 199.961,107.536 c 12.083,5.183 15.605,11.713 19.98,24.544 8.726,25.587 9.002,58.285 -9.274,78.92 -20.667,23.334 -45,25.334 -57.667,51.667"
           id="path2736"
           inkscape:connector-curvature="0"
           style="fill:none" /><path
           d="m 199.2,108.032 c 6.291,2.798 11.325,6.554 14.86,12.526 4.059,6.857 6.268,15.227 8.062,22.921 3.864,16.576 3.803,34.464 -2.167,50.523 -12.221,32.872 -52.749,38.24 -67.863,68.615 -0.441,0.889 1.502,0.727 1.814,0.1 8.102,-16.281 22.691,-24.55 37.242,-34.261 14.107,-9.416 26.065,-21.063 31.715,-37.366 5.475,-15.793 4.603,-33.498 0.857,-49.556 -1.736,-7.445 -4.189,-15.042 -7.875,-21.763 -3.357,-6.121 -8.879,-9.954 -15.125,-12.732 -0.629,-0.281 -2.381,0.61 -1.52,0.993 z"
           id="path2738"
           inkscape:connector-curvature="0"
           style="fill:#231f20" /></g></g><g
       display="inline"
       id="g2750"
       style="display:inline"><g
         id="g2748"><path
           d="m 152,246.667 c 1.667,-4 2.667,-9 5.333,-12.667 3.667,-6 9.334,-10.333 13,-16.666 5,-8.667 6.334,-19 7.667,-28.667 2.667,-23 -7.667,-44 -11.667,-66"
           id="path2744"
           inkscape:connector-curvature="0"
           style="fill:none" /><path
           d="m 152.955,246.505 c 1.682,-4.302 2.777,-8.765 5.333,-12.667 3.247,-4.962 7.551,-9.042 11.104,-13.768 6.387,-8.497 7.916,-19.726 9.34,-29.949 3.252,-23.354 -7.174,-45.227 -11.434,-67.713 -0.085,-0.449 -2.029,0.005 -1.932,0.518 4.244,22.412 14.662,44.245 11.455,67.521 -1.51,10.955 -3.372,22.004 -10.176,31.056 -2.947,3.921 -6.52,7.312 -9.39,11.304 -3.075,4.277 -4.323,9.19 -6.213,14.023 -0.149,0.395 1.712,0.19 1.913,-0.325 z"
           id="path2746"
           inkscape:connector-curvature="0"
           style="fill:#231f20" /></g></g></g><g
     id="Layer_1_1_"
     display="none"
     style="display:none"
     transform="translate(0,312)"><g
       display="inline"
       id="g2843"
       style="display:inline"><g
         id="g2761"><path
           d="m 136.529,14.191 c 1.027,1.417 3.597,16.521 2.569,21.24 -2.569,10.856 -13.43,9.234 -25.097,12.568 -18.271,5.22 -38.668,16.646 -51,30.333 -11.818,12.743 -20.667,33 -24.1,47.721 -1.342,5.756 -9.763,8.967 -14.901,11.8"
           id="path2753"
           inkscape:connector-curvature="0"
           style="fill:#00a551" /><g
           id="g2759"><path
             d="m 136.529,14.191 c 1.027,1.417 3.597,16.521 2.569,21.24 -2.569,10.856 -13.43,9.234 -25.097,12.568 -18.271,5.22 -38.668,16.646 -51,30.333 -11.818,12.743 -20.667,33 -24.1,47.721 -1.342,5.756 -9.763,8.967 -14.901,11.8"
             id="path2755"
             inkscape:connector-curvature="0"
             style="fill:none" /><path
             d="m 135.563,14.45 c 2.209,4.043 2.266,10.251 2.652,14.724 0.268,3.1 0.24,5.953 -0.881,8.892 -2.066,5.413 -8.313,6.556 -13.337,7.491 -15.612,2.906 -30.067,8.898 -43.44,17.478 -14.021,8.996 -24.583,21.067 -32.292,35.765 -3.729,7.11 -6.68,14.642 -8.976,22.329 -1.098,3.677 -1.44,6.876 -4.279,9.713 -3.14,3.137 -7.714,4.816 -11.567,6.883 -1.128,0.605 0.662,0.499 1.113,0.256 5.133,-2.753 11.155,-4.997 14.482,-10.055 1.944,-2.956 2.317,-7.795 3.414,-11.162 1.404,-4.309 3.122,-8.51 4.973,-12.644 8.126,-18.147 20.562,-32.316 37.433,-42.812 9.065,-5.64 18.988,-10.002 29.223,-13.011 6.348,-1.866 13.879,-1.671 19.763,-4.971 4.809,-2.696 6.557,-7.118 6.433,-12.458 -0.116,-5.004 -0.318,-12.428 -2.782,-16.937 -0.263,-0.479 -2.09,0.23 -1.932,0.519 z"
             id="path2757"
             inkscape:connector-curvature="0"
             style="fill:#231f20" /></g></g><g
         id="g2771"><path
           d="m 78.466,113.31 c -5.652,10.383 -15.415,17.936 -27.233,22.183 -6.68,2.36 -18.565,8.318 -27.899,3.173"
           id="path2763"
           inkscape:connector-curvature="0"
           style="fill:#00a551" /><g
           id="g2769"><path
             d="m 78.466,113.31 c -5.652,10.383 -15.415,17.936 -27.233,22.183 -6.68,2.36 -18.565,8.318 -27.899,3.173"
             id="path2765"
             inkscape:connector-curvature="0"
             style="fill:none" /><path
             d="m 77.554,113.242 c -5.161,9.099 -12.971,15.629 -22.396,20.016 -9.098,4.234 -21.382,9.608 -31.069,4.894 -0.662,-0.322 -2.402,0.597 -1.512,1.03 10.16,4.945 20.809,-0.115 30.528,-3.748 11.005,-4.113 20.47,-11.824 26.272,-22.055 0.502,-0.884 -1.456,-0.785 -1.823,-0.137 z"
             id="path2767"
             inkscape:connector-curvature="0"
             style="fill:#231f20" /></g></g><g
         id="g2781"><path
           d="m 150.218,9.212 c -2.344,4.965 1.192,17.798 2.113,23.361 1.719,10.379 10.672,5.771 19.002,6.142 9.993,0.444 21.226,8.074 27.765,14.712 8.008,8.131 15.82,17.116 21.994,26.662 6.699,10.356 10.24,21.509 15.493,32.437 4.279,8.896 17.535,23.594 28.915,23.724"
           id="path2773"
           inkscape:connector-curvature="0"
           style="fill:#00a551" /><g
           id="g2779"><path
             d="m 150.218,9.212 c -2.344,4.965 1.192,17.798 2.113,23.361 1.719,10.379 10.672,5.771 19.002,6.142 9.993,0.444 21.226,8.074 27.765,14.712 8.008,8.131 15.82,17.116 21.994,26.662 6.699,10.356 10.24,21.509 15.493,32.437 4.279,8.896 17.535,23.594 28.915,23.724"
             id="path2775"
             inkscape:connector-curvature="0"
             style="fill:none" /><path
             d="m 149.264,9.374 c -2.145,5.57 -0.086,12.574 1.053,18.16 0.933,4.567 1.139,11.318 6.973,12.115 2.574,0.352 5.113,0.07 7.686,-0.204 5.014,-0.534 9.53,-0.088 14.301,1.611 9.007,3.208 16.233,9.829 22.688,16.624 7.504,7.9 14.488,16.431 20.084,25.798 5.214,8.726 8.573,18.456 12.798,27.667 5.166,11.264 16.782,24.819 30.036,25.523 0.44,0.023 2.226,-0.783 1.24,-0.835 -15.322,-0.814 -26.09,-17.657 -31.556,-30.141 -3.854,-8.808 -7.364,-17.694 -12.508,-25.861 -4.869,-7.735 -10.86,-14.782 -17.033,-21.494 -9.938,-10.806 -22.486,-21.213 -38.053,-19.846 -3.527,0.31 -7.399,1.25 -10.67,-0.563 -2.845,-1.577 -3.003,-5.759 -3.566,-8.556 -1.24,-6.153 -3.922,-14.187 -1.562,-20.321 0.153,-0.404 -1.713,-0.194 -1.911,0.323 z"
             id="path2777"
             inkscape:connector-curvature="0"
             style="fill:#231f20" /></g></g><g
         id="g2791"><path
           d="M 137.331,14.001 C 142.469,12.114 145.264,10.888 150.402,9"
           id="path2783"
           inkscape:connector-curvature="0"
           style="fill:#00a551" /><g
           id="g2789"><path
             d="M 137.331,14.001 C 142.469,12.114 145.264,10.888 150.402,9"
             id="path2785"
             inkscape:connector-curvature="0"
             style="fill:none" /><path
             d="m 137.748,14.529 c 4.376,-1.618 8.695,-3.383 13.072,-5.001 1.248,-0.462 0.135,-1.414 -0.834,-1.056 -4.377,1.618 -8.695,3.383 -13.071,5.001 -1.25,0.462 -0.135,1.414 0.833,1.056 z"
             id="path2787"
             inkscape:connector-curvature="0"
             style="fill:#231f20" /></g></g><g
         id="g2801"><path
           d="m 204.868,117.558 c 10.79,16.047 42.298,26.19 60.796,19.11"
           id="path2793"
           inkscape:connector-curvature="0"
           style="fill:#00a551" /><g
           id="g2799"><path
             d="m 204.868,117.558 c 10.79,16.047 42.298,26.19 60.796,19.11"
             id="path2795"
             inkscape:connector-curvature="0"
             style="fill:none" /><path
             d="m 203.986,117.994 c 12.307,17.558 41.748,26.637 61.865,19.375 1.15,-0.416 0.803,-1.829 -0.377,-1.403 -19.402,7.004 -47.861,-1.917 -59.726,-18.844 -0.531,-0.761 -2.361,0.015 -1.762,0.872 z"
             id="path2797"
             inkscape:connector-curvature="0"
             style="fill:#231f20" /></g></g><g
         id="g2811"><path
           d="m 214.117,165.229 c 2.55,-17.229 -2.783,-34.562 -9.249,-47.67"
           id="path2803"
           inkscape:connector-curvature="0"
           style="fill:#00a551" /><g
           id="g2809"><path
             d="m 214.117,165.229 c 2.55,-17.229 -2.783,-34.562 -9.249,-47.67"
             id="path2805"
             inkscape:connector-curvature="0"
             style="fill:none" /><path
             d="m 215.096,165.15 c 2.188,-16.6 -2.043,-32.952 -9.262,-47.853 -0.4,-0.826 -2.307,-0.255 -1.932,0.518 7.166,14.792 11.412,30.995 9.236,47.491 -0.124,0.967 1.844,0.694 1.958,-0.156 z"
             id="path2807"
             inkscape:connector-curvature="0"
             style="fill:#231f20" /></g></g><g
         id="g2821"><path
           d="m 214.117,165.229 c -21.066,-9.44 -21.262,-36.231 -40.124,-53.504"
           id="path2813"
           inkscape:connector-curvature="0"
           style="fill:#00a551" /><g
           id="g2819"><path
             d="m 214.117,165.229 c -21.066,-9.44 -21.262,-36.231 -40.124,-53.504"
             id="path2815"
             inkscape:connector-curvature="0"
             style="fill:none" /><path
             d="m 214.898,164.811 c -10.597,-5.01 -16.237,-14.717 -21.285,-24.818 -5.166,-10.345 -10.184,-20.574 -18.717,-28.621 -0.426,-0.402 -2.219,0.317 -1.809,0.704 9.118,8.598 14.198,19.75 19.758,30.75 4.791,9.479 10.609,18.151 20.488,22.821 0.479,0.226 2.263,-0.508 1.565,-0.836 z"
             id="path2817"
             inkscape:connector-curvature="0"
             style="fill:#231f20" /></g></g><g
         id="g2831"><path
           d="m 173.993,111.723 c 3.341,8.609 2.62,15.172 2.841,21.777 0.333,10.001 -4.445,11.559 -6.5,18.165 -3.084,10.385 -8,12 -7.646,23.306 -15.021,-13.306 -29.143,-35.61 -37.021,-60.639"
           id="path2823"
           inkscape:connector-curvature="0"
           style="fill:#00a551" /><g
           id="g2829"><path
             d="m 173.993,111.723 c 3.341,8.609 2.62,15.172 2.841,21.777 0.333,10.001 -4.445,11.559 -6.5,18.165 -3.084,10.385 -8,12 -7.646,23.306 -15.021,-13.306 -29.143,-35.61 -37.021,-60.639"
             id="path2825"
             inkscape:connector-curvature="0"
             style="fill:none" /><path
             d="m 173.027,111.982 c 3.899,10.794 4.992,24.832 -1.276,34.788 -2.673,4.246 -3.748,9.262 -6.119,13.691 -2.563,4.791 -3.954,9.102 -3.911,14.624 0.621,-0.167 1.242,-0.333 1.863,-0.499 -17.754,-15.988 -29.71,-37.97 -36.951,-60.513 -0.229,-0.711 -2.152,-0.168 -1.932,0.518 7.262,22.609 19.286,44.729 37.092,60.765 0.381,0.345 1.868,0.176 1.863,-0.498 -0.045,-5.855 1.607,-10.269 4.335,-15.361 2.516,-4.701 3.754,-9.801 6.622,-14.331 2.941,-4.647 3.201,-9.22 3.137,-14.612 -0.077,-6.616 -0.518,-12.797 -2.791,-19.087 -0.257,-0.713 -2.173,-0.152 -1.932,0.515 z"
             id="path2827"
             inkscape:connector-curvature="0"
             style="fill:#231f20" /></g></g><g
         id="g2841"><path
           d="m 80.668,110.666 c -2.667,2 -4,7 -5.667,10 -2.667,5.333 -5,10.667 -7.667,16 -3,5.333 -4,11.667 -7.667,16.667 -3.333,5 -8.333,9 -11.333,14.333 7.333,-2.333 15,-1.667 22.333,-3.667 8.333,-2.333 15.333,-5 22.667,-9.666 11.333,-7 35.667,-24.333 31.333,-40.333"
           id="path2833"
           inkscape:connector-curvature="0"
           style="fill:#00a551" /><g
           id="g2839"><path
             d="m 80.668,110.666 c -2.667,2 -4,7 -5.667,10 -2.667,5.333 -5,10.667 -7.667,16 -3,5.333 -4,11.667 -7.667,16.667 -3.333,5 -8.333,9 -11.333,14.333 7.333,-2.333 15,-1.667 22.333,-3.667 8.333,-2.333 15.333,-5 22.667,-9.666 11.333,-7 35.667,-24.333 31.333,-40.333"
             id="path2835"
             inkscape:connector-curvature="0"
             style="fill:none" /><path
             d="m 79.892,110.502 c -2.961,2.711 -4.012,6.658 -5.792,10.14 -2.945,5.761 -5.441,11.742 -8.438,17.478 -2.603,4.981 -3.718,10.463 -6.895,15.188 -3.417,5.086 -8.137,9.074 -11.333,14.334 -0.375,0.617 0.713,0.605 1.032,0.516 5.549,-1.596 11.257,-1.842 16.95,-2.588 4.662,-0.61 9.164,-2.127 13.586,-3.672 8.318,-2.905 15.814,-7.539 22.96,-12.618 10.6,-7.533 27.133,-20.557 23.671,-35.539 -0.157,-0.682 -2.094,-0.184 -1.932,0.518 3.45,14.933 -13.395,27.649 -23.926,35.134 -6.713,4.771 -13.8,8.834 -21.542,11.696 -9.825,3.632 -20.104,3.234 -30.032,6.086 0.344,0.173 0.688,0.345 1.032,0.517 2.617,-4.307 6.158,-7.844 9.372,-11.691 3.337,-3.995 5.194,-8.532 6.99,-13.349 2.347,-6.294 5.685,-12.333 8.568,-18.404 2.034,-4.281 3.764,-10.198 7.278,-13.416 0.835,-0.764 -1.078,-0.761 -1.549,-0.33 z"
             id="path2837"
             inkscape:connector-curvature="0"
             style="fill:#231f20" /></g></g></g></g><ellipse
     stroke-miterlimit="10"
     cx="231.63457"
     cy="452.85391"
     rx="31.278"
     ry="36.259998"
     id="ellipse2846"
     style="fill:#ffffff;stroke:#000000;stroke-width:2;stroke-miterlimit:10" /><ellipse
     stroke-miterlimit="10"
     cx="320.63556"
     cy="452.85391"
     rx="31.277"
     ry="36.259998"
     id="ellipse2848"
     style="fill:#ffffff;stroke:#000000;stroke-width:2;stroke-miterlimit:10" /><g
     id="Layer_4"
     transform="translate(130.41257,287.61391)"><g
       id="g2856"><path
         d="m 132.667,14.333 c 5.333,-2.333 11,-5 16.333,-8 1.333,8.333 0,16.333 2,24.333 2.333,10.334 8,7.334 16.667,7.667 23,0.667 45.333,18.333 55.666,38 7,12.667 8.334,27.667 17,39.667 7.667,11 18.667,17.667 31.334,21.333 -23.334,4.333 -51.667,-2.667 -66.334,-23 8,15 13.334,34.333 9.667,51.333 -1.667,-4 -8.667,-8.333 -11.667,-12 -3.666,-4.333 -8,-8.667 -11,-13.667 -6,-8.667 -14,-18.667 -18,-28.333 4.334,12.333 5,21 -0.333,33.333 -2.667,6 -6.333,11.667 -8,18 -1.333,5.666 0,11 -0.333,16.666 -10,-4 -19,-21.666 -23.667,-30.666 -6,-12 -13.667,-24.333 -18,-37 2.333,8.667 4.333,13 -3.333,20 -7.333,6.333 -16.333,11.667 -24.667,16.667 -14.667,9.334 -31,15.334 -48,17 7.667,-3.666 13.333,-15 17,-22.333 4.333,-9 10.333,-19.333 11,-29.667 -6.667,11 -11,19 -23.667,23.333 -8.333,2.667 -21,6.333 -29.667,4 20,-2 21,-29.333 27,-43.333 8.333,-19.333 19.667,-33.333 36.667,-45 9,-6.667 17,-9.667 28,-11.667 8,-1.333 17,-2 24.667,-4.667 0.333,-6 -1,-18.667 -5.667,-22.333"
         id="path2850"
         inkscape:connector-curvature="0"
         style="fill:#009345" /><g
         id="g2854"><path
           d="m 133.046,14.722 c 5.63,-2.484 11.165,-5.131 16.552,-8.11 -0.521,-0.007 -1.041,-0.014 -1.562,-0.021 1.263,9.204 -0.489,19.246 3.203,27.994 1.835,4.349 6.298,4.545 10.376,4.392 18.809,-0.708 35.288,7.557 48.372,20.753 6.502,6.557 11.599,14.398 15.258,22.853 3.744,8.652 5.812,17.909 9.846,26.457 7,14.837 20.635,24.204 35.985,28.812 0.241,-0.349 0.483,-0.697 0.727,-1.046 -23.854,4.195 -50.672,-2.799 -65.569,-22.849 -0.346,-0.463 -2.148,0.091 -1.863,0.635 8.152,15.587 13.156,33.618 9.668,51.197 0.645,-0.127 1.287,-0.255 1.931,-0.382 -1.819,-3.556 -5.133,-6.013 -8.102,-8.572 -4.339,-3.741 -8.062,-8.409 -11.628,-12.873 -3.856,-4.828 -7.215,-10.216 -10.781,-15.271 -3.862,-5.474 -7.486,-11.122 -10.156,-17.283 -0.279,-0.644 -2.148,-0.12 -1.932,0.518 3.938,11.524 4.39,21.821 -0.332,33.198 -2.303,5.548 -5.51,10.594 -7.498,16.289 -2.055,5.884 -0.657,12.312 -0.835,18.377 0.577,-0.195 1.155,-0.392 1.733,-0.586 -10.644,-4.734 -16.887,-17.894 -21.997,-27.626 -6.843,-13.032 -14.551,-25.92 -19.474,-39.836 -0.232,-0.657 -2.112,-0.143 -1.932,0.518 1.417,5.183 3.342,10.33 0.516,15.376 -3.498,6.247 -11.863,10.635 -17.677,14.359 -13.024,8.344 -26.267,15.94 -41.26,20.123 -3.744,1.044 -7.564,1.786 -11.4,2.394 -1.263,0.199 -2.638,0.385 -3.534,0.86 0.761,-0.404 1.569,-1.049 2.257,-1.56 4.521,-3.348 7.622,-8.672 10.33,-13.47 6.272,-11.113 13.509,-23.932 14.7,-36.8 0.074,-0.805 -1.616,-0.303 -1.864,0.107 -4.627,7.652 -9.06,15.392 -16.907,20.167 -4.777,2.907 -10.6,4.226 -15.974,5.574 -6.152,1.543 -12.702,2.529 -18.961,1.088 -0.243,0.349 -0.485,0.697 -0.728,1.046 10.061,-1.277 15.901,-8.357 19.642,-17.299 2.316,-5.536 3.722,-11.435 5.324,-17.203 1.883,-6.779 4.542,-13.034 7.859,-19.254 7.649,-14.341 18.69,-25.491 31.749,-34.951 8.234,-5.965 17.142,-9.411 27.093,-11.293 8.356,-1.58 16.793,-2.056 24.928,-4.718 0.234,-0.077 0.825,-0.266 0.838,-0.599 0.282,-7.042 -0.112,-17.494 -5.734,-22.586 -0.5,-0.453 -2.31,0.285 -1.795,0.752 4.9,4.438 5.421,13.113 5.634,19.282 0.105,3.056 -1.313,2.904 -3.939,3.582 -3.192,0.823 -6.476,1.297 -9.733,1.783 -4.481,0.669 -8.965,1.226 -13.406,2.135 C 94.295,44.576 79.897,55.01 68.309,67.18 57.954,78.056 50.014,91.808 45.86,106.235 c -3.703,12.86 -6.855,32.181 -23.059,34.238 -0.42,0.053 -1.752,0.81 -0.728,1.046 10.772,2.479 23.425,-1.148 33.42,-5.194 10.341,-4.187 15.895,-13.53 21.405,-22.642 -0.621,0.036 -1.243,0.071 -1.864,0.107 -1.02,11.023 -6.6,20.871 -11.47,30.6 -3.853,7.697 -8.244,16.79 -16.162,20.997 -0.78,0.414 -0.134,0.87 0.463,0.807 19.663,-2.096 36.455,-9.836 53.193,-19.93 7.548,-4.551 17.084,-9.517 22.717,-16.492 4.709,-5.833 3.021,-11.334 1.19,-18.031 -0.644,0.172 -1.288,0.345 -1.932,0.518 5.175,14.632 13.331,28.259 20.583,41.938 4.975,9.385 11.084,21.396 21.28,25.933 0.389,0.173 1.717,0.021 1.734,-0.586 0.184,-6.187 -0.938,-12.331 0.835,-18.378 1.854,-6.327 5.699,-11.954 8.22,-18.026 4.438,-10.689 3.27,-21.034 -0.388,-31.731 -0.644,0.172 -1.288,0.345 -1.932,0.518 4.493,10.373 11.642,19.244 18.067,28.45 3.594,5.148 7.598,9.821 11.76,14.523 3.408,3.852 8.431,6.317 10.84,11.025 0.303,0.592 1.81,0.231 1.931,-0.382 3.507,-17.667 -1.468,-35.794 -9.666,-51.469 -0.621,0.211 -1.241,0.423 -1.862,0.635 15.213,20.474 42.793,27.424 67.098,23.151 0.431,-0.076 1.736,-0.743 0.727,-1.046 -17.906,-5.375 -30.994,-16.916 -37.863,-34.392 -3.248,-8.264 -5.36,-16.886 -9.313,-24.876 -3.397,-6.867 -8.028,-13.037 -13.301,-18.566 -10.657,-11.177 -25.065,-19.315 -40.526,-20.983 -5.079,-0.548 -13.336,1.836 -17.128,-2.367 -2.75,-3.048 -2.931,-8.809 -3.235,-12.616 -0.453,-5.656 -0.151,-11.298 -0.926,-16.939 -0.08,-0.583 -1.312,-0.159 -1.562,-0.021 -5.243,2.899 -10.636,5.473 -16.115,7.89 -1.238,0.544 -0.104,1.158 0.755,0.778 z"
           id="path2852"
           inkscape:connector-curvature="0"
           style="fill:#006838" /></g></g></g><g
     id="Layer_3"
     display="none"
     style="display:none"
     transform="translate(0,312)" /><circle
     stroke-miterlimit="10"
     cx="216.58456"
     cy="472.25693"
     r="9.4770002"
     id="circle2860"
     style="stroke:#000000;stroke-width:2;stroke-miterlimit:10" /><circle
     stroke-miterlimit="10"
     cx="306.62555"
     cy="472.38992"
     r="9.4770002"
     id="circle2862"
     style="stroke:#000000;stroke-width:2;stroke-miterlimit:10" /><path
     style="display:inline;fill:#669966;fill-opacity:1;fill-rule:evenodd;stroke:#000000;stroke-width:1px;stroke-linecap:butt;stroke-linejoin:miter;stroke-opacity:1"
     d="m 235.71976,299.26733 131.46067,1.12359 15.56999,-106.85282 23.92348,-43.22857 -46.80484,16.10993 -64.40677,55.9322 -59.74253,76.91566"
     id="path2248"
     inkscape:connector-curvature="0" /><path
     style="display:inline;fill:#ffffff;fill-opacity:1;fill-rule:evenodd;stroke:#000000;stroke-width:1px;stroke-linecap:butt;stroke-linejoin:miter;stroke-opacity:1"
     d="m 194.60998,364.32791 c 3.33305,-0.72935 6.78108,-0.45081 10.17434,-0.45081 0.1454,0 4.77398,-0.10359 5.08474,0 0.379,0.12633 0.49014,0.66879 0.84746,0.84745 0.58537,0.29269 3.93982,-0.29747 4.23729,0 0.19975,0.19975 -0.19975,0.64771 0,0.84746 0.3995,0.3995 1.18959,-0.25266 1.69492,0 0.35732,0.17866 0.49013,0.6688 0.84745,0.84746 0.50533,0.25266 1.29542,-0.3995 1.69492,0 0.19975,0.19975 -0.19975,0.64771 0,0.84746 0.19975,0.19974 0.59479,-0.12633 0.84746,0 0.35732,0.17866 0.49013,0.66879 0.84745,0.84745 0.50533,0.25267 1.29542,-0.39949 1.69492,0 0.19975,0.19975 -0.19975,0.64771 0,0.84746 0.39949,0.3995 1.29542,-0.39949 1.69491,0 0.19975,0.19975 -0.19974,0.64771 0,0.84746 0.3995,0.3995 1.29542,-0.3995 1.69492,0 0.19975,0.19975 -0.19975,0.64771 0,0.84746 0.42373,0.42373 2.11864,-0.42373 2.54237,0 0.19975,0.19975 -0.19975,0.64771 0,0.84746 0.42373,0.42372 2.11865,-0.42373 2.54238,0 0.19974,0.19974 -0.19975,0.64771 0,0.84745 0.26241,0.26242 3.97487,-0.26241 4.23728,0 0.19975,0.19975 -0.19974,0.64771 0,0.84746 0.0273,0.0273 2.33685,0 2.54238,0 0.38166,0 2.28446,-0.12895 2.54237,0 0.35732,0.17866 0.49014,0.6688 0.84746,0.84746 0.53463,0.26732 3.70265,-0.26732 4.23729,0 0.35731,0.17866 0.49013,0.6688 0.84745,0.84746 0.30647,0.15323 3.64785,0 4.23729,0 0.28249,0 0.64771,-0.19975 0.84746,0 0.19975,0.19974 -0.19975,0.64771 0,0.84745 0.29747,0.29748 3.65192,-0.29268 4.23729,0 0.35732,0.17866 0.49013,0.6688 0.84745,0.84746 0.33601,0.16801 2.36913,-0.17325 2.54238,0 0.19974,0.19975 -0.19975,0.64771 0,0.84746 0.20392,0.20392 3.1859,-0.20393 3.38983,0 0.19975,0.19975 -0.19975,0.64771 0,0.84746 0.39949,0.39949 1.18959,-0.25267 1.69491,0 0.35732,0.17866 0.49014,0.66879 0.84746,0.84745 0.55053,0.27527 3.69973,-0.26877 4.23729,0 0.35732,0.17866 0.49014,0.6688 0.84746,0.84746 0.21911,0.10956 4.48406,0 5.08474,0 0.28249,0 0.56497,0 0.84746,0 0.28249,0 0.64771,-0.19975 0.84746,0 0.19974,0.19975 -0.19975,0.64771 0,0.84746 0.0384,0.0384 3.83771,0 4.23729,0 1.41242,0 2.82485,0 4.23728,0 0.28249,0 0.56498,0 0.84746,0 0.28249,0 0.5948,-0.12633 0.84746,0 0.35732,0.17866 0.49014,0.6688 0.84746,0.84746 0.25266,0.12633 0.56497,0 0.84745,0 0.28249,0 0.56498,0 0.84746,0 1.41243,0 2.82486,0 4.23729,0 0.84746,0 1.7384,-0.26799 2.54237,0 0.379,0.12633 0.46847,0.72112 0.84746,0.84745 1.0525,0.35084 3.12304,-0.27856 4.23729,0 0.6128,0.1532 1.09567,0.64771 1.69491,0.84746 0.54909,0.18303 3.54348,0 4.23729,0 1.69492,0 3.38983,0 5.08475,0 0.56497,0 1.14681,-0.13702 1.69491,0 0.6128,0.1532 1.09568,0.64771 1.69492,0.84746 0.54805,0.18268 3.31195,0 4.23729,0 0.28248,0 0.64771,-0.19975 0.84745,0 0.19975,0.19975 -0.19974,0.64771 0,0.84746 0.42373,0.42373 2.11865,-0.42373 2.54238,0 0.19974,0.19974 -0.19975,0.64771 0,0.84745 0.42373,0.42373 2.11864,-0.42372 2.54237,0 0.19975,0.19975 -0.25266,0.72113 0,0.84746 0.53265,0.26633 2.85718,-0.26632 3.38983,0 0.35732,0.17866 0.49014,0.6688 0.84746,0.84746 0.67796,0.33898 1.8644,-0.33898 2.54237,0 0.35732,0.17866 0.49014,0.6688 0.84746,0.84746 0.45973,0.22987 3.15795,-0.23189 3.38983,0 0.19975,0.19975 -0.19975,0.64771 0,0.84746 0.19975,0.19974 0.56497,0 0.84746,0 0.28248,0 0.56497,0 0.84745,0 2.82486,0 5.64972,0 8.47458,0 0.28249,0 0.56497,0 0.84746,0 0.28248,0 0.64771,-0.19975 0.84746,0 0.19974,0.19974 -0.19975,0.64771 0,0.84745 0.19974,0.19975 0.56497,0 0.84745,0 0.28249,0 0.56497,0 0.84746,0 2.54237,0 5.08475,0 7.62712,0 1.9774,0 3.9548,0 5.9322,0 0.28249,0 0.64771,0.19975 0.84746,0 0.19975,-0.19974 -0.19975,-0.64771 0,-0.84745 0.19975,-0.19975 0.64771,0.19974 0.84746,0 0.0384,-0.0384 0,-3.83772 0,-4.23729 0,-0.28249 0,-0.56497 0,-0.84746 0,-0.28249 -0.19975,-0.64771 0,-0.84746 0.19975,-0.19975 0.64771,0.19975 0.84746,0 0.19974,-0.19975 0,-0.56497 0,-0.84746 0,-0.28248 0,-0.56497 0,-0.84745 0,-3.38983 0,-6.77966 0,-10.16949 0,-1.69492 0,-3.38984 0,-5.08475 0,-0.28249 -0.19975,-0.64771 0,-0.84746 0.19974,-0.19975 0.64771,0.19975 0.84745,0 0.19975,-0.19975 0,-0.56497 0,-0.84746 0,-1.41243 0,-2.82485 0,-4.23728 0,-9.60452 0,-19.20904 0,-28.81356 0,-1.69492 0,-3.38983 0,-5.08475 0,-0.28249 -0.19974,-0.64771 0,-0.84746 0.19975,-0.19974 0.64771,0.19975 0.84746,0 0.19975,-0.19974 0,-0.56497 0,-0.84745 0,-0.28249 0,-0.56498 0,-0.84746 0,-1.9774 0,-3.9548 0,-5.93221 0,-0.28248 -0.19975,-0.64771 0,-0.84745 0.19975,-0.19975 0.64771,0.19974 0.84746,0 0.0384,-0.0384 0,-3.83772 0,-4.23729 0,-3.38983 0,-6.77966 0,-10.16949 0,-0.20386 0.11153,-2.49942 0,-2.54238 -0.62586,-0.24102 -1.34045,0.0488 -2.01067,0.0731 l -131.46067,-1.12354 c 1.86435,4.04944 -2.84465,3.34344 -3.8168,5.28773 -0.58447,1.16895 1.02632,0.75803 -0.84745,1.69492 -0.25267,0.12633 -0.64771,-0.19975 -0.84746,0 -0.19975,0.19975 0.12633,0.59479 0,0.84746 -0.17866,0.35731 -0.6688,0.49013 -0.84746,0.84745 -0.12633,0.25267 0.19975,0.64771 0,0.84746 -1.75342,1.75342 0.0685,-2.67946 -1.69492,0.84746 -0.25266,0.50532 0.3995,1.29542 0,1.69491 -0.19974,0.19975 -0.64771,-0.19974 -0.84745,0 -0.19975,0.19975 0.19974,0.64771 0,0.84746 -0.19975,0.19975 -0.64771,-0.19975 -0.84746,0 -0.19975,0.19975 0,0.56497 0,0.84746 -0.28249,0 -0.64771,-0.19975 -0.84746,0 -0.19975,0.19975 0.19975,0.64771 0,0.84746 -0.19975,0.19974 -0.64771,-0.19975 -0.84746,0 -1.69911,1.69911 1.69912,-0.004 0,1.69491 -0.19974,0.19975 -0.64771,-0.19975 -0.84745,0 -1.41593,1.41593 1.41593,0.27899 0,1.69492 -0.19975,0.19974 -0.56497,0 -0.84746,0 0,0.28248 0.19975,0.64771 0,0.84745 -0.19975,0.19975 -0.64771,-0.19974 -0.84746,0 -0.39949,0.3995 0.3995,1.29542 0,1.69492 -0.19975,0.19975 -0.64771,-0.19975 -0.84746,0 -0.39949,0.3995 0.3995,1.29542 0,1.69492 -0.19974,0.19974 -0.64771,-0.19975 -0.84745,0 -0.3995,0.39949 0.39949,1.29541 0,1.69491 -0.19975,0.19975 -0.64771,-0.19975 -0.84746,0 -0.3995,0.3995 0.39949,1.29542 0,1.69492 -0.19975,0.19974 -0.64771,-0.19975 -0.84746,0 -0.19975,0.19974 0.19975,0.64771 0,0.84745 -0.19975,0.19975 -0.56497,0 -0.84746,0 0,0.28249 0.19975,0.64771 0,0.84746 -0.19974,0.19975 -0.64771,-0.19975 -0.84745,0 -0.3995,0.3995 0.39949,1.29542 0,1.69492 -0.19975,0.19974 -0.64771,-0.19975 -0.84746,0 -0.19975,0.19974 0.12633,0.59479 0,0.84745 -0.17866,0.35732 -0.6688,0.49014 -0.84746,0.84746 -0.12633,0.25266 0.12633,0.5948 0,0.84746 -0.17866,0.35732 -0.6688,0.49014 -0.84746,0.84746 -0.25266,0.50532 0.3995,1.29542 0,1.69491 -0.19974,0.19975 -0.64771,-0.19975 -0.84745,0 -0.19975,0.19975 0.19974,0.64771 0,0.84746 -0.19975,0.19975 -0.64771,-0.19975 -0.84746,0 -0.3995,0.39949 0.39949,1.29542 0,1.69491 -0.19975,0.19975 -0.64771,-0.19974 -0.84746,0 -0.3995,0.3995 0.3995,1.29542 0,1.69492 -0.19975,0.19975 -0.64771,-0.19975 -0.84746,0 -0.39949,0.3995 0.3995,1.29542 0,1.69492 -0.19975,0.19974 -0.64771,-0.19975 -0.84746,0 -0.19974,0.19974 0.19975,0.64771 0,0.84745 -0.19974,0.19975 -0.64771,-0.19974 -0.84745,0 -1.69912,1.69912 1.69911,-0.004 0,1.69492 -0.19975,0.19975 -0.64771,-0.19975 -0.84746,0 0,2.25989 0.28249,-0.28249 -0.84746,0.84746 -0.19975,0.19974 0.19975,0.64771 0,0.84745 -0.19975,0.19975 -0.64771,-0.19974 -0.84746,0 -0.19974,0.19975 0.12634,0.5948 0,0.84746 -0.17866,0.35732 -0.66879,0.49014 -0.84745,0.84746 -0.12633,0.25266 0.19974,0.64771 0,0.84746 -0.19975,0.19974 -0.64771,-0.19975 -0.84746,0 -0.19975,0.19974 0.19975,0.64771 0,0.84745 -0.19975,0.19975 -0.56497,0 -0.84746,0 0,0.28249 0.12633,0.5948 0,0.84746 -1.76346,3.52692 0.0585,-0.90596 -1.69491,0.84746 -0.19975,0.19975 0.19974,0.64771 0,0.84746 -0.19975,0.19974 -0.64771,-0.19975 -0.84746,0 -0.3995,0.39949 0.39949,1.29542 0,1.69491 -0.19975,0.19975 -0.64771,-0.19975 -0.84746,0 -0.19975,0.19975 0.19975,0.64771 0,0.84746 -0.19975,0.19975 -0.64771,-0.19975 -0.84746,0 -0.19974,0.19975 0.19975,0.64771 0,0.84746 -0.19974,0.19974 -0.64771,-0.19975 -0.84745,0 -0.3995,0.39949 0.39949,1.29542 0,1.69491 -0.19975,0.19975 -0.64771,-0.19975 -0.84746,0 -0.19975,0.19975 0.19975,0.64771 0,0.84746 -0.19975,0.19975 -0.64771,-0.19975 -0.84746,0 -0.84956,0.84956 0.84956,0.84536 0,1.69492 -0.19975,0.19974 -0.64771,-0.19975 -0.84746,0 0,2.25988 0.28249,-0.28249 -0.84745,0.84745 -0.3995,0.3995 0.39949,1.29542 0,1.69492 -0.19975,0.19975 -0.64771,-0.19975 -0.84746,0 -0.19975,0.19975 0.28248,0.84746 0,0.84746 -0.28249,0 3.5e-4,-1.12995 0,-0.84746 -0.002,1.5627 -0.003,3.1254 -0.005,4.6881"
     id="path2268"
     inkscape:connector-curvature="0" /><path
     style="display:inline;opacity:1;fill:none;fill-rule:evenodd;stroke:#0c320a;stroke-width:13;stroke-linecap:round;stroke-linejoin:round;stroke-miterlimit:4;stroke-dasharray:none;stroke-opacity:1;filter:url(#filter1414)"
     d="m 116.23874,378.95454 c 0,0 61.14172,-19.28671 85.67461,-14.06484 205.27138,43.69244 302.77104,22.46811 302.77104,22.46811"
     id="path1431"
     inkscape:connector-curvature="0"
     sodipodi:nodetypes="csc" /><path
     style="display:inline;opacity:1;fill:none;fill-rule:evenodd;stroke:#0c320a;stroke-width:13;stroke-linecap:round;stroke-linejoin:round;stroke-miterlimit:4;stroke-dasharray:none;stroke-opacity:1;filter:url(#filter1414)"
     d="m 194.60998,364.32791 c 0,0 112.18231,-208.20443 212.06392,-214.01838 -46.1819,56.6275 -39.23109,233.92667 -39.23109,233.92667"
     id="path1433"
     inkscape:connector-curvature="0"
     sodipodi:nodetypes="ccc" /></svg>