<?xml version="1.0" encoding="utf-8"?>
<!-- Generator: Adobe Illustrator 16.0.4, SVG Export Plug-In . SVG Version: 6.00 Build 0)  -->
<!DOCTYPE svg PUBLIC "-//W3C//DTD SVG 1.1//EN" "http://www.w3.org/Graphics/SVG/1.1/DTD/svg11.dtd">
<svg version="1.1" id="Layer_1" xmlns="http://www.w3.org/2000/svg" xmlns:xlink="http://www.w3.org/1999/xlink" x="0px" y="0px"
	 width="288px" height="288px" viewBox="0 0 288 288" enable-background="new 0 0 288 288" xml:space="preserve">
<g id="Layer_2">
	<g>
		<path fill="#995432" d="M47.896,181.333c18.729,41,43.7,48.667,75.243,66.001c10.515,6,19.058,12.666,25.63,23.332
			c-1.369-2.223,9.248-10.816,10.813-11.877c4.378-2.963,13.755-10.125,18.749-11.789c14-4.666,20.253-9.243,29-17.666
			c5.938-5.718,6.947-7.107,12.669-13.035c11.793-12.222,24.297-32.061,26.163-49.254c0.838-7.712-1.294-15.354-2.537-22.9
			c-1.025-6.228-1.869-12.03-5.167-17.552c-3.303-5.53-7.308-10.723-12.147-15.016c-10.026-8.892-20.896-16.917-34.156-19.927
			c-19.889-4.515-41.186-5.905-61.46-7.39c-16.078-1.177-31.06,0.696-45.671,7.741c-5.399,2.603-10.332,6.417-15.1,9.984
			c-6.053,4.528-13.477,9.818-17.429,16.355c-2.114,3.499-3.581,7.189-5.852,10.66C36.604,144.345,40.675,165.523,47.896,181.333z"
			/>
		<g>
			<path fill="#231F20" d="M46.931,181.592c9.558,20.618,23.39,36.741,42.828,48.553c20.312,12.34,44.704,19.754,58.046,40.78
				c0.286,0.452,2.096-0.012,1.932-0.518c-0.911-2.813,5.74-7.595,7.529-9.119c3.105-2.647,6.555-4.888,9.894-7.222
				c5.225-3.653,10.292-6.252,16.247-8.476c4.824-1.802,9.418-4.124,13.708-6.969c9.062-6.011,16.297-14.589,23.771-22.368
				c8.838-9.195,16.082-20.015,21.246-31.669c2.495-5.631,4.229-11.585,4.992-17.696c0.889-7.107-0.947-14.316-2.229-21.261
				c-1.238-6.726-2.095-13.223-5.467-19.295c-3.14-5.651-7.461-10.756-12.209-15.102c-9.855-9.019-21.162-16.781-34.275-19.986
				c-14.643-3.578-29.881-4.932-44.863-6.163c-14.977-1.23-30.217-2.923-45.057,0.382c-15.151,3.375-26.712,10.941-38.89,20.245
				c-5.287,4.039-10.115,8.489-13.463,14.295c-3.68,6.382-7.784,12.963-9.704,20.121C37.289,153.832,41.31,169.018,46.931,181.592
				c0.24,0.537,2.119-0.098,1.932-0.518c-5.355-11.982-8.622-25.188-6.596-38.331c0.981-6.369,4.024-11.417,7.118-16.916
				c1.914-3.401,3.432-6.908,5.749-10.08c2.509-3.434,5.928-6.251,9.212-8.893c5.338-4.294,10.92-8.462,16.689-12.154
				c8.016-5.13,17.636-7.893,26.955-9.37c15.782-2.501,32.472-0.036,48.262,1.449c15.323,1.441,31.971,2.72,46.15,9.084
				c13.033,5.85,25.447,16.432,33.383,28.253c3.854,5.742,5.468,11.858,6.602,18.599c1.271,7.577,3.162,15.079,2.956,22.811
				c-0.374,13.973-8.616,28.053-16.474,39.089c-6.087,8.551-13.651,16.179-21.131,23.517c-8.352,8.194-17.033,14.089-28.109,18.035
				c-7.785,2.773-14.396,8.005-21.077,12.756c-2.622,1.863-11.962,8.251-10.747,12.003c0.645-0.173,1.288-0.345,1.932-0.518
				c-12.699-20.017-35.359-27.854-55.054-39.122c-20.795-11.898-35.725-28.438-45.818-50.211
				C48.613,180.537,46.74,181.182,46.931,181.592z"/>
		</g>
	</g>
	<g>
		<g>
			<path fill="none" d="M508.333,260.334"/>
			<path fill="#231F20" d="M507.707,260.73c0.408,0,2.203-0.795,1.252-0.795C508.551,259.938,506.756,260.73,507.707,260.73
				L507.707,260.73z"/>
		</g>
	</g>
</g>
<g id="Layer_6" display="none">
	<g display="inline">
		<g>
			<path fill="none" d="M83.667,121.667C77,149,56.333,212.334,92.333,230.334"/>
			<path fill="#231F20" d="M82.686,121.733c-4.885,19.892-10.655,39.602-11.809,60.173c-1.056,18.82,2.709,39.66,20.904,49.1
				c0.824,0.428,2.206-0.771,1.104-1.344c-19.314-10.02-21.324-33.202-19.721-52.577c1.565-18.914,6.977-37.139,11.482-55.484
				C84.885,120.631,82.903,120.848,82.686,121.733L82.686,121.733z"/>
		</g>
	</g>
	<g display="inline">
		<g>
			<path fill="none" d="M103,117.667c-8,22.667-9.333,50.667-6,74c1.333,10.667,6,20.667,11.333,30c4,8,14,18,15.333,27.333"/>
			<path fill="#231F20" d="M102.04,117.808c-7.616,22.109-9.106,46.14-6.622,69.283c1.362,12.688,5.703,23.778,11.95,34.835
				c5.057,8.95,13.429,16.952,15.333,27.333c0.103,0.562,2.045,0.101,1.932-0.518c-1.759-9.595-9.156-17.048-14.104-25.104
				c-6.387-10.398-11.114-21.712-12.782-33.826c-3.296-23.94-1.679-49.371,6.214-72.286
				C104.15,116.976,102.239,117.229,102.04,117.808L102.04,117.808z"/>
		</g>
	</g>
	<g display="inline">
		<g>
			<path fill="none" d="M113.667,109c-5.333,17.333-3.333,40.667-2.667,58.667c0,13.333,2.667,24.667,9.333,36.667
				C133,225,147,245,151,269.667"/>
			<path fill="#231F20" d="M112.702,109.127c-3.745,12.769-3.813,26.244-3.458,39.439c0.376,13.984-0.015,28.589,4.055,42.086
				c4.22,13.992,13.821,25.934,21.017,38.469c7.32,12.752,13.211,26.248,15.719,40.805c0.107,0.629,2.05,0.167,1.932-0.518
				c-2.418-14.039-8.004-26.949-14.89-39.34c-6.83-12.291-15.759-23.646-20.79-36.84c-4.878-12.797-4.385-26.68-4.935-40.145
				c-0.602-14.729-0.909-29.932,3.279-44.212C114.823,108.217,112.887,108.497,112.702,109.127L112.702,109.127z"/>
		</g>
	</g>
	<g display="inline">
		<g>
			<path fill="none" d="M207.667,101c14,27.333,18,46,8,75.334c-8,22-20,46.666-20,70.666"/>
			<path fill="#231F20" d="M206.701,101.259c5.398,10.629,10.212,21.554,12.447,33.325c2.336,12.295,0.672,24.736-2.752,36.654
				c-7.338,25.527-21.375,48.748-21.695,76.021c-0.003,0.269,1.926,0.015,1.932-0.518c0.326-27.736,14.689-51.582,22.156-77.565
				c3.154-10.977,4.217-22.357,2.535-33.674c-1.823-12.262-7.127-23.807-12.691-34.761
				C208.402,100.289,206.562,100.986,206.701,101.259L206.701,101.259z"/>
		</g>
	</g>
	<g display="inline">
		<g>
			<path fill="none" d="M182.333,105c-2,1.333,9.334,25.333,10.667,31.333c4,15.333,0,28-4,42.667
				c-5.333,23.334-22.667,56-15.333,80"/>
			<path fill="#231F20" d="M181.443,105.017c-1.332,1.507,0.881,5.858,1.396,7.328c1.792,5.094,3.922,10.072,5.924,15.085
				c1.953,4.891,3.559,9.573,4.41,14.796c1.633,9.995-0.63,20.097-3.173,29.727c-3.922,14.855-8.961,29.249-13.481,43.922
				c-4.259,13.823-7.901,29.088-3.818,43.384c0.167,0.585,2.096,0.056,1.932-0.518c-4.078-14.282-0.357-29.325,3.809-43.147
				c4.431-14.697,9.479-29.091,13.482-43.923c3.721-13.778,5.361-27.401,0.229-41.031c-1.899-5.047-4.016-10.012-5.969-15.038
				c-0.611-1.575-4.391-9.002-2.961-10.619C183.723,104.417,181.809,104.605,181.443,105.017L181.443,105.017z"/>
		</g>
	</g>
	<g display="inline">
		<g>
			<path fill="none" d="M155.667,117.667c-2,4,6.666,24.667,7.333,33.333c0.667,15.334,0,32.667-1.333,48.667
				c-2.667,27.333-12,52-6,80"/>
			<path fill="#231F20" d="M154.706,117.808c-1.062,2.812,0.342,6.592,1.043,9.321c1.315,5.127,2.992,10.16,4.42,15.257
				c3.831,13.675,2.249,28.919,1.529,42.937c-0.837,16.294-3.562,32.078-6.279,48.134c-2.62,15.474-3.86,30.976-0.718,46.471
				c0.115,0.568,2.056,0.095,1.932-0.518c-3.251-16.035-1.703-31.991,1.004-47.978c2.621-15.484,5.114-30.686,5.983-46.392
				c0.71-12.842,2.306-27.229-0.652-39.851c-1.202-5.133-2.887-10.157-4.356-15.217c-0.984-3.392-3.319-8.906-1.982-12.446
				C156.829,116.992,154.925,117.229,154.706,117.808L154.706,117.808z"/>
		</g>
	</g>
</g>
<g id="Layer_7">
	<g>
		<g>
			<g>
				<path fill="#66331E" d="M92.432,103.853c-7.243-2.56-11.294,9.897-13.048,14.585c-3.802,10.165-7.291,21.933-7.361,32.884
					c-0.121,18.744,7.656,36.701,17.135,52.488c10.496,17.481,24.12,32.996,38.281,47.575c0.493,0.507,2.328-0.217,1.79-0.771
					c-23.634-24.331-47.997-53.01-54.181-87.391c-2.007-11.156-0.465-21.106,2.268-31.913c1.004-3.97,6.889-28.865,13.586-26.498
					C91.513,105.031,93.259,104.145,92.432,103.853L92.432,103.853z"/>
			</g>
		</g>
		<g>
			<g>
				<path fill="#66331E" d="M193.434,97.365c10.193,11.32,14.551,25.058,16.322,39.934c1.695,14.233,3.061,29.625,0.251,43.76
					c-2.127,10.699-7.745,19.918-13.269,29.148c-6.572,10.988-11.557,22.387-14.368,34.926c-0.147,0.658,1.789,0.342,1.926-0.268
					c2.97-13.238,8.419-24.991,15.369-36.567c5.487-9.138,10.415-18.188,12.515-28.758c2.741-13.794,1.014-28.903-0.492-42.759
					c-1.621-14.919-6.295-28.866-16.453-40.147C194.816,96.172,192.979,96.861,193.434,97.365L193.434,97.365z"/>
			</g>
		</g>
		<g>
			<g>
				<path fill="#66331E" d="M157.262,97.581c12.844,7.873,16.93,20.272,17.313,34.693c0.174,6.527-0.251,13.061-0.278,19.587
					c-0.037,8.559,0.875,17.104,0.98,25.664c0.199,16.291-3.27,32.798-9.248,47.912c-5.471,13.826-12.367,26.897-16.959,41.096
					c-0.355,1.098,1.576,1.145,1.859,0.268c4.729-14.617,11.823-28.113,17.457-42.355c6.331-16.004,9.176-33.403,8.793-50.568
					c-0.186-8.254-0.994-16.477-0.9-24.736c0.08-6.951,0.479-13.888,0.105-20.837c-0.721-13.437-5.955-24.717-17.646-31.883
					C157.964,95.945,156.301,96.993,157.262,97.581L157.262,97.581z"/>
			</g>
		</g>
		<g>
			<g>
				<path fill="#66331E" d="M110.032,99.113c-3.957,12.99-3.831,26.826-3.402,40.271c0.456,14.289,1.39,28.481,3.651,42.609
					c4.537,28.346,14.662,55.417,30.49,79.394c0.378,0.571,2.25-0.076,1.79-0.772c-15.84-23.993-25.623-50.849-30.348-79.138
					c-2.267-13.572-3.056-27.234-3.593-40.962c-0.541-13.853-0.732-28.234,3.348-41.626C112.189,98.162,110.24,98.43,110.032,99.113
					L110.032,99.113z"/>
			</g>
		</g>
	</g>
</g>
<g id="Layer_2_copy">
	<g>
		<g>
			<path fill="none" d="M47.896,181.333c18.729,41,43.7,48.667,75.243,66.001c10.515,6,19.058,12.666,25.63,23.332
				c-1.369-2.223,9.248-10.816,10.813-11.877c4.378-2.963,13.755-10.125,18.749-11.789c14-4.666,20.253-9.243,29-17.666
				c5.938-5.718,6.947-7.107,12.669-13.035c11.793-12.222,24.297-32.061,26.163-49.254c0.838-7.712-1.294-15.354-2.537-22.9
				c-1.025-6.228-1.869-12.03-5.167-17.552c-3.303-5.53-7.308-10.723-12.147-15.016c-10.026-8.892-20.896-16.917-34.156-19.927
				c-19.889-4.515-41.186-5.905-61.46-7.39c-16.078-1.177-31.06,0.696-45.671,7.741c-5.399,2.603-10.332,6.417-15.1,9.984
				c-6.053,4.528-13.477,9.818-17.429,16.355c-2.114,3.499-3.581,7.189-5.852,10.66C36.604,144.345,40.675,165.523,47.896,181.333z"
				/>
			<path fill="#231F20" d="M46.931,181.592c9.558,20.618,23.39,36.741,42.828,48.553c20.312,12.34,44.704,19.754,58.046,40.78
				c0.286,0.452,2.096-0.012,1.932-0.518c-0.911-2.813,5.74-7.595,7.529-9.119c3.105-2.647,6.555-4.888,9.894-7.222
				c5.225-3.653,10.292-6.252,16.247-8.476c4.824-1.802,9.418-4.124,13.708-6.969c9.062-6.011,16.297-14.589,23.771-22.368
				c8.838-9.195,16.082-20.015,21.246-31.669c2.495-5.631,4.229-11.585,4.992-17.696c0.889-7.107-0.947-14.316-2.229-21.261
				c-1.238-6.726-2.095-13.223-5.467-19.295c-3.14-5.651-7.461-10.756-12.209-15.102c-9.855-9.019-21.162-16.781-34.275-19.986
				c-14.643-3.578-29.881-4.932-44.863-6.163c-14.977-1.23-30.217-2.923-45.057,0.382c-15.151,3.375-26.712,10.941-38.89,20.245
				c-5.287,4.039-10.115,8.489-13.463,14.295c-3.68,6.382-7.784,12.963-9.704,20.121C37.289,153.832,41.31,169.018,46.931,181.592
				c0.24,0.537,2.119-0.098,1.932-0.518c-5.355-11.982-8.622-25.188-6.596-38.331c0.981-6.369,4.024-11.417,7.118-16.916
				c1.914-3.401,3.432-6.908,5.749-10.08c2.509-3.434,5.928-6.251,9.212-8.893c5.338-4.294,10.92-8.462,16.689-12.154
				c8.016-5.13,17.636-7.893,26.955-9.37c15.782-2.501,32.472-0.036,48.262,1.449c15.323,1.441,31.971,2.72,46.15,9.084
				c13.033,5.85,25.447,16.432,33.383,28.253c3.854,5.742,5.468,11.858,6.602,18.599c1.271,7.577,3.162,15.079,2.956,22.811
				c-0.374,13.973-8.616,28.053-16.474,39.089c-6.087,8.551-13.651,16.179-21.131,23.517c-8.352,8.194-17.033,14.089-28.109,18.035
				c-7.785,2.773-14.396,8.005-21.077,12.756c-2.622,1.863-11.962,8.251-10.747,12.003c0.645-0.173,1.288-0.345,1.932-0.518
				c-12.699-20.017-35.359-27.854-55.054-39.122c-20.795-11.898-35.725-28.438-45.818-50.211
				C48.613,180.537,46.74,181.182,46.931,181.592z"/>
		</g>
	</g>
	<g>
		<g>
			<path fill="none" d="M508.333,260.334"/>
			<path fill="#231F20" d="M507.707,260.73c0.408,0,2.203-0.795,1.252-0.795C508.551,259.938,506.756,260.73,507.707,260.73
				L507.707,260.73z"/>
		</g>
	</g>
</g>
<g id="Layer_5" display="none">
	<g display="inline">
		<g>
			<path fill="none" d="M63,114c-9,17.667,9,64,18.667,79c10.667,17.334,29.333,27.668,44,41.334c7,6.667,19.333,17,20.667,27"/>
			<path fill="#231F20" d="M62.043,114.156c-5.222,10.904-1.745,25.157,1.105,36.213c3.443,13.354,8.507,26.592,15.09,38.719
				c7.875,14.508,20.692,24.551,33.426,34.59c6.557,5.17,12.766,10.646,18.832,16.379c6.221,5.881,13.324,12.76,14.871,21.536
				c0.085,0.481,2.029,0.034,1.932-0.518c-1.316-7.474-6.721-13.403-11.854-18.646c-5.741-5.861-11.927-11.356-18.298-16.519
				c-13.578-10.999-27.734-21.063-36.547-36.571c-6.54-11.506-11.23-24.285-14.838-36.98c-3.281-11.545-7.297-27.046-1.804-38.516
				C64.143,113.456,62.295,113.63,62.043,114.156L62.043,114.156z"/>
		</g>
	</g>
	<g display="inline">
		<g>
			<path fill="none" d="M97.667,110c7.667,16.667-2.667,44,3.667,61.667c4,11.667,12,20.999,20.333,30.333
				c11.667,13.666,23.667,32.667,25.667,51.667"/>
			<path fill="#231F20" d="M96.701,110.258c4.865,11.324,2.708,24.432,1.876,36.34c-0.827,11.821-0.268,22.379,5.176,33.113
				c6.313,12.448,17.119,21.938,25.185,33.178c8.716,12.145,15.625,26.065,17.429,41.036c0.107,0.888,2.044,0.41,1.932-0.518
				c-1.693-14.042-7.902-26.847-15.63-38.526s-18.241-21.156-25.536-33.137c-7.364-12.094-7.384-24.653-6.382-38.326
				c0.812-11.085,2.404-23.153-2.118-33.679C98.263,108.882,96.348,109.438,96.701,110.258L96.701,110.258z"/>
		</g>
	</g>
	<g display="inline">
		<g>
			<path fill="none" d="M126.333,112C125,124.333,125.62,144.611,123,156.667C116.333,187.333,140.333,199,149.667,237"/>
			<path fill="#231F20" d="M125.357,112.081c-1.239,12.251-0.904,24.604-2.139,36.86c-1.022,10.143-3.474,19.021-0.873,29.185
				c2.268,8.862,7.35,16.854,11.831,24.722c6.231,10.938,11.42,22.174,14.525,34.412c0.22,0.865,2.152,0.352,1.932-0.518
				c-2.816-11.1-7.316-21.432-12.83-31.436c-4.791-8.692-10.304-17.09-13.231-26.654c-3.137-10.246-0.559-19.611,0.601-29.872
				c1.383-12.239,0.9-24.609,2.138-36.86C127.408,110.951,125.442,111.239,125.357,112.081L125.357,112.081z"/>
		</g>
	</g>
	<g display="inline">
		<g>
			<path fill="none" d="M186.667,107.333c15,14,16.666,31.667,14.333,62c-0.873,11.347-2.363,28.478-8.333,38.001
				c-5.728,9.137-4.334,12-17.334,19.666c-3.369,1.986-7.442,6.78-10,9.667c-7.61,8.593-15.819,15.828-16,27.667"/>
			<path fill="#231F20" d="M185.757,107.663c10.084,9.627,14.022,21.839,14.933,35.484c1.121,16.859-0.23,35.405-4.116,51.851
				c-1.607,6.8-4.954,12.263-8.155,18.354c-3.551,6.76-8.555,10.159-14.854,14.293c-6.248,4.101-11.416,11.476-16.273,17.075
				c-5,5.765-8.562,12.13-8.922,19.873c-0.014,0.296,1.904,0.056,1.932-0.518c0.461-9.948,6.352-16.97,12.784-24.024
				c2.615-2.867,5.144-5.814,7.82-8.625c3.399-3.57,7.709-5.738,11.614-8.66c4.123-3.084,6.364-7.054,8.731-11.504
				c3.699-6.955,6.604-13.117,8.175-20.941c3.17-15.777,4.174-32.992,3.106-49.025c-0.877-13.178-5.308-25.081-14.954-34.292
				C187.207,106.65,185.453,107.373,185.757,107.663L185.757,107.663z"/>
		</g>
	</g>
	<g display="inline">
		<g>
			<path fill="none" d="M199.961,107.536c12.083,5.183,15.605,11.713,19.98,24.544c8.726,25.587,9.002,58.285-9.274,78.92
				c-20.667,23.334-45,25.334-57.667,51.667"/>
			<path fill="#231F20" d="M199.2,108.032c6.291,2.798,11.325,6.554,14.86,12.526c4.059,6.857,6.268,15.227,8.062,22.921
				c3.864,16.576,3.803,34.464-2.167,50.523c-12.221,32.872-52.749,38.24-67.863,68.615c-0.441,0.889,1.502,0.727,1.814,0.1
				c8.102-16.281,22.691-24.55,37.242-34.261c14.107-9.416,26.065-21.063,31.715-37.366c5.475-15.793,4.603-33.498,0.857-49.556
				c-1.736-7.445-4.189-15.042-7.875-21.763c-3.357-6.121-8.879-9.954-15.125-12.732C200.091,106.758,198.339,107.649,199.2,108.032
				L199.2,108.032z"/>
		</g>
	</g>
	<g display="inline">
		<g>
			<path fill="none" d="M152,246.667c1.667-4,2.667-9,5.333-12.667c3.667-6,9.334-10.333,13-16.666c5-8.667,6.334-19,7.667-28.667
				c2.667-23-7.667-44-11.667-66"/>
			<path fill="#231F20" d="M152.955,246.505c1.682-4.302,2.777-8.765,5.333-12.667c3.247-4.962,7.551-9.042,11.104-13.768
				c6.387-8.497,7.916-19.726,9.34-29.949c3.252-23.354-7.174-45.227-11.434-67.713c-0.085-0.449-2.029,0.005-1.932,0.518
				c4.244,22.412,14.662,44.245,11.455,67.521c-1.51,10.955-3.372,22.004-10.176,31.056c-2.947,3.921-6.52,7.312-9.39,11.304
				c-3.075,4.277-4.323,9.19-6.213,14.023C150.893,247.225,152.754,247.02,152.955,246.505L152.955,246.505z"/>
		</g>
	</g>
</g>
<g id="Layer_1_1_" display="none">
	<g display="inline">
		<g>
			<path fill="#00A551" d="M136.529,14.191c1.027,1.417,3.597,16.521,2.569,21.24c-2.569,10.856-13.43,9.234-25.097,12.568
				c-18.271,5.22-38.668,16.646-51,30.333c-11.818,12.743-20.667,33-24.1,47.721c-1.342,5.756-9.763,8.967-14.901,11.8"/>
			<g>
				<path fill="none" d="M136.529,14.191c1.027,1.417,3.597,16.521,2.569,21.24c-2.569,10.856-13.43,9.234-25.097,12.568
					c-18.271,5.22-38.668,16.646-51,30.333c-11.818,12.743-20.667,33-24.1,47.721c-1.342,5.756-9.763,8.967-14.901,11.8"/>
				<path fill="#231F20" d="M135.563,14.45c2.209,4.043,2.266,10.251,2.652,14.724c0.268,3.1,0.24,5.953-0.881,8.892
					c-2.066,5.413-8.313,6.556-13.337,7.491c-15.612,2.906-30.067,8.898-43.44,17.478C66.536,72.031,55.974,84.102,48.265,98.8
					c-3.729,7.11-6.68,14.642-8.976,22.329c-1.098,3.677-1.44,6.876-4.279,9.713c-3.14,3.137-7.714,4.816-11.567,6.883
					c-1.128,0.605,0.662,0.499,1.113,0.256c5.133-2.753,11.155-4.997,14.482-10.055c1.944-2.956,2.317-7.795,3.414-11.162
					c1.404-4.309,3.122-8.51,4.973-12.644c8.126-18.147,20.562-32.316,37.433-42.812c9.065-5.64,18.988-10.002,29.223-13.011
					c6.348-1.866,13.879-1.671,19.763-4.971c4.809-2.696,6.557-7.118,6.433-12.458c-0.116-5.004-0.318-12.428-2.782-16.937
					C137.232,13.452,135.405,14.161,135.563,14.45L135.563,14.45z"/>
			</g>
		</g>
		<g>
			<path fill="#00A551" d="M78.466,113.31c-5.652,10.383-15.415,17.936-27.233,22.183c-6.68,2.36-18.565,8.318-27.899,3.173"/>
			<g>
				<path fill="none" d="M78.466,113.31c-5.652,10.383-15.415,17.936-27.233,22.183c-6.68,2.36-18.565,8.318-27.899,3.173"/>
				<path fill="#231F20" d="M77.554,113.242c-5.161,9.099-12.971,15.629-22.396,20.016c-9.098,4.234-21.382,9.608-31.069,4.894
					c-0.662-0.322-2.402,0.597-1.512,1.03c10.16,4.945,20.809-0.115,30.528-3.748c11.005-4.113,20.47-11.824,26.272-22.055
					C79.879,112.495,77.921,112.594,77.554,113.242L77.554,113.242z"/>
			</g>
		</g>
		<g>
			<path fill="#00A551" d="M150.218,9.212c-2.344,4.965,1.192,17.798,2.113,23.361c1.719,10.379,10.672,5.771,19.002,6.142
				c9.993,0.444,21.226,8.074,27.765,14.712c8.008,8.131,15.82,17.116,21.994,26.662c6.699,10.356,10.24,21.509,15.493,32.437
				c4.279,8.896,17.535,23.594,28.915,23.724"/>
			<g>
				<path fill="none" d="M150.218,9.212c-2.344,4.965,1.192,17.798,2.113,23.361c1.719,10.379,10.672,5.771,19.002,6.142
					c9.993,0.444,21.226,8.074,27.765,14.712c8.008,8.131,15.82,17.116,21.994,26.662c6.699,10.356,10.24,21.509,15.493,32.437
					c4.279,8.896,17.535,23.594,28.915,23.724"/>
				<path fill="#231F20" d="M149.264,9.374c-2.145,5.57-0.086,12.574,1.053,18.16c0.933,4.567,1.139,11.318,6.973,12.115
					c2.574,0.352,5.113,0.07,7.686-0.204c5.014-0.534,9.53-0.088,14.301,1.611c9.007,3.208,16.233,9.829,22.688,16.624
					c7.504,7.9,14.488,16.431,20.084,25.798c5.214,8.726,8.573,18.456,12.798,27.667c5.166,11.264,16.782,24.819,30.036,25.523
					c0.44,0.023,2.226-0.783,1.24-0.835c-15.322-0.814-26.09-17.657-31.556-30.141c-3.854-8.808-7.364-17.694-12.508-25.861
					c-4.869-7.735-10.86-14.782-17.033-21.494c-9.938-10.806-22.486-21.213-38.053-19.846c-3.527,0.31-7.399,1.25-10.67-0.563
					c-2.845-1.577-3.003-5.759-3.566-8.556c-1.24-6.153-3.922-14.187-1.562-20.321C151.328,8.647,149.462,8.857,149.264,9.374
					L149.264,9.374z"/>
			</g>
		</g>
		<g>
			<path fill="#00A551" d="M137.331,14.001c5.138-1.887,7.933-3.113,13.071-5.001"/>
			<g>
				<path fill="none" d="M137.331,14.001c5.138-1.887,7.933-3.113,13.071-5.001"/>
				<path fill="#231F20" d="M137.748,14.529c4.376-1.618,8.695-3.383,13.072-5.001c1.248-0.462,0.135-1.414-0.834-1.056
					c-4.377,1.618-8.695,3.383-13.071,5.001C135.665,13.935,136.78,14.887,137.748,14.529L137.748,14.529z"/>
			</g>
		</g>
		<g>
			<path fill="#00A551" d="M204.868,117.558c10.79,16.047,42.298,26.19,60.796,19.11"/>
			<g>
				<path fill="none" d="M204.868,117.558c10.79,16.047,42.298,26.19,60.796,19.11"/>
				<path fill="#231F20" d="M203.986,117.994c12.307,17.558,41.748,26.637,61.865,19.375c1.15-0.416,0.803-1.829-0.377-1.403
					c-19.402,7.004-47.861-1.917-59.726-18.844C205.217,116.361,203.387,117.137,203.986,117.994L203.986,117.994z"/>
			</g>
		</g>
		<g>
			<path fill="#00A551" d="M214.117,165.229c2.55-17.229-2.783-34.562-9.249-47.67"/>
			<g>
				<path fill="none" d="M214.117,165.229c2.55-17.229-2.783-34.562-9.249-47.67"/>
				<path fill="#231F20" d="M215.096,165.15c2.188-16.6-2.043-32.952-9.262-47.853c-0.4-0.826-2.307-0.255-1.932,0.518
					c7.166,14.792,11.412,30.995,9.236,47.491C213.014,166.273,214.982,166,215.096,165.15L215.096,165.15z"/>
			</g>
		</g>
		<g>
			<path fill="#00A551" d="M214.117,165.229c-21.066-9.44-21.262-36.231-40.124-53.504"/>
			<g>
				<path fill="none" d="M214.117,165.229c-21.066-9.44-21.262-36.231-40.124-53.504"/>
				<path fill="#231F20" d="M214.898,164.811c-10.597-5.01-16.237-14.717-21.285-24.818c-5.166-10.345-10.184-20.574-18.717-28.621
					c-0.426-0.402-2.219,0.317-1.809,0.704c9.118,8.598,14.198,19.75,19.758,30.75c4.791,9.479,10.609,18.151,20.488,22.821
					C213.812,165.873,215.596,165.139,214.898,164.811L214.898,164.811z"/>
			</g>
		</g>
		<g>
			<path fill="#00A551" d="M173.993,111.723c3.341,8.609,2.62,15.172,2.841,21.777c0.333,10.001-4.445,11.559-6.5,18.165
				c-3.084,10.385-8,12-7.646,23.306c-15.021-13.306-29.143-35.61-37.021-60.639"/>
			<g>
				<path fill="none" d="M173.993,111.723c3.341,8.609,2.62,15.172,2.841,21.777c0.333,10.001-4.445,11.559-6.5,18.165
					c-3.084,10.385-8,12-7.646,23.306c-15.021-13.306-29.143-35.61-37.021-60.639"/>
				<path fill="#231F20" d="M173.027,111.982c3.899,10.794,4.992,24.832-1.276,34.788c-2.673,4.246-3.748,9.262-6.119,13.691
					c-2.563,4.791-3.954,9.102-3.911,14.624c0.621-0.167,1.242-0.333,1.863-0.499c-17.754-15.988-29.71-37.97-36.951-60.513
					c-0.229-0.711-2.152-0.168-1.932,0.518c7.262,22.609,19.286,44.729,37.092,60.765c0.381,0.345,1.868,0.176,1.863-0.498
					c-0.045-5.855,1.607-10.269,4.335-15.361c2.516-4.701,3.754-9.801,6.622-14.331c2.941-4.647,3.201-9.22,3.137-14.612
					c-0.077-6.616-0.518-12.797-2.791-19.087C174.702,110.754,172.786,111.315,173.027,111.982L173.027,111.982z"/>
			</g>
		</g>
		<g>
			<path fill="#00A551" d="M80.668,110.666c-2.667,2-4,7-5.667,10c-2.667,5.333-5,10.667-7.667,16c-3,5.333-4,11.667-7.667,16.667
				c-3.333,5-8.333,9-11.333,14.333c7.333-2.333,15-1.667,22.333-3.667c8.333-2.333,15.333-5,22.667-9.666
				c11.333-7,35.667-24.333,31.333-40.333"/>
			<g>
				<path fill="none" d="M80.668,110.666c-2.667,2-4,7-5.667,10c-2.667,5.333-5,10.667-7.667,16c-3,5.333-4,11.667-7.667,16.667
					c-3.333,5-8.333,9-11.333,14.333c7.333-2.333,15-1.667,22.333-3.667c8.333-2.333,15.333-5,22.667-9.666
					c11.333-7,35.667-24.333,31.333-40.333"/>
				<path fill="#231F20" d="M79.892,110.502c-2.961,2.711-4.012,6.658-5.792,10.14c-2.945,5.761-5.441,11.742-8.438,17.478
					c-2.603,4.981-3.718,10.463-6.895,15.188c-3.417,5.086-8.137,9.074-11.333,14.334c-0.375,0.617,0.713,0.605,1.032,0.516
					c5.549-1.596,11.257-1.842,16.95-2.588c4.662-0.61,9.164-2.127,13.586-3.672c8.318-2.905,15.814-7.539,22.96-12.618
					c10.6-7.533,27.133-20.557,23.671-35.539c-0.157-0.682-2.094-0.184-1.932,0.518c3.45,14.933-13.395,27.649-23.926,35.134
					c-6.713,4.771-13.8,8.834-21.542,11.696c-9.825,3.632-20.104,3.234-30.032,6.086c0.344,0.173,0.688,0.345,1.032,0.517
					c2.617-4.307,6.158-7.844,9.372-11.691c3.337-3.995,5.194-8.532,6.99-13.349c2.347-6.294,5.685-12.333,8.568-18.404
					c2.034-4.281,3.764-10.198,7.278-13.416C82.276,110.068,80.363,110.071,79.892,110.502L79.892,110.502z"/>
			</g>
		</g>
	</g>
</g>
<ellipse fill="#FFFFFF" stroke="#000000" stroke-width="2" stroke-miterlimit="10" cx="101.222" cy="165.24" rx="31.278" ry="36.26"/>
<ellipse fill="#FFFFFF" stroke="#000000" stroke-width="2" stroke-miterlimit="10" cx="190.223" cy="165.24" rx="31.277" ry="36.26"/>
<g id="Layer_4">
	<g>
		<path fill="#009345" d="M132.667,14.333c5.333-2.333,11-5,16.333-8c1.333,8.333,0,16.333,2,24.333
			C153.333,41,159,38,167.667,38.333c23,0.667,45.333,18.333,55.666,38c7,12.667,8.334,27.667,17,39.667
			C248,127,259,133.667,271.667,137.333c-23.334,4.333-51.667-2.667-66.334-23c8,15,13.334,34.333,9.667,51.333
			c-1.667-4-8.667-8.333-11.667-12c-3.666-4.333-8-8.667-11-13.667c-6-8.667-14-18.667-18-28.333c4.334,12.333,5,21-0.333,33.333
			c-2.667,6-6.333,11.667-8,18c-1.333,5.666,0,11-0.333,16.666c-10-4-19-21.666-23.667-30.666c-6-12-13.667-24.333-18-37
			c2.333,8.667,4.333,13-3.333,20c-7.333,6.333-16.333,11.667-24.667,16.667C81.333,158,65,164,48,165.666
			c7.667-3.666,13.333-15,17-22.333c4.333-9,10.333-19.333,11-29.667c-6.667,11-11,19-23.667,23.333c-8.333,2.667-21,6.333-29.667,4
			c20-2,21-29.333,27-43.333c8.333-19.333,19.667-33.333,36.667-45c9-6.667,17-9.667,28-11.667c8-1.333,17-2,24.667-4.667
			c0.333-6-1-18.667-5.667-22.333"/>
		<g>
			<path fill="#006838" d="M133.046,14.722c5.63-2.484,11.165-5.131,16.552-8.11c-0.521-0.007-1.041-0.014-1.562-0.021
				c1.263,9.204-0.489,19.246,3.203,27.994c1.835,4.349,6.298,4.545,10.376,4.392c18.809-0.708,35.288,7.557,48.372,20.753
				c6.502,6.557,11.599,14.398,15.258,22.853c3.744,8.652,5.812,17.909,9.846,26.457c7,14.837,20.635,24.204,35.985,28.812
				c0.241-0.349,0.483-0.697,0.727-1.046c-23.854,4.195-50.672-2.799-65.569-22.849c-0.346-0.463-2.148,0.091-1.863,0.635
				c8.152,15.587,13.156,33.618,9.668,51.197c0.645-0.127,1.287-0.255,1.931-0.382c-1.819-3.556-5.133-6.013-8.102-8.572
				c-4.339-3.741-8.062-8.409-11.628-12.873c-3.856-4.828-7.215-10.216-10.781-15.271c-3.862-5.474-7.486-11.122-10.156-17.283
				c-0.279-0.644-2.148-0.12-1.932,0.518c3.938,11.524,4.39,21.821-0.332,33.198c-2.303,5.548-5.51,10.594-7.498,16.289
				c-2.055,5.884-0.657,12.312-0.835,18.377c0.577-0.195,1.155-0.392,1.733-0.586c-10.644-4.734-16.887-17.894-21.997-27.626
				c-6.843-13.032-14.551-25.92-19.474-39.836c-0.232-0.657-2.112-0.143-1.932,0.518c1.417,5.183,3.342,10.33,0.516,15.376
				c-3.498,6.247-11.863,10.635-17.677,14.359c-13.024,8.344-26.267,15.94-41.26,20.123c-3.744,1.044-7.564,1.786-11.4,2.394
				c-1.263,0.199-2.638,0.385-3.534,0.86c0.761-0.404,1.569-1.049,2.257-1.56c4.521-3.348,7.622-8.672,10.33-13.47
				c6.272-11.113,13.509-23.932,14.7-36.8c0.074-0.805-1.616-0.303-1.864,0.107c-4.627,7.652-9.06,15.392-16.907,20.167
				c-4.777,2.907-10.6,4.226-15.974,5.574c-6.152,1.543-12.702,2.529-18.961,1.088c-0.243,0.349-0.485,0.697-0.728,1.046
				c10.061-1.277,15.901-8.357,19.642-17.299c2.316-5.536,3.722-11.435,5.324-17.203c1.883-6.779,4.542-13.034,7.859-19.254
				c7.649-14.341,18.69-25.491,31.749-34.951c8.234-5.965,17.142-9.411,27.093-11.293c8.356-1.58,16.793-2.056,24.928-4.718
				c0.234-0.077,0.825-0.266,0.838-0.599c0.282-7.042-0.112-17.494-5.734-22.586c-0.5-0.453-2.31,0.285-1.795,0.752
				c4.9,4.438,5.421,13.113,5.634,19.282c0.105,3.056-1.313,2.904-3.939,3.582c-3.192,0.823-6.476,1.297-9.733,1.783
				c-4.481,0.669-8.965,1.226-13.406,2.135C94.295,44.576,79.897,55.01,68.309,67.18C57.954,78.056,50.014,91.808,45.86,106.235
				c-3.703,12.86-6.855,32.181-23.059,34.238c-0.42,0.053-1.752,0.81-0.728,1.046c10.772,2.479,23.425-1.148,33.42-5.194
				c10.341-4.187,15.895-13.53,21.405-22.642c-0.621,0.036-1.243,0.071-1.864,0.107c-1.02,11.023-6.6,20.871-11.47,30.6
				c-3.853,7.697-8.244,16.79-16.162,20.997c-0.78,0.414-0.134,0.87,0.463,0.807c19.663-2.096,36.455-9.836,53.193-19.93
				c7.548-4.551,17.084-9.517,22.717-16.492c4.709-5.833,3.021-11.334,1.19-18.031c-0.644,0.172-1.288,0.345-1.932,0.518
				c5.175,14.632,13.331,28.259,20.583,41.938c4.975,9.385,11.084,21.396,21.28,25.933c0.389,0.173,1.717,0.021,1.734-0.586
				c0.184-6.187-0.938-12.331,0.835-18.378c1.854-6.327,5.699-11.954,8.22-18.026c4.438-10.689,3.27-21.034-0.388-31.731
				c-0.644,0.172-1.288,0.345-1.932,0.518c4.493,10.373,11.642,19.244,18.067,28.45c3.594,5.148,7.598,9.821,11.76,14.523
				c3.408,3.852,8.431,6.317,10.84,11.025c0.303,0.592,1.81,0.231,1.931-0.382c3.507-17.667-1.468-35.794-9.666-51.469
				c-0.621,0.211-1.241,0.423-1.862,0.635c15.213,20.474,42.793,27.424,67.098,23.151c0.431-0.076,1.736-0.743,0.727-1.046
				c-17.906-5.375-30.994-16.916-37.863-34.392c-3.248-8.264-5.36-16.886-9.313-24.876c-3.397-6.867-8.028-13.037-13.301-18.566
				c-10.657-11.177-25.065-19.315-40.526-20.983c-5.079-0.548-13.336,1.836-17.128-2.367c-2.75-3.048-2.931-8.809-3.235-12.616
				c-0.453-5.656-0.151-11.298-0.926-16.939c-0.08-0.583-1.312-0.159-1.562-0.021c-5.243,2.899-10.636,5.473-16.115,7.89
				C131.053,14.488,132.187,15.102,133.046,14.722L133.046,14.722z"/>
		</g>
	</g>
</g>
<g id="Layer_3" display="none">
</g>
<circle stroke="#000000" stroke-width="2" stroke-miterlimit="10" cx="86.172" cy="184.643" r="9.477"/>
<circle stroke="#000000" stroke-width="2" stroke-miterlimit="10" cx="176.213" cy="184.776" r="9.477"/>
</svg>
