<svg id="Layer_1" data-name="Layer 1" xmlns="http://www.w3.org/2000/svg" viewBox="0 0 328.9 513.11"><defs><style>.cls-1{font-size:57.3px;font-family:MyriadPro-Regular, Myriad Pro;}.cls-2{letter-spacing:-0.01em;}.cls-3{letter-spacing:-0.01em;}.cls-4{letter-spacing:-0.01em;}.cls-5,.cls-7{fill:none;}.cls-5{stroke:#ed1c24;stroke-width:0.03px;}.cls-5,.cls-8,.cls-9{stroke-miterlimit:10;}.cls-6{fill:#4d4d4d;}.cls-8{fill:#fff;}.cls-8,.cls-9{stroke:#000;stroke-width:2.32px;}.cls-10{fill:#b3b3b3;}.cls-11{fill:#333;}</style></defs><title>hazel-lazer-keychain</title><text class="cls-1" transform="translate(55.03 463.61)">ha<tspan class="cls-2" x="59.42" y="0">z</tspan><tspan x="83.55" y="0">e</tspan><tspan class="cls-3" x="112.26" y="0">l</tspan><tspan x="125.21" y="0">.o</tspan><tspan class="cls-4" x="168.53" y="0">r</tspan><tspan x="186.81" y="0">g</tspan></text><path class="cls-5" d="M122.66,16.39c-7.88,13.69,6.57,80-3.82,95.51-5.45,8.12-11.47,8.21-29.6,17.19-18.57,9.2-30.42,20.37-38.21,27.7-3.66,3.45-21.61,20.71-35.33,49.66C10.09,218.28,2.17,235.4.42,259-2.44,297.45,10,345.56,36.31,374.17c3.71,4,8,8.67,7.26,14.1-1,6.86-8.94,9.76-15,13.15A37.3,37.3,0,0,0,10,433.7c.27,21.56,32,45.43,43.09,51.63,66.46,37,156.29,37,222.76,0C287,479.13,320.65,455.2,319,433.7c-.59-7.71-6.28-22.91-18.61-32.28-6.89-5.24-13.94-7.18-15-13.15-1.09-6.28,5.29-12.16,7.27-14.1,18.77-18.4,39-71.46,35.89-115.19-1.72-23.82-10.17-41.7-15.28-52.53-13.61-28.8-31.51-46-35.34-49.66a202.48,202.48,0,0,0-38.2-27.7c-17.81-9.62-24.16-9.07-29.61-17.19-10.38-15.47,4.07-81.82-3.82-95.51C193.72-5.45,135.25-5.45,122.66,16.39Z"/><circle class="cls-5" cx="164.45" cy="56.51" r="28.65"/><path class="cls-6" d="M49.38,311.11c21.71,47.52,50.66,56.41,87.22,76.5,12.19,7,22.09,14.68,29.71,27.05-1.59-2.58,10.72-12.54,12.54-13.77,5.07-3.44,15.94-11.74,21.73-13.67,16.23-5.41,23.48-10.71,33.61-20.47,6.89-6.63,8.06-8.24,14.69-15.11,13.67-14.17,28.16-37.17,30.33-57.1,1-8.94-1.5-17.8-2.94-26.54-1.19-7.22-2.17-13.95-6-20.35a73.37,73.37,0,0,0-14.08-17.4c-11.63-10.31-24.23-19.61-39.6-23.1-23-5.24-47.74-6.85-71.24-8.57-18.64-1.36-36,.81-52.94,9-6.26,3-12,7.44-17.5,11.58-7,5.25-15.63,11.38-20.21,19-2.45,4-4.15,8.33-6.78,12.35C36.29,268.23,41,292.78,49.38,311.11Z"/><path class="cls-7" d="M49.38,311.11c21.71,47.52,50.66,56.41,87.22,76.5,12.19,7,22.09,14.68,29.71,27.05-1.59-2.58,10.72-12.54,12.54-13.77,5.07-3.44,15.94-11.74,21.73-13.67,16.23-5.41,23.48-10.71,33.61-20.47,6.89-6.63,8.06-8.24,14.69-15.11,13.67-14.17,28.16-37.17,30.33-57.1,1-8.94-1.5-17.8-2.94-26.54-1.19-7.22-2.17-13.95-6-20.35a73.37,73.37,0,0,0-14.08-17.4c-11.63-10.31-24.23-19.61-39.6-23.1-23-5.24-47.74-6.85-71.24-8.57-18.64-1.36-36,.81-52.94,9-6.26,3-12,7.44-17.5,11.58-7,5.25-15.63,11.38-20.21,19-2.45,4-4.15,8.33-6.78,12.35C36.29,268.23,41,292.78,49.38,311.11Z"/><path d="M48.26,311.4C59.34,335.3,75.37,354,97.91,367.68c23.54,14.31,51.82,22.9,67.28,47.28.33.52,2.43,0,2.24-.6-1.06-3.27,6.65-8.81,8.73-10.57,3.6-3.07,7.6-5.67,11.47-8.38a81.34,81.34,0,0,1,18.83-9.82,78.17,78.17,0,0,0,15.89-8.08c10.5-7,18.89-16.91,27.55-25.93a127.85,127.85,0,0,0,24.63-36.71,73.38,73.38,0,0,0,5.79-20.51c1-8.24-1.1-16.6-2.58-24.65-1.44-7.79-2.43-15.32-6.34-22.36a71,71,0,0,0-14.15-17.51c-11.43-10.45-24.53-19.45-39.74-23.17-17-4.14-34.63-5.71-52-7.14s-35-3.39-52.23.44c-17.56,3.92-31,12.69-45.08,23.47-6.13,4.68-11.72,9.84-15.61,16.57-4.26,7.4-9,15-11.24,23.33-4.27,15.89.39,33.49,6.91,48.06.28.63,2.46-.11,2.24-.6-6.21-13.89-10-29.19-7.65-44.43,1.14-7.38,4.67-13.23,8.26-19.61,2.21-3.94,4-8,6.66-11.68,2.91-4,6.87-7.25,10.68-10.31a223.56,223.56,0,0,1,19.34-14.09c9.29-6,20.45-9.15,31.25-10.86,18.29-2.9,37.64,0,55.94,1.68,17.76,1.67,37.06,3.15,53.5,10.53a95.85,95.85,0,0,1,38.7,32.75c4.46,6.65,6.33,13.74,7.65,21.56,1.47,8.78,3.66,17.48,3.42,26.44-.43,16.2-10,32.52-19.09,45.31-7.06,9.91-15.83,18.75-24.49,27.26-9.69,9.5-19.75,16.33-32.59,20.91-9,3.21-16.69,9.28-24.43,14.78-3,2.16-13.87,9.57-12.46,13.92l2.24-.6c-14.72-23.21-41-32.29-63.82-45.35-24.1-13.8-41.41-33-53.11-58.21C50.21,310.18,48,310.93,48.26,311.4Z"/><path class="cls-7" d="M49.38,311.11c21.71,47.52,50.66,56.41,87.22,76.5,12.19,7,22.09,14.68,29.71,27.05-1.59-2.58,10.72-12.54,12.54-13.77,5.07-3.44,15.94-11.74,21.73-13.67,16.23-5.41,23.48-10.71,33.61-20.47,6.89-6.63,8.06-8.24,14.69-15.11,13.67-14.17,28.16-37.17,30.33-57.1,1-8.94-1.5-17.8-2.94-26.54-1.19-7.22-2.17-13.95-6-20.35a73.37,73.37,0,0,0-14.08-17.4c-11.63-10.31-24.23-19.61-39.6-23.1-23-5.24-47.74-6.85-71.24-8.57-18.64-1.36-36,.81-52.94,9-6.26,3-12,7.44-17.5,11.58-7,5.25-15.63,11.38-20.21,19-2.45,4-4.15,8.33-6.78,12.35C36.29,268.23,41,292.78,49.38,311.11Z"/><path d="M48.26,311.4C59.34,335.3,75.37,354,97.91,367.68c23.54,14.31,51.82,22.9,67.28,47.28.33.52,2.43,0,2.24-.6-1.06-3.27,6.65-8.81,8.73-10.57,3.6-3.07,7.6-5.67,11.47-8.38a81.34,81.34,0,0,1,18.83-9.82,78.17,78.17,0,0,0,15.89-8.08c10.5-7,18.89-16.91,27.55-25.93a127.85,127.85,0,0,0,24.63-36.71,73.38,73.38,0,0,0,5.79-20.51c1-8.24-1.1-16.6-2.58-24.65-1.44-7.79-2.43-15.32-6.34-22.36a71,71,0,0,0-14.15-17.51c-11.43-10.45-24.53-19.45-39.74-23.17-17-4.14-34.63-5.71-52-7.14s-35-3.39-52.23.44c-17.56,3.92-31,12.69-45.08,23.47-6.13,4.68-11.72,9.84-15.61,16.57-4.26,7.4-9,15-11.24,23.33-4.27,15.89.39,33.49,6.91,48.06.28.63,2.46-.11,2.24-.6-6.21-13.89-10-29.19-7.65-44.43,1.14-7.38,4.67-13.23,8.26-19.61,2.21-3.94,4-8,6.66-11.68,2.91-4,6.87-7.25,10.68-10.31a223.56,223.56,0,0,1,19.34-14.09c9.29-6,20.45-9.15,31.25-10.86,18.29-2.9,37.64,0,55.94,1.68,17.76,1.67,37.06,3.15,53.5,10.53a95.85,95.85,0,0,1,38.7,32.75c4.46,6.65,6.33,13.74,7.65,21.56,1.47,8.78,3.66,17.48,3.42,26.44-.43,16.2-10,32.52-19.09,45.31-7.06,9.91-15.83,18.75-24.49,27.26-9.69,9.5-19.75,16.33-32.59,20.91-9,3.21-16.69,9.28-24.43,14.78-3,2.16-13.87,9.57-12.46,13.92l2.24-.6c-14.72-23.21-41-32.29-63.82-45.35-24.1-13.8-41.41-33-53.11-58.21C50.21,310.18,48,310.93,48.26,311.4Z"/><ellipse class="cls-8" cx="111.13" cy="293.42" rx="36.26" ry="42.03"/><ellipse class="cls-8" cx="214.3" cy="293.42" rx="36.26" ry="42.03"/><circle class="cls-9" cx="112.87" cy="306.43" r="10.99" transform="translate(-200.79 397.29) rotate(-85.93)"/><circle class="cls-9" cx="216.03" cy="306.43" r="10.99"/><g id="Layer_4" data-name="Layer 4"><path class="cls-10" d="M147.64,117.52c6.19-2.7,12.75-5.79,18.94-9.27,1.54,9.66,0,18.93,2.31,28.2,2.71,12,9.28,8.5,19.32,8.89,26.67.78,52.55,21.25,64.53,44,8.12,14.68,9.66,32.07,19.71,46,8.88,12.75,21.64,20.48,36.32,24.73-27,5-59.89-3.09-76.89-26.66,9.27,17.39,15.45,39.8,11.2,59.5-1.93-4.63-10-9.66-13.52-13.91-4.25-5-9.28-10-12.75-15.84-7-10.05-16.23-21.64-20.87-32.84,5,14.29,5.8,24.34-.38,38.64-3.1,6.95-7.35,13.52-9.28,20.86-1.54,6.57,0,12.75-.38,19.32-11.6-4.64-22-25.11-27.44-35.55-7-13.91-15.84-28.2-20.86-42.89,2.7,10.05,5,15.07-3.87,23.19-8.5,7.34-18.93,13.52-28.59,19.32a126.81,126.81,0,0,1-55.64,19.7c8.89-4.25,15.45-17.38,19.71-25.88,5-10.44,12-22.42,12.75-34.39-7.73,12.75-12.75,22-27.44,27-9.66,3.09-24.34,7.34-34.39,4.64,23.19-2.32,24.35-34,31.3-50.23,9.66-22.41,22.8-38.64,42.5-52.16,10.44-7.73,19.71-11.21,32.46-13.53,9.27-1.54,19.71-2.32,28.59-5.41.39-7-1.15-21.64-6.56-25.89"/><path class="cls-7" d="M147.64,117.52c6.19-2.7,12.75-5.79,18.94-9.27,1.54,9.66,0,18.93,2.31,28.2,2.71,12,9.28,8.5,19.32,8.89,26.67.78,52.55,21.25,64.53,44,8.12,14.68,9.66,32.07,19.71,46,8.88,12.75,21.64,20.48,36.32,24.73-27,5-59.89-3.09-76.89-26.66,9.27,17.39,15.45,39.8,11.2,59.5-1.93-4.63-10-9.66-13.52-13.91-4.25-5-9.28-10-12.75-15.84-7-10.05-16.23-21.64-20.87-32.84,5,14.29,5.8,24.34-.38,38.64-3.1,6.95-7.35,13.52-9.28,20.86-1.54,6.57,0,12.75-.38,19.32-11.6-4.64-22-25.11-27.44-35.55-7-13.91-15.84-28.2-20.86-42.89,2.7,10.05,5,15.07-3.87,23.19-8.5,7.34-18.93,13.52-28.59,19.32a126.81,126.81,0,0,1-55.64,19.7c8.89-4.25,15.45-17.38,19.71-25.88,5-10.44,12-22.42,12.75-34.39-7.73,12.75-12.75,22-27.44,27-9.66,3.09-24.34,7.34-34.39,4.64,23.19-2.32,24.35-34,31.3-50.23,9.66-22.41,22.8-38.64,42.5-52.16,10.44-7.73,19.71-11.21,32.46-13.53,9.27-1.54,19.71-2.32,28.59-5.41.39-7-1.15-21.64-6.56-25.89"/><path class="cls-11" d="M148.08,118c6.53-2.88,12.95-6,19.19-9.4l-1.81,0c1.46,10.67-.57,22.31,3.71,32.45,2.13,5,7.3,5.27,12,5.09,21.8-.82,40.9,8.76,56.07,24A86.07,86.07,0,0,1,255,196.64c4.34,10,6.73,20.76,11.41,30.66,8.11,17.2,23.92,28.06,41.71,33.4.28-.4.56-.81.85-1.21-27.65,4.86-58.74-3.25-76-26.49-.4-.53-2.49.11-2.16.74,9.45,18.07,15.25,39,11.21,59.35l2.24-.45c-2.11-4.12-6-7-9.4-9.93-5-4.34-9.34-9.75-13.48-14.92-4.47-5.6-8.36-11.85-12.49-17.71a112.48,112.48,0,0,1-11.77-20c-.33-.75-2.5-.14-2.24.6,4.56,13.36,5.08,25.29-.39,38.48-2.67,6.43-6.39,12.28-8.69,18.89-2.38,6.81-.76,14.27-1,21.3l2-.68c-12.34-5.49-19.57-20.74-25.5-32-7.93-15.1-16.86-30-22.57-46.17-.27-.76-2.45-.17-2.24.6,1.64,6,3.87,12,.6,17.82-4.06,7.24-13.75,12.33-20.49,16.65-15.1,9.67-30.45,18.47-47.83,23.32a118.92,118.92,0,0,1-13.22,2.78,14.43,14.43,0,0,0-4.09,1,21.22,21.22,0,0,0,2.61-1.8c5.25-3.89,8.84-10.06,12-15.62,7.27-12.88,15.66-27.74,17-42.66.08-.93-1.87-.35-2.16.13-5.37,8.87-10.5,17.84-19.6,23.38-5.54,3.37-12.29,4.89-18.52,6.46-7.13,1.79-14.72,2.93-22,1.26L20,265c11.66-1.48,18.43-9.69,22.77-20,2.68-6.42,4.31-13.26,6.17-19.94A109,109,0,0,1,58,202.65C66.9,186,79.7,173.1,94.83,162.13c9.55-6.91,19.87-10.91,31.41-13.09,9.69-1.83,19.47-2.38,28.9-5.47.27-.09,1-.3,1-.69.32-8.16-.13-20.28-6.65-26.18-.58-.53-2.68.33-2.08.87,5.68,5.14,6.28,15.2,6.53,22.35.12,3.54-1.52,3.37-4.57,4.15a107.56,107.56,0,0,1-11.28,2.07c-5.19.78-10.39,1.42-15.54,2.48-19.36,4-36,16-49.48,30.16a111.29,111.29,0,0,0-26,45.27c-4.29,14.91-8,37.31-26.73,39.69-.49.06-2,.94-.84,1.21,12.48,2.88,27.15-1.33,38.74-6,12-4.85,18.42-15.68,24.81-26.24l-2.16.12c-1.19,12.78-7.65,24.19-13.3,35.47-4.47,8.92-9.56,19.46-18.73,24.34-.91.48-.16,1,.53.93,22.8-2.43,42.26-11.4,61.66-23.1,8.75-5.27,19.81-11,26.34-19.11,5.45-6.77,3.5-13.14,1.38-20.91l-2.24.61c6,17,15.45,32.75,23.86,48.61,5.76,10.88,12.84,24.8,24.66,30.06.45.2,2,0,2-.68.22-7.17-1.08-14.29,1-21.3,2.15-7.34,6.61-13.86,9.53-20.9,5.14-12.39,3.79-24.38-.45-36.78l-2.24.6c5.21,12,13.5,22.31,20.94,33a187.89,187.89,0,0,0,13.64,16.84c3.95,4.46,9.77,7.32,12.56,12.77.35.69,2.1.27,2.24-.44,4.06-20.48-1.7-41.49-11.21-59.66l-2.15.74c17.63,23.73,49.6,31.79,77.77,26.83.5-.09,2-.86.85-1.21-20.76-6.23-35.93-19.61-43.89-39.87-3.77-9.58-6.22-19.57-10.8-28.83a88.11,88.11,0,0,0-15.42-21.52c-12.35-13-29-22.39-47-24.33-5.89-.63-15.46,2.13-19.86-2.74-3.19-3.53-3.4-10.21-3.75-14.62-.52-6.56-.17-13.1-1.07-19.64-.09-.68-1.52-.18-1.81,0-6.08,3.36-12.33,6.34-18.68,9.14-1.44.63-.12,1.34.87.9Z"/></g><path d="M189.49,362.18c-1.29,1.87-4.18,2.93-6.09,4,0,0-.06.06-.1.09h-.07c-17.77,8-44.14,5.34-53.39-11.71-.88-1.62-3.35-.18-2.47,1.44,10.07,18.58,38.12,21.42,57.3,12.75.06,0,.08-.07.13-.1h0c2.49-1.41,5.44-2.61,7.11-5C193,362.11,190.54,360.68,189.49,362.18Z"/></svg>