<?xml version="1.0" encoding="UTF-8" standalone="no"?>
<!-- Generator: Adobe Illustrator 16.0.4, SVG Export Plug-In . SVG Version: 6.00 Build 0)  -->

<svg
   xmlns:dc="http://purl.org/dc/elements/1.1/"
   xmlns:cc="http://creativecommons.org/ns#"
   xmlns:rdf="http://www.w3.org/1999/02/22-rdf-syntax-ns#"
   xmlns:svg="http://www.w3.org/2000/svg"
   xmlns="http://www.w3.org/2000/svg"
   xmlns:sodipodi="http://sodipodi.sourceforge.net/DTD/sodipodi-0.dtd"
   xmlns:inkscape="http://www.inkscape.org/namespaces/inkscape"
   version="1.1"
   id="Layer_1"
   x="0px"
   y="0px"
   width="600"
   height="600"
   viewBox="0 0 600 600"
   enable-background="new 0 0 288 288"
   xml:space="preserve"
   sodipodi:docname="witch-hazel.svg"
   inkscape:version="0.92.1 r15371"><metadata
     id="metadata2869"><rdf:RDF><cc:Work
         rdf:about=""><dc:format>image/svg+xml</dc:format><dc:type
           rdf:resource="http://purl.org/dc/dcmitype/StillImage" /><dc:title></dc:title></cc:Work></rdf:RDF></metadata><defs
     id="defs2867" /><sodipodi:namedview
     pagecolor="#ffffff"
     bordercolor="#666666"
     borderopacity="1"
     objecttolerance="10"
     gridtolerance="10"
     guidetolerance="10"
     inkscape:pageopacity="0"
     inkscape:pageshadow="2"
     inkscape:window-width="1368"
     inkscape:window-height="739"
     id="namedview2865"
     showgrid="false"
     inkscape:zoom="0.94316065"
     inkscape:cx="250.55661"
     inkscape:cy="271.23177"
     inkscape:window-x="0"
     inkscape:window-y="0"
     inkscape:window-maximized="1"
     inkscape:current-layer="layer1" /><g
     id="Layer_2"
     transform="translate(130.41257,287.61391)"><g
       id="g2600"><path
         d="m 47.896,181.333 c 18.729,41 43.7,48.667 75.243,66.001 10.515,6 19.058,12.666 25.63,23.332 -1.369,-2.223 9.248,-10.816 10.813,-11.877 4.378,-2.963 13.755,-10.125 18.749,-11.789 14,-4.666 20.253,-9.243 29,-17.666 5.938,-5.718 6.947,-7.107 12.669,-13.035 11.793,-12.222 24.297,-32.061 26.163,-49.254 0.838,-7.712 -1.294,-15.354 -2.537,-22.9 -1.025,-6.228 -1.869,-12.03 -5.167,-17.552 -3.303,-5.53 -7.308,-10.723 -12.147,-15.016 -10.026,-8.892 -20.896,-16.917 -34.156,-19.927 -19.889,-4.515 -41.186,-5.905 -61.46,-7.39 -16.078,-1.177 -31.06,0.696 -45.671,7.741 -5.399,2.603 -10.332,6.417 -15.1,9.984 -6.053,4.528 -13.477,9.818 -17.429,16.355 -2.114,3.499 -3.581,7.189 -5.852,10.66 -10.04,15.345 -5.969,36.523 1.252,52.333 z"
         id="path2594"
         inkscape:connector-curvature="0"
         style="fill:#995432" /><g
         id="g2598"><path
           d="m 46.931,181.592 c 9.558,20.618 23.39,36.741 42.828,48.553 20.312,12.34 44.704,19.754 58.046,40.78 0.286,0.452 2.096,-0.012 1.932,-0.518 -0.911,-2.813 5.74,-7.595 7.529,-9.119 3.105,-2.647 6.555,-4.888 9.894,-7.222 5.225,-3.653 10.292,-6.252 16.247,-8.476 4.824,-1.802 9.418,-4.124 13.708,-6.969 9.062,-6.011 16.297,-14.589 23.771,-22.368 8.838,-9.195 16.082,-20.015 21.246,-31.669 2.495,-5.631 4.229,-11.585 4.992,-17.696 0.889,-7.107 -0.947,-14.316 -2.229,-21.261 -1.238,-6.726 -2.095,-13.223 -5.467,-19.295 -3.14,-5.651 -7.461,-10.756 -12.209,-15.102 -9.855,-9.019 -21.162,-16.781 -34.275,-19.986 -14.643,-3.578 -29.881,-4.932 -44.863,-6.163 -14.977,-1.23 -30.217,-2.923 -45.057,0.382 -15.151,3.375 -26.712,10.941 -38.89,20.245 -5.287,4.039 -10.115,8.489 -13.463,14.295 -3.68,6.382 -7.784,12.963 -9.704,20.121 -3.678,13.708 0.343,28.894 5.964,41.468 0.24,0.537 2.119,-0.098 1.932,-0.518 -5.355,-11.982 -8.622,-25.188 -6.596,-38.331 0.981,-6.369 4.024,-11.417 7.118,-16.916 1.914,-3.401 3.432,-6.908 5.749,-10.08 2.509,-3.434 5.928,-6.251 9.212,-8.893 5.338,-4.294 10.92,-8.462 16.689,-12.154 8.016,-5.13 17.636,-7.893 26.955,-9.37 15.782,-2.501 32.472,-0.036 48.262,1.449 15.323,1.441 31.971,2.72 46.15,9.084 13.033,5.85 25.447,16.432 33.383,28.253 3.854,5.742 5.468,11.858 6.602,18.599 1.271,7.577 3.162,15.079 2.956,22.811 -0.374,13.973 -8.616,28.053 -16.474,39.089 -6.087,8.551 -13.651,16.179 -21.131,23.517 -8.352,8.194 -17.033,14.089 -28.109,18.035 -7.785,2.773 -14.396,8.005 -21.077,12.756 -2.622,1.863 -11.962,8.251 -10.747,12.003 0.645,-0.173 1.288,-0.345 1.932,-0.518 -12.699,-20.017 -35.359,-27.854 -55.054,-39.122 -20.795,-11.898 -35.725,-28.438 -45.818,-50.211 -0.252,-0.538 -2.125,0.107 -1.934,0.517 z"
           id="path2596"
           inkscape:connector-curvature="0"
           style="fill:#231f20" /></g></g><g
       id="g2608"><g
         id="g2606"><path
           d="M 508.333,260.334"
           id="path2602"
           inkscape:connector-curvature="0"
           style="fill:none" /><path
           d="m 507.707,260.73 c 0.408,0 2.203,-0.795 1.252,-0.795 -0.408,0.003 -2.203,0.795 -1.252,0.795 z"
           id="path2604"
           inkscape:connector-curvature="0"
           style="fill:#231f20" /></g></g></g><g
     id="Layer_6"
     display="none"
     style="display:none"
     transform="translate(0,312)"><g
       display="inline"
       id="g2617"
       style="display:inline"><g
         id="g2615"><path
           d="M 83.667,121.667 C 77,149 56.333,212.334 92.333,230.334"
           id="path2611"
           inkscape:connector-curvature="0"
           style="fill:none" /><path
           d="m 82.686,121.733 c -4.885,19.892 -10.655,39.602 -11.809,60.173 -1.056,18.82 2.709,39.66 20.904,49.1 0.824,0.428 2.206,-0.771 1.104,-1.344 -19.314,-10.02 -21.324,-33.202 -19.721,-52.577 1.565,-18.914 6.977,-37.139 11.482,-55.484 0.239,-0.97 -1.743,-0.753 -1.96,0.132 z"
           id="path2613"
           inkscape:connector-curvature="0"
           style="fill:#231f20" /></g></g><g
       display="inline"
       id="g2625"
       style="display:inline"><g
         id="g2623"><path
           d="m 103,117.667 c -8,22.667 -9.333,50.667 -6,74 1.333,10.667 6,20.667 11.333,30 4,8 14,18 15.333,27.333"
           id="path2619"
           inkscape:connector-curvature="0"
           style="fill:none" /><path
           d="m 102.04,117.808 c -7.616,22.109 -9.106,46.14 -6.622,69.283 1.362,12.688 5.703,23.778 11.95,34.835 5.057,8.95 13.429,16.952 15.333,27.333 0.103,0.562 2.045,0.101 1.932,-0.518 -1.759,-9.595 -9.156,-17.048 -14.104,-25.104 -6.387,-10.398 -11.114,-21.712 -12.782,-33.826 -3.296,-23.94 -1.679,-49.371 6.214,-72.286 0.189,-0.549 -1.722,-0.296 -1.921,0.283 z"
           id="path2621"
           inkscape:connector-curvature="0"
           style="fill:#231f20" /></g></g><g
       display="inline"
       id="g2633"
       style="display:inline"><g
         id="g2631"><path
           d="m 113.667,109 c -5.333,17.333 -3.333,40.667 -2.667,58.667 0,13.333 2.667,24.667 9.333,36.667 C 133,225 147,245 151,269.667"
           id="path2627"
           inkscape:connector-curvature="0"
           style="fill:none" /><path
           d="m 112.702,109.127 c -3.745,12.769 -3.813,26.244 -3.458,39.439 0.376,13.984 -0.015,28.589 4.055,42.086 4.22,13.992 13.821,25.934 21.017,38.469 7.32,12.752 13.211,26.248 15.719,40.805 0.107,0.629 2.05,0.167 1.932,-0.518 -2.418,-14.039 -8.004,-26.949 -14.89,-39.34 -6.83,-12.291 -15.759,-23.646 -20.79,-36.84 -4.878,-12.797 -4.385,-26.68 -4.935,-40.145 -0.602,-14.729 -0.909,-29.932 3.279,-44.212 0.192,-0.654 -1.744,-0.374 -1.929,0.256 z"
           id="path2629"
           inkscape:connector-curvature="0"
           style="fill:#231f20" /></g></g><g
       display="inline"
       id="g2641"
       style="display:inline"><g
         id="g2639"><path
           d="m 207.667,101 c 14,27.333 18,46 8,75.334 -8,22 -20,46.666 -20,70.666"
           id="path2635"
           inkscape:connector-curvature="0"
           style="fill:none" /><path
           d="m 206.701,101.259 c 5.398,10.629 10.212,21.554 12.447,33.325 2.336,12.295 0.672,24.736 -2.752,36.654 -7.338,25.527 -21.375,48.748 -21.695,76.021 -0.003,0.269 1.926,0.015 1.932,-0.518 0.326,-27.736 14.689,-51.582 22.156,-77.565 3.154,-10.977 4.217,-22.357 2.535,-33.674 -1.823,-12.262 -7.127,-23.807 -12.691,-34.761 -0.231,-0.452 -2.071,0.245 -1.932,0.518 z"
           id="path2637"
           inkscape:connector-curvature="0"
           style="fill:#231f20" /></g></g><g
       display="inline"
       id="g2649"
       style="display:inline"><g
         id="g2647"><path
           d="m 182.333,105 c -2,1.333 9.334,25.333 10.667,31.333 4,15.333 0,28 -4,42.667 -5.333,23.334 -22.667,56 -15.333,80"
           id="path2643"
           inkscape:connector-curvature="0"
           style="fill:none" /><path
           d="m 181.443,105.017 c -1.332,1.507 0.881,5.858 1.396,7.328 1.792,5.094 3.922,10.072 5.924,15.085 1.953,4.891 3.559,9.573 4.41,14.796 1.633,9.995 -0.63,20.097 -3.173,29.727 -3.922,14.855 -8.961,29.249 -13.481,43.922 -4.259,13.823 -7.901,29.088 -3.818,43.384 0.167,0.585 2.096,0.056 1.932,-0.518 -4.078,-14.282 -0.357,-29.325 3.809,-43.147 4.431,-14.697 9.479,-29.091 13.482,-43.923 3.721,-13.778 5.361,-27.401 0.229,-41.031 -1.899,-5.047 -4.016,-10.012 -5.969,-15.038 -0.611,-1.575 -4.391,-9.002 -2.961,-10.619 0.5,-0.566 -1.414,-0.378 -1.78,0.034 z"
           id="path2645"
           inkscape:connector-curvature="0"
           style="fill:#231f20" /></g></g><g
       display="inline"
       id="g2657"
       style="display:inline"><g
         id="g2655"><path
           d="m 155.667,117.667 c -2,4 6.666,24.667 7.333,33.333 0.667,15.334 0,32.667 -1.333,48.667 -2.667,27.333 -12,52 -6,80"
           id="path2651"
           inkscape:connector-curvature="0"
           style="fill:none" /><path
           d="m 154.706,117.808 c -1.062,2.812 0.342,6.592 1.043,9.321 1.315,5.127 2.992,10.16 4.42,15.257 3.831,13.675 2.249,28.919 1.529,42.937 -0.837,16.294 -3.562,32.078 -6.279,48.134 -2.62,15.474 -3.86,30.976 -0.718,46.471 0.115,0.568 2.056,0.095 1.932,-0.518 -3.251,-16.035 -1.703,-31.991 1.004,-47.978 2.621,-15.484 5.114,-30.686 5.983,-46.392 0.71,-12.842 2.306,-27.229 -0.652,-39.851 -1.202,-5.133 -2.887,-10.157 -4.356,-15.217 -0.984,-3.392 -3.319,-8.906 -1.982,-12.446 0.199,-0.534 -1.705,-0.297 -1.924,0.282 z"
           id="path2653"
           inkscape:connector-curvature="0"
           style="fill:#231f20" /></g></g></g><g
     id="Layer_7"
     transform="translate(130.41257,287.61391)"><g
       id="g2684"><g
         id="g2664"><g
           id="g2662"><path
             d="m 92.432,103.853 c -7.243,-2.56 -11.294,9.897 -13.048,14.585 -3.802,10.165 -7.291,21.933 -7.361,32.884 -0.121,18.744 7.656,36.701 17.135,52.488 10.496,17.481 24.12,32.996 38.281,47.575 0.493,0.507 2.328,-0.217 1.79,-0.771 -23.634,-24.331 -47.997,-53.01 -54.181,-87.391 -2.007,-11.156 -0.465,-21.106 2.268,-31.913 1.004,-3.97 6.889,-28.865 13.586,-26.498 0.611,0.219 2.357,-0.667 1.53,-0.959 z"
             id="path2660"
             inkscape:connector-curvature="0"
             style="fill:#66331e" /></g></g><g
         id="g2670"><g
           id="g2668"><path
             d="m 193.434,97.365 c 10.193,11.32 14.551,25.058 16.322,39.934 1.695,14.233 3.061,29.625 0.251,43.76 -2.127,10.699 -7.745,19.918 -13.269,29.148 -6.572,10.988 -11.557,22.387 -14.368,34.926 -0.147,0.658 1.789,0.342 1.926,-0.268 2.97,-13.238 8.419,-24.991 15.369,-36.567 5.487,-9.138 10.415,-18.188 12.515,-28.758 2.741,-13.794 1.014,-28.903 -0.492,-42.759 -1.621,-14.919 -6.295,-28.866 -16.453,-40.147 -0.419,-0.462 -2.256,0.227 -1.801,0.731 z"
             id="path2666"
             inkscape:connector-curvature="0"
             style="fill:#66331e" /></g></g><g
         id="g2676"><g
           id="g2674"><path
             d="m 157.262,97.581 c 12.844,7.873 16.93,20.272 17.313,34.693 0.174,6.527 -0.251,13.061 -0.278,19.587 -0.037,8.559 0.875,17.104 0.98,25.664 0.199,16.291 -3.27,32.798 -9.248,47.912 -5.471,13.826 -12.367,26.897 -16.959,41.096 -0.355,1.098 1.576,1.145 1.859,0.268 4.729,-14.617 11.823,-28.113 17.457,-42.355 6.331,-16.004 9.176,-33.403 8.793,-50.568 -0.186,-8.254 -0.994,-16.477 -0.9,-24.736 0.08,-6.951 0.479,-13.888 0.105,-20.837 -0.721,-13.437 -5.955,-24.717 -17.646,-31.883 -0.774,-0.477 -2.437,0.571 -1.476,1.159 z"
             id="path2672"
             inkscape:connector-curvature="0"
             style="fill:#66331e" /></g></g><g
         id="g2682"><g
           id="g2680"><path
             d="m 110.032,99.113 c -3.957,12.99 -3.831,26.826 -3.402,40.271 0.456,14.289 1.39,28.481 3.651,42.609 4.537,28.346 14.662,55.417 30.49,79.394 0.378,0.571 2.25,-0.076 1.79,-0.772 -15.84,-23.993 -25.623,-50.849 -30.348,-79.138 -2.267,-13.572 -3.056,-27.234 -3.593,-40.962 -0.541,-13.853 -0.732,-28.234 3.348,-41.626 0.221,-0.727 -1.728,-0.459 -1.936,0.224 z"
             id="path2678"
             inkscape:connector-curvature="0"
             style="fill:#66331e" /></g></g></g></g><g
     id="Layer_2_copy"
     transform="translate(130.41257,287.61391)"><g
       id="g2693"
       style="fill:#00ff00"><g
         id="g2691"
         style="fill:#00ff00"><path
           d="m 47.896,181.333 c 18.729,41 43.7,48.667 75.243,66.001 10.515,6 19.058,12.666 25.63,23.332 -1.369,-2.223 9.248,-10.816 10.813,-11.877 4.378,-2.963 13.755,-10.125 18.749,-11.789 14,-4.666 20.253,-9.243 29,-17.666 5.938,-5.718 6.947,-7.107 12.669,-13.035 11.793,-12.222 24.297,-32.061 26.163,-49.254 0.838,-7.712 -1.294,-15.354 -2.537,-22.9 -1.025,-6.228 -1.869,-12.03 -5.167,-17.552 -3.303,-5.53 -7.308,-10.723 -12.147,-15.016 -10.026,-8.892 -20.896,-16.917 -34.156,-19.927 -19.889,-4.515 -41.186,-5.905 -61.46,-7.39 -16.078,-1.177 -31.06,0.696 -45.671,7.741 -5.399,2.603 -10.332,6.417 -15.1,9.984 -6.053,4.528 -13.477,9.818 -17.429,16.355 -2.114,3.499 -3.581,7.189 -5.852,10.66 -10.04,15.345 -5.969,36.523 1.252,52.333 z"
           id="path2687"
           inkscape:connector-curvature="0"
           style="fill:#00ff00" /><path
           d="m 46.931,181.592 c 9.558,20.618 23.39,36.741 42.828,48.553 20.312,12.34 44.704,19.754 58.046,40.78 0.286,0.452 2.096,-0.012 1.932,-0.518 -0.911,-2.813 5.74,-7.595 7.529,-9.119 3.105,-2.647 6.555,-4.888 9.894,-7.222 5.225,-3.653 10.292,-6.252 16.247,-8.476 4.824,-1.802 9.418,-4.124 13.708,-6.969 9.062,-6.011 16.297,-14.589 23.771,-22.368 8.838,-9.195 16.082,-20.015 21.246,-31.669 2.495,-5.631 4.229,-11.585 4.992,-17.696 0.889,-7.107 -0.947,-14.316 -2.229,-21.261 -1.238,-6.726 -2.095,-13.223 -5.467,-19.295 -3.14,-5.651 -7.461,-10.756 -12.209,-15.102 -9.855,-9.019 -21.162,-16.781 -34.275,-19.986 -14.643,-3.578 -29.881,-4.932 -44.863,-6.163 -14.977,-1.23 -30.217,-2.923 -45.057,0.382 -15.151,3.375 -26.712,10.941 -38.89,20.245 -5.287,4.039 -10.115,8.489 -13.463,14.295 -3.68,6.382 -7.784,12.963 -9.704,20.121 -3.678,13.708 0.343,28.894 5.964,41.468 0.24,0.537 2.119,-0.098 1.932,-0.518 -5.355,-11.982 -8.622,-25.188 -6.596,-38.331 0.981,-6.369 4.024,-11.417 7.118,-16.916 1.914,-3.401 3.432,-6.908 5.749,-10.08 2.509,-3.434 5.928,-6.251 9.212,-8.893 5.338,-4.294 10.92,-8.462 16.689,-12.154 8.016,-5.13 17.636,-7.893 26.955,-9.37 15.782,-2.501 32.472,-0.036 48.262,1.449 15.323,1.441 31.971,2.72 46.15,9.084 13.033,5.85 25.447,16.432 33.383,28.253 3.854,5.742 5.468,11.858 6.602,18.599 1.271,7.577 3.162,15.079 2.956,22.811 -0.374,13.973 -8.616,28.053 -16.474,39.089 -6.087,8.551 -13.651,16.179 -21.131,23.517 -8.352,8.194 -17.033,14.089 -28.109,18.035 -7.785,2.773 -14.396,8.005 -21.077,12.756 -2.622,1.863 -11.962,8.251 -10.747,12.003 0.645,-0.173 1.288,-0.345 1.932,-0.518 -12.699,-20.017 -35.359,-27.854 -55.054,-39.122 -20.795,-11.898 -35.725,-28.438 -45.818,-50.211 -0.252,-0.538 -2.125,0.107 -1.934,0.517 z"
           id="path2689"
           inkscape:connector-curvature="0"
           style="fill:#00ff00" /></g></g><g
       id="g2701"><g
         id="g2699"><path
           d="M 508.333,260.334"
           id="path2695"
           inkscape:connector-curvature="0"
           style="fill:none" /><path
           d="m 507.707,260.73 c 0.408,0 2.203,-0.795 1.252,-0.795 -0.408,0.003 -2.203,0.795 -1.252,0.795 z"
           id="path2697"
           inkscape:connector-curvature="0"
           style="fill:#231f20" /></g></g></g><g
     id="Layer_5"
     display="none"
     style="display:none"
     transform="translate(0,312)"><g
       display="inline"
       id="g2710"
       style="display:inline"><g
         id="g2708"><path
           d="m 63,114 c -9,17.667 9,64 18.667,79 10.667,17.334 29.333,27.668 44,41.334 7,6.667 19.333,17 20.667,27"
           id="path2704"
           inkscape:connector-curvature="0"
           style="fill:none" /><path
           d="m 62.043,114.156 c -5.222,10.904 -1.745,25.157 1.105,36.213 3.443,13.354 8.507,26.592 15.09,38.719 7.875,14.508 20.692,24.551 33.426,34.59 6.557,5.17 12.766,10.646 18.832,16.379 6.221,5.881 13.324,12.76 14.871,21.536 0.085,0.481 2.029,0.034 1.932,-0.518 -1.316,-7.474 -6.721,-13.403 -11.854,-18.646 -5.741,-5.861 -11.927,-11.356 -18.298,-16.519 C 103.569,214.911 89.413,204.847 80.6,189.339 74.06,177.833 69.37,165.054 65.762,152.359 c -3.281,-11.545 -7.297,-27.046 -1.804,-38.516 0.185,-0.387 -1.663,-0.213 -1.915,0.313 z"
           id="path2706"
           inkscape:connector-curvature="0"
           style="fill:#231f20" /></g></g><g
       display="inline"
       id="g2718"
       style="display:inline"><g
         id="g2716"><path
           d="m 97.667,110 c 7.667,16.667 -2.667,44 3.667,61.667 4,11.667 12,20.999 20.333,30.333 11.667,13.666 23.667,32.667 25.667,51.667"
           id="path2712"
           inkscape:connector-curvature="0"
           style="fill:none" /><path
           d="m 96.701,110.258 c 4.865,11.324 2.708,24.432 1.876,36.34 -0.827,11.821 -0.268,22.379 5.176,33.113 6.313,12.448 17.119,21.938 25.185,33.178 8.716,12.145 15.625,26.065 17.429,41.036 0.107,0.888 2.044,0.41 1.932,-0.518 -1.693,-14.042 -7.902,-26.847 -15.63,-38.526 -7.728,-11.679 -18.241,-21.156 -25.536,-33.137 -7.364,-12.094 -7.384,-24.653 -6.382,-38.326 0.812,-11.085 2.404,-23.153 -2.118,-33.679 -0.37,-0.857 -2.285,-0.301 -1.932,0.519 z"
           id="path2714"
           inkscape:connector-curvature="0"
           style="fill:#231f20" /></g></g><g
       display="inline"
       id="g2726"
       style="display:inline"><g
         id="g2724"><path
           d="M 126.333,112 C 125,124.333 125.62,144.611 123,156.667 116.333,187.333 140.333,199 149.667,237"
           id="path2720"
           inkscape:connector-curvature="0"
           style="fill:none" /><path
           d="m 125.357,112.081 c -1.239,12.251 -0.904,24.604 -2.139,36.86 -1.022,10.143 -3.474,19.021 -0.873,29.185 2.268,8.862 7.35,16.854 11.831,24.722 6.231,10.938 11.42,22.174 14.525,34.412 0.22,0.865 2.152,0.352 1.932,-0.518 -2.816,-11.1 -7.316,-21.432 -12.83,-31.436 -4.791,-8.692 -10.304,-17.09 -13.231,-26.654 -3.137,-10.246 -0.559,-19.611 0.601,-29.872 1.383,-12.239 0.9,-24.609 2.138,-36.86 0.097,-0.969 -1.869,-0.681 -1.954,0.161 z"
           id="path2722"
           inkscape:connector-curvature="0"
           style="fill:#231f20" /></g></g><g
       display="inline"
       id="g2734"
       style="display:inline"><g
         id="g2732"><path
           d="m 186.667,107.333 c 15,14 16.666,31.667 14.333,62 -0.873,11.347 -2.363,28.478 -8.333,38.001 -5.728,9.137 -4.334,12 -17.334,19.666 -3.369,1.986 -7.442,6.78 -10,9.667 -7.61,8.593 -15.819,15.828 -16,27.667"
           id="path2728"
           inkscape:connector-curvature="0"
           style="fill:none" /><path
           d="m 185.757,107.663 c 10.084,9.627 14.022,21.839 14.933,35.484 1.121,16.859 -0.23,35.405 -4.116,51.851 -1.607,6.8 -4.954,12.263 -8.155,18.354 -3.551,6.76 -8.555,10.159 -14.854,14.293 -6.248,4.101 -11.416,11.476 -16.273,17.075 -5,5.765 -8.562,12.13 -8.922,19.873 -0.014,0.296 1.904,0.056 1.932,-0.518 0.461,-9.948 6.352,-16.97 12.784,-24.024 2.615,-2.867 5.144,-5.814 7.82,-8.625 3.399,-3.57 7.709,-5.738 11.614,-8.66 4.123,-3.084 6.364,-7.054 8.731,-11.504 3.699,-6.955 6.604,-13.117 8.175,-20.941 3.17,-15.777 4.174,-32.992 3.106,-49.025 -0.877,-13.178 -5.308,-25.081 -14.954,-34.292 -0.371,-0.354 -2.125,0.369 -1.821,0.659 z"
           id="path2730"
           inkscape:connector-curvature="0"
           style="fill:#231f20" /></g></g><g
       display="inline"
       id="g2742"
       style="display:inline"><g
         id="g2740"><path
           d="m 199.961,107.536 c 12.083,5.183 15.605,11.713 19.98,24.544 8.726,25.587 9.002,58.285 -9.274,78.92 -20.667,23.334 -45,25.334 -57.667,51.667"
           id="path2736"
           inkscape:connector-curvature="0"
           style="fill:none" /><path
           d="m 199.2,108.032 c 6.291,2.798 11.325,6.554 14.86,12.526 4.059,6.857 6.268,15.227 8.062,22.921 3.864,16.576 3.803,34.464 -2.167,50.523 -12.221,32.872 -52.749,38.24 -67.863,68.615 -0.441,0.889 1.502,0.727 1.814,0.1 8.102,-16.281 22.691,-24.55 37.242,-34.261 14.107,-9.416 26.065,-21.063 31.715,-37.366 5.475,-15.793 4.603,-33.498 0.857,-49.556 -1.736,-7.445 -4.189,-15.042 -7.875,-21.763 -3.357,-6.121 -8.879,-9.954 -15.125,-12.732 -0.629,-0.281 -2.381,0.61 -1.52,0.993 z"
           id="path2738"
           inkscape:connector-curvature="0"
           style="fill:#231f20" /></g></g><g
       display="inline"
       id="g2750"
       style="display:inline"><g
         id="g2748"><path
           d="m 152,246.667 c 1.667,-4 2.667,-9 5.333,-12.667 3.667,-6 9.334,-10.333 13,-16.666 5,-8.667 6.334,-19 7.667,-28.667 2.667,-23 -7.667,-44 -11.667,-66"
           id="path2744"
           inkscape:connector-curvature="0"
           style="fill:none" /><path
           d="m 152.955,246.505 c 1.682,-4.302 2.777,-8.765 5.333,-12.667 3.247,-4.962 7.551,-9.042 11.104,-13.768 6.387,-8.497 7.916,-19.726 9.34,-29.949 3.252,-23.354 -7.174,-45.227 -11.434,-67.713 -0.085,-0.449 -2.029,0.005 -1.932,0.518 4.244,22.412 14.662,44.245 11.455,67.521 -1.51,10.955 -3.372,22.004 -10.176,31.056 -2.947,3.921 -6.52,7.312 -9.39,11.304 -3.075,4.277 -4.323,9.19 -6.213,14.023 -0.149,0.395 1.712,0.19 1.913,-0.325 z"
           id="path2746"
           inkscape:connector-curvature="0"
           style="fill:#231f20" /></g></g></g><g
     id="Layer_1_1_"
     display="none"
     style="display:none"
     transform="translate(0,312)"><g
       display="inline"
       id="g2843"
       style="display:inline"><g
         id="g2761"><path
           d="m 136.529,14.191 c 1.027,1.417 3.597,16.521 2.569,21.24 -2.569,10.856 -13.43,9.234 -25.097,12.568 -18.271,5.22 -38.668,16.646 -51,30.333 -11.818,12.743 -20.667,33 -24.1,47.721 -1.342,5.756 -9.763,8.967 -14.901,11.8"
           id="path2753"
           inkscape:connector-curvature="0"
           style="fill:#00a551" /><g
           id="g2759"><path
             d="m 136.529,14.191 c 1.027,1.417 3.597,16.521 2.569,21.24 -2.569,10.856 -13.43,9.234 -25.097,12.568 -18.271,5.22 -38.668,16.646 -51,30.333 -11.818,12.743 -20.667,33 -24.1,47.721 -1.342,5.756 -9.763,8.967 -14.901,11.8"
             id="path2755"
             inkscape:connector-curvature="0"
             style="fill:none" /><path
             d="m 135.563,14.45 c 2.209,4.043 2.266,10.251 2.652,14.724 0.268,3.1 0.24,5.953 -0.881,8.892 -2.066,5.413 -8.313,6.556 -13.337,7.491 -15.612,2.906 -30.067,8.898 -43.44,17.478 -14.021,8.996 -24.583,21.067 -32.292,35.765 -3.729,7.11 -6.68,14.642 -8.976,22.329 -1.098,3.677 -1.44,6.876 -4.279,9.713 -3.14,3.137 -7.714,4.816 -11.567,6.883 -1.128,0.605 0.662,0.499 1.113,0.256 5.133,-2.753 11.155,-4.997 14.482,-10.055 1.944,-2.956 2.317,-7.795 3.414,-11.162 1.404,-4.309 3.122,-8.51 4.973,-12.644 8.126,-18.147 20.562,-32.316 37.433,-42.812 9.065,-5.64 18.988,-10.002 29.223,-13.011 6.348,-1.866 13.879,-1.671 19.763,-4.971 4.809,-2.696 6.557,-7.118 6.433,-12.458 -0.116,-5.004 -0.318,-12.428 -2.782,-16.937 -0.263,-0.479 -2.09,0.23 -1.932,0.519 z"
             id="path2757"
             inkscape:connector-curvature="0"
             style="fill:#231f20" /></g></g><g
         id="g2771"><path
           d="m 78.466,113.31 c -5.652,10.383 -15.415,17.936 -27.233,22.183 -6.68,2.36 -18.565,8.318 -27.899,3.173"
           id="path2763"
           inkscape:connector-curvature="0"
           style="fill:#00a551" /><g
           id="g2769"><path
             d="m 78.466,113.31 c -5.652,10.383 -15.415,17.936 -27.233,22.183 -6.68,2.36 -18.565,8.318 -27.899,3.173"
             id="path2765"
             inkscape:connector-curvature="0"
             style="fill:none" /><path
             d="m 77.554,113.242 c -5.161,9.099 -12.971,15.629 -22.396,20.016 -9.098,4.234 -21.382,9.608 -31.069,4.894 -0.662,-0.322 -2.402,0.597 -1.512,1.03 10.16,4.945 20.809,-0.115 30.528,-3.748 11.005,-4.113 20.47,-11.824 26.272,-22.055 0.502,-0.884 -1.456,-0.785 -1.823,-0.137 z"
             id="path2767"
             inkscape:connector-curvature="0"
             style="fill:#231f20" /></g></g><g
         id="g2781"><path
           d="m 150.218,9.212 c -2.344,4.965 1.192,17.798 2.113,23.361 1.719,10.379 10.672,5.771 19.002,6.142 9.993,0.444 21.226,8.074 27.765,14.712 8.008,8.131 15.82,17.116 21.994,26.662 6.699,10.356 10.24,21.509 15.493,32.437 4.279,8.896 17.535,23.594 28.915,23.724"
           id="path2773"
           inkscape:connector-curvature="0"
           style="fill:#00a551" /><g
           id="g2779"><path
             d="m 150.218,9.212 c -2.344,4.965 1.192,17.798 2.113,23.361 1.719,10.379 10.672,5.771 19.002,6.142 9.993,0.444 21.226,8.074 27.765,14.712 8.008,8.131 15.82,17.116 21.994,26.662 6.699,10.356 10.24,21.509 15.493,32.437 4.279,8.896 17.535,23.594 28.915,23.724"
             id="path2775"
             inkscape:connector-curvature="0"
             style="fill:none" /><path
             d="m 149.264,9.374 c -2.145,5.57 -0.086,12.574 1.053,18.16 0.933,4.567 1.139,11.318 6.973,12.115 2.574,0.352 5.113,0.07 7.686,-0.204 5.014,-0.534 9.53,-0.088 14.301,1.611 9.007,3.208 16.233,9.829 22.688,16.624 7.504,7.9 14.488,16.431 20.084,25.798 5.214,8.726 8.573,18.456 12.798,27.667 5.166,11.264 16.782,24.819 30.036,25.523 0.44,0.023 2.226,-0.783 1.24,-0.835 -15.322,-0.814 -26.09,-17.657 -31.556,-30.141 -3.854,-8.808 -7.364,-17.694 -12.508,-25.861 -4.869,-7.735 -10.86,-14.782 -17.033,-21.494 -9.938,-10.806 -22.486,-21.213 -38.053,-19.846 -3.527,0.31 -7.399,1.25 -10.67,-0.563 -2.845,-1.577 -3.003,-5.759 -3.566,-8.556 -1.24,-6.153 -3.922,-14.187 -1.562,-20.321 0.153,-0.404 -1.713,-0.194 -1.911,0.323 z"
             id="path2777"
             inkscape:connector-curvature="0"
             style="fill:#231f20" /></g></g><g
         id="g2791"><path
           d="M 137.331,14.001 C 142.469,12.114 145.264,10.888 150.402,9"
           id="path2783"
           inkscape:connector-curvature="0"
           style="fill:#00a551" /><g
           id="g2789"><path
             d="M 137.331,14.001 C 142.469,12.114 145.264,10.888 150.402,9"
             id="path2785"
             inkscape:connector-curvature="0"
             style="fill:none" /><path
             d="m 137.748,14.529 c 4.376,-1.618 8.695,-3.383 13.072,-5.001 1.248,-0.462 0.135,-1.414 -0.834,-1.056 -4.377,1.618 -8.695,3.383 -13.071,5.001 -1.25,0.462 -0.135,1.414 0.833,1.056 z"
             id="path2787"
             inkscape:connector-curvature="0"
             style="fill:#231f20" /></g></g><g
         id="g2801"><path
           d="m 204.868,117.558 c 10.79,16.047 42.298,26.19 60.796,19.11"
           id="path2793"
           inkscape:connector-curvature="0"
           style="fill:#00a551" /><g
           id="g2799"><path
             d="m 204.868,117.558 c 10.79,16.047 42.298,26.19 60.796,19.11"
             id="path2795"
             inkscape:connector-curvature="0"
             style="fill:none" /><path
             d="m 203.986,117.994 c 12.307,17.558 41.748,26.637 61.865,19.375 1.15,-0.416 0.803,-1.829 -0.377,-1.403 -19.402,7.004 -47.861,-1.917 -59.726,-18.844 -0.531,-0.761 -2.361,0.015 -1.762,0.872 z"
             id="path2797"
             inkscape:connector-curvature="0"
             style="fill:#231f20" /></g></g><g
         id="g2811"><path
           d="m 214.117,165.229 c 2.55,-17.229 -2.783,-34.562 -9.249,-47.67"
           id="path2803"
           inkscape:connector-curvature="0"
           style="fill:#00a551" /><g
           id="g2809"><path
             d="m 214.117,165.229 c 2.55,-17.229 -2.783,-34.562 -9.249,-47.67"
             id="path2805"
             inkscape:connector-curvature="0"
             style="fill:none" /><path
             d="m 215.096,165.15 c 2.188,-16.6 -2.043,-32.952 -9.262,-47.853 -0.4,-0.826 -2.307,-0.255 -1.932,0.518 7.166,14.792 11.412,30.995 9.236,47.491 -0.124,0.967 1.844,0.694 1.958,-0.156 z"
             id="path2807"
             inkscape:connector-curvature="0"
             style="fill:#231f20" /></g></g><g
         id="g2821"><path
           d="m 214.117,165.229 c -21.066,-9.44 -21.262,-36.231 -40.124,-53.504"
           id="path2813"
           inkscape:connector-curvature="0"
           style="fill:#00a551" /><g
           id="g2819"><path
             d="m 214.117,165.229 c -21.066,-9.44 -21.262,-36.231 -40.124,-53.504"
             id="path2815"
             inkscape:connector-curvature="0"
             style="fill:none" /><path
             d="m 214.898,164.811 c -10.597,-5.01 -16.237,-14.717 -21.285,-24.818 -5.166,-10.345 -10.184,-20.574 -18.717,-28.621 -0.426,-0.402 -2.219,0.317 -1.809,0.704 9.118,8.598 14.198,19.75 19.758,30.75 4.791,9.479 10.609,18.151 20.488,22.821 0.479,0.226 2.263,-0.508 1.565,-0.836 z"
             id="path2817"
             inkscape:connector-curvature="0"
             style="fill:#231f20" /></g></g><g
         id="g2831"><path
           d="m 173.993,111.723 c 3.341,8.609 2.62,15.172 2.841,21.777 0.333,10.001 -4.445,11.559 -6.5,18.165 -3.084,10.385 -8,12 -7.646,23.306 -15.021,-13.306 -29.143,-35.61 -37.021,-60.639"
           id="path2823"
           inkscape:connector-curvature="0"
           style="fill:#00a551" /><g
           id="g2829"><path
             d="m 173.993,111.723 c 3.341,8.609 2.62,15.172 2.841,21.777 0.333,10.001 -4.445,11.559 -6.5,18.165 -3.084,10.385 -8,12 -7.646,23.306 -15.021,-13.306 -29.143,-35.61 -37.021,-60.639"
             id="path2825"
             inkscape:connector-curvature="0"
             style="fill:none" /><path
             d="m 173.027,111.982 c 3.899,10.794 4.992,24.832 -1.276,34.788 -2.673,4.246 -3.748,9.262 -6.119,13.691 -2.563,4.791 -3.954,9.102 -3.911,14.624 0.621,-0.167 1.242,-0.333 1.863,-0.499 -17.754,-15.988 -29.71,-37.97 -36.951,-60.513 -0.229,-0.711 -2.152,-0.168 -1.932,0.518 7.262,22.609 19.286,44.729 37.092,60.765 0.381,0.345 1.868,0.176 1.863,-0.498 -0.045,-5.855 1.607,-10.269 4.335,-15.361 2.516,-4.701 3.754,-9.801 6.622,-14.331 2.941,-4.647 3.201,-9.22 3.137,-14.612 -0.077,-6.616 -0.518,-12.797 -2.791,-19.087 -0.257,-0.713 -2.173,-0.152 -1.932,0.515 z"
             id="path2827"
             inkscape:connector-curvature="0"
             style="fill:#231f20" /></g></g><g
         id="g2841"><path
           d="m 80.668,110.666 c -2.667,2 -4,7 -5.667,10 -2.667,5.333 -5,10.667 -7.667,16 -3,5.333 -4,11.667 -7.667,16.667 -3.333,5 -8.333,9 -11.333,14.333 7.333,-2.333 15,-1.667 22.333,-3.667 8.333,-2.333 15.333,-5 22.667,-9.666 11.333,-7 35.667,-24.333 31.333,-40.333"
           id="path2833"
           inkscape:connector-curvature="0"
           style="fill:#00a551" /><g
           id="g2839"><path
             d="m 80.668,110.666 c -2.667,2 -4,7 -5.667,10 -2.667,5.333 -5,10.667 -7.667,16 -3,5.333 -4,11.667 -7.667,16.667 -3.333,5 -8.333,9 -11.333,14.333 7.333,-2.333 15,-1.667 22.333,-3.667 8.333,-2.333 15.333,-5 22.667,-9.666 11.333,-7 35.667,-24.333 31.333,-40.333"
             id="path2835"
             inkscape:connector-curvature="0"
             style="fill:none" /><path
             d="m 79.892,110.502 c -2.961,2.711 -4.012,6.658 -5.792,10.14 -2.945,5.761 -5.441,11.742 -8.438,17.478 -2.603,4.981 -3.718,10.463 -6.895,15.188 -3.417,5.086 -8.137,9.074 -11.333,14.334 -0.375,0.617 0.713,0.605 1.032,0.516 5.549,-1.596 11.257,-1.842 16.95,-2.588 4.662,-0.61 9.164,-2.127 13.586,-3.672 8.318,-2.905 15.814,-7.539 22.96,-12.618 10.6,-7.533 27.133,-20.557 23.671,-35.539 -0.157,-0.682 -2.094,-0.184 -1.932,0.518 3.45,14.933 -13.395,27.649 -23.926,35.134 -6.713,4.771 -13.8,8.834 -21.542,11.696 -9.825,3.632 -20.104,3.234 -30.032,6.086 0.344,0.173 0.688,0.345 1.032,0.517 2.617,-4.307 6.158,-7.844 9.372,-11.691 3.337,-3.995 5.194,-8.532 6.99,-13.349 2.347,-6.294 5.685,-12.333 8.568,-18.404 2.034,-4.281 3.764,-10.198 7.278,-13.416 0.835,-0.764 -1.078,-0.761 -1.549,-0.33 z"
             id="path2837"
             inkscape:connector-curvature="0"
             style="fill:#231f20" /></g></g></g></g><ellipse
     stroke-miterlimit="10"
     cx="231.63457"
     cy="452.85391"
     rx="31.278"
     ry="36.259998"
     id="ellipse2846"
     style="fill:#ffffff;stroke:#000000;stroke-width:2;stroke-miterlimit:10" /><ellipse
     stroke-miterlimit="10"
     cx="320.63556"
     cy="452.85391"
     rx="31.277"
     ry="36.259998"
     id="ellipse2848"
     style="fill:#ffffff;stroke:#000000;stroke-width:2;stroke-miterlimit:10" /><g
     id="Layer_4"
     transform="translate(130.41257,287.61391)"
     style="fill:#000000"><g
       id="g2856"
       style="fill:#000000"><path
         d="m 132.667,14.333 c 5.333,-2.333 11,-5 16.333,-8 1.333,8.333 0,16.333 2,24.333 2.333,10.334 8,7.334 16.667,7.667 23,0.667 45.333,18.333 55.666,38 7,12.667 8.334,27.667 17,39.667 7.667,11 18.667,17.667 31.334,21.333 -23.334,4.333 -51.667,-2.667 -66.334,-23 8,15 13.334,34.333 9.667,51.333 -1.667,-4 -8.667,-8.333 -11.667,-12 -3.666,-4.333 -8,-8.667 -11,-13.667 -6,-8.667 -14,-18.667 -18,-28.333 4.334,12.333 5,21 -0.333,33.333 -2.667,6 -6.333,11.667 -8,18 -1.333,5.666 0,11 -0.333,16.666 -10,-4 -19,-21.666 -23.667,-30.666 -6,-12 -13.667,-24.333 -18,-37 2.333,8.667 4.333,13 -3.333,20 -7.333,6.333 -16.333,11.667 -24.667,16.667 -14.667,9.334 -31,15.334 -48,17 7.667,-3.666 13.333,-15 17,-22.333 4.333,-9 10.333,-19.333 11,-29.667 -6.667,11 -11,19 -23.667,23.333 -8.333,2.667 -21,6.333 -29.667,4 20,-2 21,-29.333 27,-43.333 8.333,-19.333 19.667,-33.333 36.667,-45 9,-6.667 17,-9.667 28,-11.667 8,-1.333 17,-2 24.667,-4.667 0.333,-6 -1,-18.667 -5.667,-22.333"
         id="path2850"
         inkscape:connector-curvature="0"
         style="fill:#000000" /><g
         id="g2854"
         style="fill:#000000"><path
           d="m 133.046,14.722 c 5.63,-2.484 11.165,-5.131 16.552,-8.11 -0.521,-0.007 -1.041,-0.014 -1.562,-0.021 1.263,9.204 -0.489,19.246 3.203,27.994 1.835,4.349 6.298,4.545 10.376,4.392 18.809,-0.708 35.288,7.557 48.372,20.753 6.502,6.557 11.599,14.398 15.258,22.853 3.744,8.652 5.812,17.909 9.846,26.457 7,14.837 20.635,24.204 35.985,28.812 0.241,-0.349 0.483,-0.697 0.727,-1.046 -23.854,4.195 -50.672,-2.799 -65.569,-22.849 -0.346,-0.463 -2.148,0.091 -1.863,0.635 8.152,15.587 13.156,33.618 9.668,51.197 0.645,-0.127 1.287,-0.255 1.931,-0.382 -1.819,-3.556 -5.133,-6.013 -8.102,-8.572 -4.339,-3.741 -8.062,-8.409 -11.628,-12.873 -3.856,-4.828 -7.215,-10.216 -10.781,-15.271 -3.862,-5.474 -7.486,-11.122 -10.156,-17.283 -0.279,-0.644 -2.148,-0.12 -1.932,0.518 3.938,11.524 4.39,21.821 -0.332,33.198 -2.303,5.548 -5.51,10.594 -7.498,16.289 -2.055,5.884 -0.657,12.312 -0.835,18.377 0.577,-0.195 1.155,-0.392 1.733,-0.586 -10.644,-4.734 -16.887,-17.894 -21.997,-27.626 -6.843,-13.032 -14.551,-25.92 -19.474,-39.836 -0.232,-0.657 -2.112,-0.143 -1.932,0.518 1.417,5.183 3.342,10.33 0.516,15.376 -3.498,6.247 -11.863,10.635 -17.677,14.359 -13.024,8.344 -26.267,15.94 -41.26,20.123 -3.744,1.044 -7.564,1.786 -11.4,2.394 -1.263,0.199 -2.638,0.385 -3.534,0.86 0.761,-0.404 1.569,-1.049 2.257,-1.56 4.521,-3.348 7.622,-8.672 10.33,-13.47 6.272,-11.113 13.509,-23.932 14.7,-36.8 0.074,-0.805 -1.616,-0.303 -1.864,0.107 -4.627,7.652 -9.06,15.392 -16.907,20.167 -4.777,2.907 -10.6,4.226 -15.974,5.574 -6.152,1.543 -12.702,2.529 -18.961,1.088 -0.243,0.349 -0.485,0.697 -0.728,1.046 10.061,-1.277 15.901,-8.357 19.642,-17.299 2.316,-5.536 3.722,-11.435 5.324,-17.203 1.883,-6.779 4.542,-13.034 7.859,-19.254 7.649,-14.341 18.69,-25.491 31.749,-34.951 8.234,-5.965 17.142,-9.411 27.093,-11.293 8.356,-1.58 16.793,-2.056 24.928,-4.718 0.234,-0.077 0.825,-0.266 0.838,-0.599 0.282,-7.042 -0.112,-17.494 -5.734,-22.586 -0.5,-0.453 -2.31,0.285 -1.795,0.752 4.9,4.438 5.421,13.113 5.634,19.282 0.105,3.056 -1.313,2.904 -3.939,3.582 -3.192,0.823 -6.476,1.297 -9.733,1.783 -4.481,0.669 -8.965,1.226 -13.406,2.135 C 94.295,44.576 79.897,55.01 68.309,67.18 57.954,78.056 50.014,91.808 45.86,106.235 c -3.703,12.86 -6.855,32.181 -23.059,34.238 -0.42,0.053 -1.752,0.81 -0.728,1.046 10.772,2.479 23.425,-1.148 33.42,-5.194 10.341,-4.187 15.895,-13.53 21.405,-22.642 -0.621,0.036 -1.243,0.071 -1.864,0.107 -1.02,11.023 -6.6,20.871 -11.47,30.6 -3.853,7.697 -8.244,16.79 -16.162,20.997 -0.78,0.414 -0.134,0.87 0.463,0.807 19.663,-2.096 36.455,-9.836 53.193,-19.93 7.548,-4.551 17.084,-9.517 22.717,-16.492 4.709,-5.833 3.021,-11.334 1.19,-18.031 -0.644,0.172 -1.288,0.345 -1.932,0.518 5.175,14.632 13.331,28.259 20.583,41.938 4.975,9.385 11.084,21.396 21.28,25.933 0.389,0.173 1.717,0.021 1.734,-0.586 0.184,-6.187 -0.938,-12.331 0.835,-18.378 1.854,-6.327 5.699,-11.954 8.22,-18.026 4.438,-10.689 3.27,-21.034 -0.388,-31.731 -0.644,0.172 -1.288,0.345 -1.932,0.518 4.493,10.373 11.642,19.244 18.067,28.45 3.594,5.148 7.598,9.821 11.76,14.523 3.408,3.852 8.431,6.317 10.84,11.025 0.303,0.592 1.81,0.231 1.931,-0.382 3.507,-17.667 -1.468,-35.794 -9.666,-51.469 -0.621,0.211 -1.241,0.423 -1.862,0.635 15.213,20.474 42.793,27.424 67.098,23.151 0.431,-0.076 1.736,-0.743 0.727,-1.046 -17.906,-5.375 -30.994,-16.916 -37.863,-34.392 -3.248,-8.264 -5.36,-16.886 -9.313,-24.876 -3.397,-6.867 -8.028,-13.037 -13.301,-18.566 -10.657,-11.177 -25.065,-19.315 -40.526,-20.983 -5.079,-0.548 -13.336,1.836 -17.128,-2.367 -2.75,-3.048 -2.931,-8.809 -3.235,-12.616 -0.453,-5.656 -0.151,-11.298 -0.926,-16.939 -0.08,-0.583 -1.312,-0.159 -1.562,-0.021 -5.243,2.899 -10.636,5.473 -16.115,7.89 -1.238,0.544 -0.104,1.158 0.755,0.778 z"
           id="path2852"
           inkscape:connector-curvature="0"
           style="fill:#000000" /></g></g></g><g
     id="Layer_3"
     display="none"
     style="display:none"
     transform="translate(0,312)" /><circle
     stroke-miterlimit="10"
     cx="216.58456"
     cy="472.25693"
     r="9.4770002"
     id="circle2860"
     style="stroke:#000000;stroke-width:2;stroke-miterlimit:10;fill:#800080" /><circle
     stroke-miterlimit="10"
     cx="306.62555"
     cy="472.38992"
     r="9.4770002"
     id="circle2862"
     style="stroke:#000000;stroke-width:2;stroke-miterlimit:10;fill:#800080" /><g
     inkscape:groupmode="layer"
     id="layer1"
     inkscape:label="Layer 1"><path
       style="fill:#800080;fill-opacity:1;stroke:#0c320a;stroke-width:0;stroke-linecap:round;stroke-linejoin:round;stroke-miterlimit:4;stroke-dasharray:none;stroke-opacity:1"
       id="path979"
       d="m 67.412508,406.37895 c 7.613482,-5.57528 15.93579,-9.94694 24.737685,-13.19935 6.962457,-2.57588 14.243817,-4.05993 21.463877,-5.70334 7.71048,-1.68524 15.49286,-3.00635 23.21355,-4.6372 7.53555,-1.53161 15.14653,-2.61099 22.74941,-3.74086 8.28296,-1.09491 16.61397,-1.75482 24.92739,-2.56498 10.37325,-0.79759 20.77242,-1.27484 31.16847,-1.6725 13.33614,-0.43245 26.68033,-0.50817 40.02192,-0.6386 10.76916,-0.12027 21.5389,-0.1174 32.30852,-0.10477 10.71719,0.0662 21.43859,-0.12115 32.15263,0.1651 10.42012,0.15647 20.80771,0.9375 31.1908,1.76341 9.85329,0.69299 19.67,1.95475 29.44717,3.35201 6.85541,0.91431 13.67572,2.03243 20.39551,3.67408 5.85051,1.58535 11.75188,2.97691 17.5903,4.60971 3.32571,0.78853 6.60991,1.68998 9.91153,2.56273 2.29611,0.71694 4.50056,1.65973 6.84996,2.19859 1.50137,0.21934 2.96477,0.66647 4.37586,1.21419 0,0 -12.9324,8.74563 -12.9324,8.74563 v 0 c -1.41541,-0.43921 -2.84779,-0.80453 -4.29871,-1.10876 -2.31896,-0.66682 -4.5502,-1.59533 -6.88043,-2.2295 -3.17553,-0.9928 -6.3794,-1.86304 -9.57722,-2.78329 -5.78472,-1.66319 -11.62421,-3.10991 -17.44671,-4.63092 -6.63426,-1.54321 -13.3411,-2.69866 -20.07163,-3.74112 -9.69667,-1.48241 -19.44089,-2.75313 -29.23364,-3.38249 -10.34309,-0.82696 -20.69401,-1.55168 -31.0722,-1.74799 -10.72475,-0.21506 -21.45109,-0.0624 -32.17736,-0.10595 -10.69495,0.004 -21.38978,-0.0121 -32.08469,-0.0478 -13.34219,0.009 -26.68771,0.11258 -40.01888,0.70491 -10.51655,0.52221 -21.03775,1.09471 -31.52624,2.02988 -8.31863,0.78581 -16.65098,1.48408 -24.92641,2.66139 -7.60492,1.13913 -15.20849,2.2941 -22.74409,3.84024 -7.70717,1.55265 -15.45182,2.91591 -23.12975,4.61564 -7.267924,1.68793 -14.583302,3.29153 -21.547265,6.03159 -2.197332,0.86855 -3.310273,1.26276 -5.412763,2.2645 -0.714435,0.3404 -2.789743,1.49357 -2.11015,1.08806 20.348229,-12.14181 13.647619,-8.10673 9.312614,-5.29902 0,0 -14.626658,5.81681 -14.626658,5.81681 z"
       inkscape:connector-curvature="0" /><path
       style="fill:#800080;fill-rule:evenodd;stroke:none;stroke-width:1px;stroke-linecap:butt;stroke-linejoin:miter;stroke-opacity:1;fill-opacity:1"
       d="m 176.00395,379.46493 c 1.29687,-3.18742 1.06026,-6.24228 1.06026,-9.54238 0,-0.35342 -0.2499,-0.81036 0,-1.06027 0.24991,-0.2499 0.81036,0.24991 1.06027,0 0.048,-0.048 0,-4.80141 0,-5.30132 0,-0.35342 -0.24991,-0.81036 0,-1.06027 0.24991,-0.2499 0.81036,0.24991 1.06026,0 0.37218,-0.37217 -0.36618,-4.56896 0,-5.30132 0.22353,-0.44705 0.83675,-0.61322 1.06027,-1.06026 0.13707,-0.27414 0,-5.61008 0,-6.36159 0,-0.35342 -0.15806,-0.74416 0,-1.06027 0.22352,-0.44704 0.83674,-0.61322 1.06026,-1.06026 0.15806,-0.31611 0,-0.70685 0,-1.06027 0,-1.76711 0,-3.53421 0,-5.30132 0,-0.35342 0,-0.70684 0,-1.06027 0,-0.35342 -0.15805,-0.74415 0,-1.06026 0.22353,-0.44705 0.83675,-0.61322 1.06027,-1.06027 0.13706,-0.27413 0,-5.61007 0,-6.36158 0,-0.35343 0,-0.70685 0,-1.06027 0,-0.35342 -0.24991,-0.81036 0,-1.06026 0.24991,-0.24991 0.81036,0.2499 1.06026,0 0.21676,-0.21676 -0.21019,-2.76041 0,-3.1808 0.22353,-0.44704 0.83674,-0.61322 1.06027,-1.06026 0.31611,-0.63222 -0.49982,-1.62072 0,-2.12053 0.24991,-0.24991 0.81036,0.2499 1.06026,0 0.53014,-0.53013 -0.53013,-2.65066 0,-3.1808 0.24991,-0.2499 0.81036,0.24991 1.06027,0 0.53013,-0.53013 -0.53013,-2.65066 0,-3.18079 0.2499,-0.24991 0.81036,0.24991 1.06026,0 0.49982,-0.49981 -0.31611,-1.48831 0,-2.12053 0.22353,-0.44705 0.83674,-0.61322 1.06027,-1.06027 0.15805,-0.31611 -0.15806,-0.74415 0,-1.06026 0.22352,-0.44705 0.83674,-0.61322 1.06026,-1.06026 0.15806,-0.31611 -0.15805,-0.74416 0,-1.06027 0.22353,-0.44705 0.83674,-0.61322 1.06027,-1.06026 0.15805,-0.31611 -0.15806,-0.74416 0,-1.06027 0.22352,-0.44705 0.83674,-0.61322 1.06026,-1.06026 0.15806,-0.31611 -0.24991,-0.81036 0,-1.06027 0.24991,-0.24991 0.81036,0.24991 1.06027,0 0.49981,-0.49981 -0.49982,-1.62071 0,-2.12053 0.2499,-0.2499 0.81035,0.24991 1.06026,0 0.49981,-0.49981 -0.31611,-1.48831 0,-2.12053 0.22352,-0.44704 0.83674,-0.61322 1.06027,-1.06026 0.15805,-0.31611 -0.15806,-0.74416 0,-1.06027 0.22352,-0.44704 0.83674,-0.61321 1.06026,-1.06026 0.15806,-0.31611 -0.24991,-0.81036 0,-1.06027 0.24991,-0.2499 0.81036,0.24991 1.06027,0 0.2499,-0.2499 -0.15806,-0.74415 0,-1.06026 0.22352,-0.44705 0.83674,-0.61322 1.06026,-1.06027 0.15806,-0.31611 -0.15805,-0.74415 0,-1.06026 0.44705,-0.89409 1.80442,-1.1722 2.12053,-2.12053 0.22352,-0.67057 -0.22352,-1.44996 0,-2.12053 0.15805,-0.47416 0.70684,-0.70684 1.06026,-1.06026 0.35343,-0.35343 0.61322,-0.83675 1.06027,-1.06027 0.31611,-0.15805 0.81036,0.24991 1.06026,0 0.49982,-0.49981 -0.31611,-1.48831 0,-2.12053 0.44705,-0.89409 1.67349,-1.22643 2.12053,-2.12053 0.15806,-0.31611 -0.15805,-0.74415 0,-1.06026 0.44705,-0.8941 1.67349,-1.22644 2.12053,-2.12053 0.15806,-0.31611 -0.2499,-0.81036 0,-1.06027 0.24991,-0.2499 0.81036,0.24991 1.06027,0 0.2499,-0.2499 -0.15806,-0.74415 0,-1.06026 0.63616,-1.27232 2.54463,-1.90848 3.18079,-3.1808 0.15806,-0.31611 -0.2499,-0.81035 0,-1.06026 0.24991,-0.24991 0.81036,0.24991 1.06027,0 0.2499,-0.24991 -0.24991,-0.81036 0,-1.06027 0.2499,-0.2499 0.74415,0.15806 1.06026,0 0.8941,-0.44704 1.22644,-1.67348 2.12053,-2.12053 0.31611,-0.15805 0.74416,0.15806 1.06027,0 0.89409,-0.44704 1.22643,-1.67348 2.12053,-2.12053 0.31611,-0.15805 0.74415,0.15806 1.06026,0 0.89409,-0.44704 1.22644,-1.67348 2.12053,-2.12052 0.63222,-0.31611 1.62072,0.49981 2.12053,0 0.24991,-0.24991 -0.24991,-0.81036 0,-1.06027 0.49981,-0.49981 1.62071,0.49981 2.12053,0 0.24991,-0.24991 -0.24991,-0.81036 0,-1.06026 0.49981,-0.49982 1.62071,0.49981 2.12053,0 0.2499,-0.24991 -0.24991,-0.81036 0,-1.06027 0.49981,-0.49981 1.48831,0.31611 2.12053,0 0.44704,-0.22352 0.61322,-0.83674 1.06026,-1.06026 0.31611,-0.15806 0.81036,0.2499 1.06027,0 0.2499,-0.24991 -0.24991,-0.81036 0,-1.06027 0.2499,-0.24991 0.70684,0 1.06026,0 0.35342,0 0.81036,0.24991 1.06027,0 0.2499,-0.24991 -0.24991,-0.81036 0,-1.06026 0.49981,-0.49982 1.48831,0.31611 2.12053,0 0.44704,-0.22353 0.61321,-0.83674 1.06026,-1.06027 0.31611,-0.15805 0.74416,0.15806 1.06027,0 0.44704,-0.22352 0.61321,-0.83674 1.06026,-1.06026 0.31611,-0.15806 0.74416,0.15805 1.06027,0 0.44704,-0.22353 0.61321,-0.83674 1.06026,-1.06027 0.63222,-0.31611 1.62072,0.49982 2.12053,0 0.24991,-0.2499 -0.24991,-0.81036 0,-1.06026 0.49981,-0.49982 1.62072,0.49981 2.12053,0 0.24991,-0.24991 -0.24991,-0.81036 0,-1.06027 0.53013,-0.53013 2.65066,0.53014 3.18079,0 0.24991,-0.2499 -0.2499,-0.81035 0,-1.06026 0.49982,-0.49982 1.62072,0.49981 2.12053,0 0.24991,-0.24991 -0.2499,-0.81036 0,-1.06027 0.49982,-0.49981 1.48831,0.31611 2.12053,0 0.44705,-0.22352 0.61322,-0.83674 1.06027,-1.06026 0.63222,-0.31611 1.62071,0.49981 2.12053,0 0.2499,-0.24991 -0.24991,-0.81036 0,-1.06027 0.49981,-0.49981 1.48831,0.31611 2.12053,0 0.44704,-0.22352 0.61321,-0.83674 1.06026,-1.06026 0.31611,-0.15806 0.81036,0.24991 1.06027,0 0.2499,-0.24991 -0.24991,-0.81036 0,-1.06027 0.21675,-0.21675 2.7604,0.2102 3.18079,0 0.44705,-0.22352 0.61322,-0.83674 1.06026,-1.06026 0.64382,-0.32191 5.71778,0.32191 6.36159,0 0.44705,-0.22352 0.61322,-0.83674 1.06027,-1.06027 0.63222,-0.3161 1.48831,0.31611 2.12053,0 0.44704,-0.22352 0.61322,-0.83674 1.06026,-1.06026 0.57518,-0.28759 3.95095,0.29011 4.24106,0 0.24991,-0.24991 -0.24991,-0.81036 0,-1.06026 0.0341,-0.0341 2.92365,0 3.1808,0 4.59448,0 9.18896,0 13.78344,0 0.35342,0 0.70684,0 1.06026,0 0.35342,0 0.81036,0.2499 1.06027,0 0.2499,-0.24991 -0.24991,-0.81036 0,-1.06027 0.2499,-0.24991 0.70684,0 1.06026,0 0.35342,0 0.70684,0 1.06027,0 4.9479,0 9.8958,0 14.8437,0 8.83554,0 17.67108,0 26.50662,0 3.1808,0 6.36159,0 9.54239,0 0.55443,0 3.96227,-0.13939 4.24105,0 0.44705,0.22352 0.61322,0.83674 1.06027,1.06027 0.57518,0.28759 3.95095,-0.29012 4.24106,0 0.2499,0.2499 -0.24991,0.81035 0,1.06026 0.53013,0.53013 2.65066,-0.53013 3.18079,0 0.24991,0.24991 -0.2499,0.81036 0,1.06026 0.24991,0.24991 0.81036,-0.2499 1.06027,0 0.2499,0.24991 -0.24991,0.81036 0,1.06027 0.70588,0.70588 1.41464,-0.70588 2.12053,0 0.2499,0.24991 -0.24991,0.81036 0,1.06026 0.2499,0.24991 0.81035,-0.2499 1.06026,0 0.24991,0.24991 -0.24991,0.81036 0,1.06027 0.24991,0.24991 0.81036,-0.24991 1.06027,0 0.2499,0.24991 -0.24991,0.81036 0,1.06026 0.2499,0.24991 0.81035,-0.2499 1.06026,0 0.24991,0.24991 -0.15805,0.74416 0,1.06027 0.22352,0.44705 0.83674,0.61322 1.06027,1.06026 0.15805,0.31611 -0.24991,0.81036 0,1.06027 0.70588,0.70588 1.41464,-0.70588 2.12052,0 0.24991,0.24991 -0.15805,0.74415 0,1.06026 3.51646,3.51646 -0.49981,-0.99962 1.06027,2.12053 2.20628,4.41257 -0.0732,-1.13346 2.12053,1.06027 0.24991,0.2499 -0.15806,0.74415 0,1.06026 0.52166,1.04333 3.71939,3.19773 4.24106,4.24106 0.15805,0.31611 -0.15806,0.74416 0,1.06027 2.20628,4.41256 -0.0732,-1.13346 2.12053,1.06026 0.2499,0.24991 -0.15806,0.74416 0,1.06027 0.46987,0.93975 2.53734,2.21561 3.18079,3.18079 0.43837,0.65755 0.50146,1.56172 1.06027,2.12053 0.2499,0.24991 0.81035,-0.24991 1.06026,0 0.24991,0.24991 -0.15805,0.74415 0,1.06026 0.22353,0.44705 0.70684,0.70685 1.06027,1.06027 0.35342,0.35342 0.61321,0.83674 1.06026,1.06026 0.31611,0.15806 0.74416,-0.15805 1.06027,0 0.44704,0.22353 0.70684,0.70685 1.06026,1.06027 0.35342,0.35342 0.70684,0.70684 1.06027,1.06026 0.35342,0.35342 0.70684,0.70685 1.06026,1.06027 0.35342,0.35342 0.61322,0.83674 1.06026,1.06026 0.31611,0.15806 0.74416,-0.15805 1.06027,0 0.89409,0.44705 1.22644,1.67349 2.12053,2.12053 0.31611,0.15806 0.72498,-0.11176 1.06026,0 0.74972,0.24991 1.37081,0.81036 2.12053,1.06027 0.33529,0.11176 0.74416,-0.15806 1.06027,0 0.44705,0.22352 0.61322,0.83674 1.06026,1.06026 0.31611,0.15806 0.74416,-0.15805 1.06027,0 0.44704,0.22353 0.5861,0.90221 1.06026,1.06027 0.48495,0.16165 3.76927,-0.2359 4.24106,0 0.44705,0.22352 0.5861,0.90221 1.06027,1.06026 1.00585,0.33529 2.12053,0 3.18079,0 2.12053,0 4.24106,0 6.36159,0 1.06774,0 5.77524,0.19545 6.36159,0 0.94833,-0.31611 1.22643,-1.67348 2.12053,-2.12053 0.31611,-0.15805 0.74415,0.15806 1.06026,0 0.43869,-0.21934 2.88119,-2.73139 3.1808,-3.18079 0.43836,-0.65755 0.6219,-1.46298 1.06026,-2.12053 0.46438,-0.69657 2.98951,-2.60694 3.1808,-3.1808 0.22352,-0.67057 -0.22353,-1.44996 0,-2.12053 0.27625,-0.82877 1.84427,-1.29175 2.12052,-2.12053 0.22353,-0.67057 0,-1.41368 0,-2.12053 0,-0.35342 -0.15805,-0.74415 0,-1.06026 0.22353,-0.44705 0.83675,-0.61322 1.06027,-1.06026 0.33444,-0.66889 -0.33444,-4.63244 0,-5.30133 0.22352,-0.44705 0.83674,-0.61322 1.06026,-1.06026 0.16134,-0.32268 0,-2.7033 0,-3.1808 0,-0.5924 0.20857,-4.67563 0,-5.30132 -0.2499,-0.74972 -0.81035,-1.37081 -1.06026,-2.12053 -0.22352,-0.67057 0.31611,-1.48831 0,-2.12053 -0.22352,-0.44705 -0.83674,-0.61322 -1.06027,-1.06027 -0.15805,-0.3161 0.15806,-0.74415 0,-1.06026 -0.22352,-0.44705 -0.83674,-0.61322 -1.06026,-1.06026 -0.15805,-0.31611 0.15806,-0.74416 0,-1.06027 -0.22352,-0.44705 -0.83674,-0.61322 -1.06026,-1.06026 -0.15806,-0.31611 0.15805,-0.74416 0,-1.06027 -2.20629,-4.41257 0.0732,1.13346 -2.12053,-1.06026 -0.24991,-0.24991 0.2499,-0.81036 0,-1.06027 -0.24991,-0.24991 -0.81036,0.24991 -1.06027,0 -0.24991,-0.24991 0.24991,-0.81036 0,-1.06026 -0.49981,-0.49982 -1.62071,0.49981 -2.12053,0 -0.24991,-0.24991 0.24991,-0.81036 0,-1.06027 -0.24991,-0.2499 -0.74415,0.15806 -1.06026,0 -2.41332,-2.41331 0.21958,-0.28022 -2.12053,-1.06026 -3.84377,-1.28126 -0.75459,-0.50306 -3.1808,-2.12053 -0.65755,-0.43837 -1.46298,-0.6219 -2.12053,-1.06027 -0.41587,-0.27724 -0.61321,-0.83674 -1.06026,-1.06026 -0.31611,-0.15806 -0.74416,0.15805 -1.06027,0 -4.41256,-2.20629 1.13346,0.0732 -1.06026,-2.12053 -0.24991,-0.24991 -0.74416,0.15805 -1.06027,0 -0.44704,-0.22352 -0.70684,-0.70684 -1.06026,-1.06027 -0.35342,-0.35342 -0.83674,-0.61321 -1.06027,-1.06026 -0.15805,-0.31611 0.15806,-0.74416 0,-1.06027 -0.22352,-0.44704 -0.70684,-0.70684 -1.06026,-1.06026 -0.35342,-0.35342 -0.70684,-0.70684 -1.06026,-1.06026 -1.06027,-1.06027 -2.12053,-2.12053 -3.1808,-3.1808 -0.70684,-0.70684 -1.56604,-1.28879 -2.12053,-2.12053 -0.43836,-0.65755 -0.6219,-1.46298 -1.06026,-2.12053 -0.27725,-0.41587 -0.83674,-0.61322 -1.06027,-1.06026 -0.15805,-0.31611 0.15806,-0.74416 0,-1.06027 -0.22352,-0.44704 -0.83674,-0.61322 -1.06026,-1.06026 -0.15806,-0.31611 0.15805,-0.74416 0,-1.06027 -0.44705,-0.89409 -1.67349,-1.22643 -2.12053,-2.12053 -0.31611,-0.63222 0.31611,-1.48831 0,-2.12053 -0.22353,-0.44704 -0.83674,-0.61321 -1.06027,-1.06026 -0.15805,-0.31611 0.24991,-0.81036 0,-1.06027 -0.2499,-0.2499 -0.81035,0.24991 -1.06026,0 -0.53013,-0.53013 0.53013,-2.65066 0,-3.18079 -0.24991,-0.24991 -0.81036,0.24991 -1.06027,0 -0.2499,-0.24991 0,-0.70684 0,-1.06026 0,-0.35343 0,-0.70685 0,-1.06027 0,-0.25714 -0.0341,-3.1467 0,-3.18079 0.24991,-0.24991 0.81036,0.2499 1.06027,0 0.24991,-0.24991 -0.24991,-0.81036 0,-1.06027 0.24991,-0.24991 0.81036,0.24991 1.06026,0 0.24991,-0.24991 -0.2499,-0.81036 0,-1.06026 0.49982,-0.49982 1.62072,0.49981 2.12053,0 0.24991,-0.24991 -0.2499,-0.81036 0,-1.06027 0.24991,-0.24991 0.70685,0 1.06027,0 0.91005,0 5.74125,-0.20678 6.36159,0 0.47416,0.15806 0.61321,0.83674 1.06026,1.06027 0.31611,0.15805 0.74416,-0.15806 1.06027,0 0.44704,0.22352 0.61321,0.83674 1.06026,1.06026 0.84821,0.42411 2.33258,-0.4241 3.18079,0 4.85242,2.42621 -4.49914,-0.43945 3.1808,2.12053 0.33528,0.11176 0.74415,-0.15805 1.06026,0 4.85242,2.42621 -4.49914,-0.43945 3.1808,2.12053 0.33528,0.11176 0.74415,-0.15805 1.06026,0 1.27232,0.63616 1.90848,2.54464 3.1808,3.18079 0.31611,0.15806 0.74415,-0.15805 1.06026,0 0.44705,0.22353 0.6444,0.78302 1.06027,1.06027 0.65754,0.43836 1.46298,0.6219 2.12053,1.06026 0.66283,0.44189 5.04926,4.96525 5.30132,5.30133 0.47416,0.63222 0.50146,1.56172 1.06026,2.12053 0.55881,0.55881 1.46299,0.6219 2.12053,1.06026 0.41587,0.27725 0.70685,0.70685 1.06027,1.06027 0.35342,0.35342 0.78302,0.64439 1.06026,1.06026 0.43837,0.65755 0.50146,1.56172 1.06027,2.12053 2.19372,2.19373 -0.0858,-3.3523 2.12053,1.06027 0.15805,0.31611 -0.15806,0.74415 0,1.06026 0.44704,0.89409 1.67348,1.22644 2.12053,2.12053 0.15805,0.31611 -0.15806,0.74416 0,1.06027 0.44704,0.89409 1.80442,1.17219 2.12053,2.12052 0.22352,0.67057 -0.22353,1.44996 0,2.12053 0.31611,0.94833 1.56603,1.28879 2.12053,2.12053 2.00859,-0.12074 0.70684,2.47395 1.06026,3.1808 0.22352,0.44704 0.78302,0.64439 1.06027,1.06026 2.00859,-0.12074 0.70684,2.47395 1.06026,3.1808 0.22352,0.44704 0.83674,0.61321 1.06027,1.06026 0.31611,0.63222 -0.22353,1.44996 0,2.12053 0.2499,0.74972 0.81035,1.37081 1.06026,2.12053 0.31808,0.95424 -0.31808,2.22656 0,3.18079 0.24991,0.74973 0.81036,1.37081 1.06026,2.12053 0.37555,1.12665 -0.37555,3.11441 0,4.24106 0.15806,0.47417 0.83675,0.61322 1.06027,1.06027 0.11882,0.23764 0,3.98911 0,4.24106 0,3.18079 0,6.36159 0,9.54238 0,3.88764 0,7.77528 0,11.66291 0,0.84605 0.21203,4.66523 0,5.30133 -0.24991,0.74972 -0.81036,1.37081 -1.06027,2.12053 -0.31807,0.95423 0.31808,2.22655 0,3.18079 -0.15805,0.47416 -0.83674,0.61322 -1.06026,1.06026 -0.15805,0.31611 0.15805,0.74416 0,1.06027 -0.22352,0.44705 -0.83674,0.61322 -1.06026,1.06026 -0.15806,0.31611 0.15805,0.74416 0,1.06027 -0.22353,0.44705 -0.83675,0.61322 -1.06027,1.06026 -0.15805,0.31611 0.15806,0.74416 0,1.06027 -0.22352,0.44705 -0.90221,0.5861 -1.06026,1.06026 -0.22353,0.67057 0.22352,1.44996 0,2.12053 -0.31611,0.94833 -1.67349,1.22644 -2.12053,2.12053 -0.15806,0.31611 0.15805,0.74416 0,1.06027 -1.11305,2.22608 -1.00749,-0.10556 -2.12053,2.12053 -0.15806,0.31611 0.15805,0.74415 0,1.06026 -0.10148,0.20296 -4.03811,4.13958 -4.24106,4.24106 -0.31611,0.15806 -0.74416,-0.15805 -1.06027,0 -4.41257,2.20628 1.13346,-0.0732 -1.06026,2.12053 -0.24991,0.24991 -0.74416,-0.15805 -1.06027,0 -0.89409,0.44705 -1.22643,1.67348 -2.12053,2.12053 -0.63222,0.31611 -1.48831,-0.31611 -2.12053,0 -0.44704,0.22352 -0.5861,0.90221 -1.06026,1.06026 -0.67057,0.22353 -1.44996,-0.22352 -2.12053,0 -0.47416,0.15806 -0.61322,0.83675 -1.06026,1.06027 -0.63222,0.31611 -1.44996,-0.22352 -2.12053,0 -0.74972,0.24991 -1.37081,0.81036 -2.12053,1.06026 -0.33529,0.11177 -0.70685,0 -1.06027,0 -0.70684,0 -1.41368,0 -2.12053,0 -2.82737,0 -5.65474,0 -8.48212,0 -2.47395,0 -4.9479,0 -7.42185,0 -0.70684,0 -1.44996,0.22353 -2.12053,0 -0.74972,-0.2499 -1.37081,-0.81035 -2.12053,-1.06026 -0.95424,-0.31808 -2.22655,0.31808 -3.18079,0 -0.47417,-0.15806 -0.61322,-0.83674 -1.06027,-1.06027 -0.31611,-0.15805 -0.70684,0 -1.06026,0 -0.70685,0 -1.41369,0 -2.12053,0 -2.48651,0 0.49981,0.24991 -2.12053,-1.06026 -0.67254,-0.33627 -4.61255,0.34439 -5.30133,0 -0.44704,-0.22352 -0.61321,-0.83674 -1.06026,-1.06027 -0.63222,-0.31611 -1.48831,0.31611 -2.12053,0 -0.44705,-0.22352 -0.61322,-0.83674 -1.06026,-1.06026 -0.27879,-0.13939 -3.68663,0 -4.24106,0 -2.47395,0 -4.94791,0 -7.42186,0 -0.70684,0 -1.41368,0 -2.12053,0 -0.35342,0 -0.74415,-0.15805 -1.06026,0 -0.44705,0.22352 -0.61322,0.83674 -1.06027,1.06026 -0.27413,0.13707 -5.61007,0 -6.36158,0 -0.35343,0 -0.81036,-0.2499 -1.06027,0 -0.24991,0.24991 0.24991,0.81036 0,1.06027 -0.24991,0.24991 -0.70684,0 -1.06026,0 -0.75152,0 -6.08746,-0.13707 -6.36159,0 -0.44705,0.22352 -0.61322,0.83674 -1.06027,1.06026 -0.63222,0.31611 -1.48831,-0.31611 -2.12053,0 -0.44704,0.22353 -0.61321,0.83675 -1.06026,1.06027 -0.31611,0.15805 -0.81036,-0.24991 -1.06027,0 -0.2499,0.24991 0.15806,0.74415 0,1.06026 -0.22352,0.44705 -0.83674,0.61322 -1.06026,1.06027 -0.15806,0.31611 0.24991,0.81036 0,1.06026 -0.24991,0.24991 -0.70684,0 -1.06027,0 0,0.35343 0.24991,0.81036 0,1.06027 -0.2499,0.2499 -0.81035,-0.24991 -1.06026,0 -0.53013,0.53013 0.53013,2.65066 0,3.18079 -0.24991,0.24991 -0.81036,-0.2499 -1.06026,0 -0.24991,0.24991 0,0.70685 0,1.06027 0,0.55443 -0.1394,3.96227 0,4.24106 0.22352,0.44704 0.83674,0.61321 1.06026,1.06026 0.31611,0.63222 -0.49981,1.62072 0,2.12053 0.24991,0.24991 0.81036,-0.24991 1.06026,0 0.24991,0.24991 -0.2499,0.81036 0,1.06027 0.24991,0.2499 0.81036,-0.24991 1.06027,0 0.24991,0.2499 -0.15806,0.74415 0,1.06026 3.51645,3.51646 -0.49981,-0.99963 1.06026,2.12053 0.22353,0.44705 0.83675,0.61322 1.06027,1.06026 0.15805,0.31611 -0.24991,0.81036 0,1.06027 0.24991,0.24991 0.81036,-0.24991 1.06026,0 0.24991,0.24991 -0.15805,0.74415 0,1.06026 0.22353,0.44705 0.83674,0.61322 1.06027,1.06027 0.15805,0.31611 -0.15806,0.74415 0,1.06026 0.22352,0.44705 0.83674,0.61322 1.06026,1.06027 0.15806,0.31611 -0.2499,0.81036 0,1.06026 0.24991,0.24991 0.81036,-0.2499 1.06027,0 0.71642,0.71642 -0.71642,1.40411 0,2.12053 0.2499,0.24991 0.81036,-0.2499 1.06026,0 0.24991,0.24991 -0.15805,0.74416 0,1.06027 0.22353,0.44704 0.83674,0.61322 1.06027,1.06026 0.15805,0.31611 -0.15806,0.74416 0,1.06027 0.22352,0.44704 0.83674,0.61321 1.06026,1.06026 0.15806,0.31611 -0.15805,0.74416 0,1.06027 0.22353,0.44704 0.83674,0.61321 1.06027,1.06026 0.15805,0.31611 0,0.70684 0,1.06027 0.35342,0.35342 0.83674,0.61321 1.06026,1.06026 0.15806,0.31611 -0.15805,0.74416 0,1.06027 0.22353,0.44704 0.83674,0.61321 1.06027,1.06026 0.15805,0.31611 -0.15806,0.74415 0,1.06026 0.22352,0.44705 0.83674,0.61322 1.06026,1.06027 0.15806,0.31611 -0.15805,0.74415 0,1.06026 0.22352,0.44705 0.83674,0.61322 1.06027,1.06027 0.21019,0.42039 -0.21676,2.96404 0,3.18079 0.2499,0.24991 0.81035,-0.2499 1.06026,0 0.29011,0.29012 -0.28759,3.66588 0,4.24106 0.22352,0.44705 0.83674,0.61322 1.06027,1.06027 0.15805,0.31611 0,0.70684 0,1.06026 0,0.35342 0,0.70685 0,1.06027 0,0.70684 0,1.41368 0,2.12053 0,0.35342 0,1.41368 0,1.06026 0,-0.70684 -0.70685,-2.12053 0,-2.12053 0.70684,0 0,1.41369 0,2.12053 0,0.35342 0,0.70684 0,1.06027 0,0.35342 0.2499,0.81035 0,1.06026 -0.24991,0.24991 -1.06027,0.35342 -1.06027,0 0,-0.35342 1.06027,-0.35342 1.06027,0 0,2.20628 -1.48689,0.42662 -2.12053,1.06027 -0.24991,0.2499 0.2499,0.81035 0,1.06026 -0.0427,0.0427 -3.8517,0 -4.24106,0 -2.47395,0 -4.94791,0 -7.42186,0 -0.47749,0 -2.85812,0.16134 -3.18079,0 -0.44705,-0.22352 -0.61322,-0.83674 -1.06027,-1.06026 -0.31611,-0.15806 -0.70684,0 -1.06026,0 -0.70684,0 -1.44996,0.22352 -2.12053,0 -0.47416,-0.15806 -0.61322,-0.83675 -1.06026,-1.06027 -0.31611,-0.15805 -0.70685,0 -1.06027,0 -0.44601,0 -6.04619,0.1577 -6.36159,0 -2.62034,-1.31017 0.36598,-1.06026 -2.12053,-1.06026 -0.25714,0 -3.14669,0.0341 -3.18079,0 -0.24991,-0.24991 0.24991,-0.81036 0,-1.06027 -0.0427,-0.0427 -3.85169,0 -4.24106,0 -3.88764,0 -7.77528,0 -11.66291,0 -0.35342,0 -0.70685,0 -1.06027,0 -0.35342,0 -0.81036,-0.24991 -1.06026,0 -0.24991,0.24991 0.2499,0.81036 0,1.06027 -0.53013,0.53013 -2.65066,-0.53014 -3.1808,0 -0.2499,0.2499 0.24991,0.81035 0,1.06026 -0.53013,0.53013 -2.65066,-0.53013 -3.18079,0 -0.24991,0.24991 0.24991,0.81036 0,1.06027 -0.24991,0.2499 -0.70684,0 -1.06027,0 -0.35342,0 -0.70684,0 -1.06026,0 -2.47395,0 -4.9479,0 -7.42185,0 -0.35343,0 -0.81036,-0.24991 -1.06027,0 -0.24991,0.2499 0.24991,0.81035 0,1.06026 -0.24991,0.24991 -0.70684,0 -1.06026,0 -0.35343,0 -0.70685,0 -1.06027,0 -2.47395,0 -4.9479,0 -7.42185,0 -0.4775,0 -2.85812,0.16134 -3.1808,0 -0.44704,-0.22352 -0.61321,-0.83674 -1.06026,-1.06026 -0.27879,-0.1394 -3.68663,0 -4.24106,0 -2.12053,0 -4.24106,0 -6.36159,0 -0.4775,0 -2.85812,0.16133 -3.18079,0 -0.44705,-0.22353 -0.61322,-0.83675 -1.06027,-1.06027 -0.32267,-0.16134 -2.70329,0 -3.18079,0 -2.82737,0 -5.65475,0 -8.48212,0 -0.25714,0 -3.1467,0.0341 -3.18079,0 -0.24991,-0.24991 0.2499,-0.81036 0,-1.06026 -0.24991,-0.24991 -0.70685,0 -1.06027,0 -0.35342,0 -0.70684,0 -1.06026,0 -3.53422,0 -7.06844,0 -10.60265,0 -16.96424,0 -33.92847,0 -50.89271,0 -2.47395,0 -4.9479,0 -7.42185,0 -0.35342,0 -0.81036,-0.24991 -1.06027,0 -0.2499,0.2499 0.24991,0.81035 0,1.06026 -0.32831,0.32831 -4.97301,-0.32831 -5.30132,0 -0.24991,0.24991 0.24991,0.81036 0,1.06027 -0.10227,0.10226 -1.69153,-0.0858 -2.12053,0 -1.4289,0.28577 -2.82737,0.70684 -4.24106,1.06026 z"
       id="path999"
       inkscape:connector-curvature="0" /><path
       style="fill:#000000;fill-rule:evenodd;stroke:none;stroke-width:1px;stroke-linecap:butt;stroke-linejoin:miter;stroke-opacity:1;fill-opacity:1"
       d="m 180.24501,340.23513 c -2.27859,4.55717 -2.12053,2.66051 -2.12053,5.30133 0,2.82737 0.35342,-0.35342 -1.06027,1.06026 -0.2499,0.24991 0.24991,0.81036 0,1.06027 -0.2499,0.2499 -0.81035,-0.24991 -1.06026,0 -0.49981,0.49981 0.31611,1.48831 0,2.12053 -0.22352,0.44704 -0.83674,0.61321 -1.06026,1.06026 -0.31611,0.63222 0.49981,1.62072 0,2.12053 -0.24991,0.24991 -0.81036,-0.24991 -1.06027,0 -0.49981,0.49981 0.49981,1.62072 0,2.12053 -1.41369,1.41369 -1.06026,-1.76711 -1.06026,1.06027 0,2.4865 0.2499,-0.49982 -1.06027,2.12052 -0.15805,0.31611 0,0.70685 0,1.06027 0,0.35342 0,0.70684 0,1.06026 0,0.35343 0.24991,0.81036 0,1.06027 -0.24991,0.24991 -1.06026,0.35342 -1.06026,0 0,-0.35342 0.70684,0 1.06026,0 0.35342,0 0.70684,0 1.06027,0 1.38755,0 4.10555,-0.23916 5.30132,0 1.09591,0.21918 2.08488,0.84108 3.18079,1.06026 0.69312,0.13863 1.41369,0 2.12053,0 3.1808,0 6.36159,0 9.54239,0 7.06843,0 14.13686,0 21.20529,0 7.03291,0 -1.49944,-0.49981 3.1808,1.06027 0.67057,0.22352 1.41368,0 2.12053,0 2.12052,0 4.24105,0 6.36158,0 0.70685,0 1.43479,-0.17144 2.12053,0 0.76668,0.19167 1.3456,0.90528 2.12053,1.06026 1.03968,0.20794 2.12053,0 3.1808,0 1.06026,0 2.12053,0 3.18079,0 1.06027,0 2.13496,-0.1743 3.1808,0 1.10241,0.18374 2.07838,0.87653 3.18079,1.06027 2.09168,0.34861 4.26991,-0.34861 6.36159,0 1.10241,0.18373 2.07838,0.87653 3.18079,1.06026 1.74307,0.29051 3.56853,-0.34656 5.30133,0 6.97775,1.39555 -0.5847,1.06027 6.36159,1.06027 1.2581,0 7.45311,-0.2058 8.48211,0 0.77493,0.15498 1.35385,0.86859 2.12053,1.06026 0.68574,0.17144 1.41369,0 2.12053,0 2.12053,0 4.24106,0 6.36159,0 5.65475,0 11.30949,0 16.96424,0 16.96423,0 33.92847,0 50.89271,0 7.42185,0 14.8437,0 22.26556,0 0.39831,0 5.27486,0.0265 5.30132,0 0.82884,-0.82883 -0.92225,-1.84449 -1.06027,-2.12053 -0.31611,-0.63222 0.31611,-1.48831 0,-2.12053 -0.22352,-0.44704 -0.83674,-0.61321 -1.06026,-1.06026 -0.33444,-0.66889 0.33444,-4.63244 0,-5.30133 -0.22352,-0.44704 -0.83674,-0.61321 -1.06027,-1.06026 -0.3161,-0.63222 0.31611,-1.48831 0,-2.12053 -0.22352,-0.44705 -0.83674,-0.61322 -1.06026,-1.06026 -0.15805,-0.31611 0.15806,-0.74416 0,-1.06027 -0.22352,-0.44705 -0.83674,-0.61322 -1.06026,-1.06026 -0.15806,-0.31611 0,-0.70685 0,-1.06027 -0.35343,-0.35342 -0.83675,-0.61322 -1.06027,-1.06026 -0.15805,-0.31611 0.24991,-0.81036 0,-1.06027 -0.24991,-0.2499 -0.81036,0.24991 -1.06026,0 -0.24991,-0.2499 0.15805,-0.74415 0,-1.06026 -0.22353,-0.44705 -0.83675,-0.61322 -1.06027,-1.06027 -0.15805,-0.31611 0.24991,-0.81036 0,-1.06026 -0.24991,-0.24991 -0.81036,0.2499 -1.06026,0 -0.24991,-0.24991 0.2499,-0.81036 0,-1.06027 -0.24991,-0.2499 -0.81036,0.24991 -1.06027,0 -0.24991,-0.2499 0.24991,-0.81036 0,-1.06026 -0.24991,-0.24991 -0.70684,0 -1.06026,0 -0.35342,0 -0.70685,0 -1.06027,0 -0.95568,0 -4.63399,-0.22245 -5.30132,0 -0.74972,0.2499 -1.37081,0.81036 -2.12053,1.06026 -1.12665,0.37555 -3.11441,-0.37555 -4.24106,0 -0.74972,0.24991 -1.37081,0.81036 -2.12053,1.06027 -0.33528,0.11176 -0.70684,0 -1.06026,0 -0.70685,0 -1.41369,0 -2.12053,0 -1.76711,0 -3.53422,0 -5.30133,0 -0.70684,0 -1.44996,-0.22353 -2.12053,0 -4.68023,1.56008 3.85212,1.06026 -3.18079,1.06026 -3.88764,0 -7.77528,0 -11.66291,0 -1.15771,0 -4.61565,0.22856 -5.30133,0 -0.74972,-0.2499 -1.37081,-0.81036 -2.12053,-1.06026 -0.57382,-0.19128 -3.87985,0 -4.24106,0 -2.47395,0 -4.9479,0 -7.42185,0 -0.70684,0 -1.41369,0 -2.12053,0 -0.70684,0 -1.43479,0.17143 -2.12053,0 -0.76668,-0.19167 -1.35385,-0.8686 -2.12053,-1.06027 -0.96118,-0.24029 -4.06964,0 -5.30132,0 -1.1026,0 -5.52757,0.20851 -6.36159,0 -0.76668,-0.19167 -1.35385,-0.86859 -2.12053,-1.06026 -0.68574,-0.17144 -1.41369,0 -2.12053,0 -0.70684,0 -1.41369,0 -2.12053,0 -2.82737,0 -5.65474,0 -8.48212,0 -0.69671,0 -2.58259,0.1994 -3.18079,0 -0.74972,-0.24991 -1.37081,-0.81036 -2.12053,-1.06027 -0.68682,-0.22894 -7.32578,0 -8.48212,0 -0.70684,0 -1.41369,0 -2.12053,0 -0.35342,0 -0.72498,0.11177 -1.06026,0 -4.12913,-1.37637 -0.0992,-1.06026 -4.24106,-1.06026 -1.06027,0 -2.12053,0 -3.1808,0 -1.06026,0 -2.13495,0.17431 -3.18079,0 -1.10241,-0.18374 -2.07838,-0.87653 -3.1808,-1.06027 -2.09167,-0.34861 -4.26991,0.34862 -6.36158,0 -1.10241,-0.18373 -2.07839,-0.87653 -3.1808,-1.06026 -1.04584,-0.17431 -2.12053,0 -3.18079,0 -1.76711,0 -3.53422,0 -5.30133,0 -0.70684,0 -1.43479,0.17143 -2.12053,0 -0.76667,-0.19167 -1.3708,-0.81036 -2.12053,-1.06027 -0.66547,-0.22182 -3.3875,0 -4.24105,0 -3.53422,0 -7.06844,0 -10.60265,0 -2.82737,0 -5.65475,0 -8.48212,0 -0.70684,0 -1.41369,0 -2.12053,0 -0.35342,0 -0.72498,-0.11176 -1.06026,0 -0.74972,0.24991 -1.37081,0.81036 -2.12053,1.06027 -0.33529,0.11176 -0.70685,0 -1.06027,0 -1.41368,0 -2.82737,0 -4.24106,0 -1.06026,0 -2.14112,-0.20794 -3.18079,0 -1.4289,0.28578 -2.82737,0.70684 -4.24106,1.06026 z"
       id="path1003"
       inkscape:connector-curvature="0" /><path
       style="fill:#ffff00;fill-rule:evenodd;stroke:none;stroke-width:1px;stroke-linecap:butt;stroke-linejoin:miter;stroke-opacity:1;fill-opacity:1"
       d="m 218.41454,330.69275 c -8.29714,-1.23436 -0.77474,3.95554 -2.12053,5.30132 -0.24991,0.24991 -0.81036,-0.2499 -1.06026,0 -0.49982,0.49982 0.31611,1.48831 0,2.12053 -0.22353,0.44705 -0.83675,0.61322 -1.06027,1.06027 -0.15805,0.31611 0.15806,0.74415 0,1.06026 -0.22352,0.44705 -0.83674,0.61322 -1.06026,1.06027 -0.15806,0.31611 0.15805,0.74415 0,1.06026 -1.50589,3.01177 -0.61465,-0.89123 -2.12053,2.12053 -0.31611,0.63222 0.49981,1.62072 0,2.12053 -0.24991,0.24991 -0.81036,-0.2499 -1.06027,0 -0.53013,0.53013 0.53013,2.65066 0,3.1808 -0.2499,0.2499 -0.81036,-0.24991 -1.06026,0 -0.49982,0.49981 0.31611,1.48831 0,2.12053 -0.22353,0.44704 -0.83674,0.61321 -1.06027,1.06026 -0.15805,0.31611 0.15806,0.74416 0,1.06027 -0.22352,0.44704 -0.83674,0.61321 -1.06026,1.06026 -0.42411,0.84821 0.4241,2.33258 0,3.18079 -0.22353,0.44705 -0.83674,0.61322 -1.06027,1.06027 -0.4241,0.84821 0.42411,2.33258 0,3.18079 -0.22352,0.44705 -0.83674,0.61322 -1.06026,1.06027 -0.16134,0.32267 0,2.70329 0,3.18079 0,0.35342 -0.24991,0.81036 0,1.06027 0.49981,0.49981 1.48831,-0.31611 2.12053,0 0.44705,0.22352 0.61322,0.83674 1.06026,1.06026 0.31611,0.15806 0.70685,0 1.06027,0 0.35342,0 0.70684,0 1.06026,0 2.12053,0 4.24106,0 6.36159,0 0.35342,0 0.70684,0 1.06027,0 0.35342,0 0.74415,-0.15805 1.06026,0 0.44705,0.22353 0.61322,0.83674 1.06027,1.06027 0.64381,0.32191 5.71777,-0.32191 6.36158,0 0.44705,0.22352 0.61322,0.83674 1.06027,1.06026 0.31611,0.15806 0.70684,0 1.06026,0 0.35342,0 0.70685,0 1.06027,0 1.41368,0 2.82737,0 4.24106,0 0.35342,0 0.70684,0 1.06026,0 0.35342,0 0.74416,-0.15805 1.06027,0 0.44704,0.22353 0.61321,0.83674 1.06026,1.06027 0.68742,0.34371 5.3627,-0.33297 6.36159,0 0.74972,0.2499 1.37081,0.81035 2.12053,1.06026 0.5982,0.1994 2.48409,0 3.18079,0 2.12053,0 4.24106,0 6.36159,0 0.49991,0 5.25327,0.048 5.30133,0 0.2499,-0.24991 -0.24991,-0.81036 0,-1.06026 0.2499,-0.24991 0.81035,0.2499 1.06026,0 0.24991,-0.24991 -0.24991,-0.81036 0,-1.06027 0.24991,-0.2499 0.81036,0.24991 1.06027,0 0.2499,-0.2499 -0.15806,-0.74415 0,-1.06026 0.22352,-0.44705 0.83674,-0.61322 1.06026,-1.06027 0.15806,-0.31611 -0.24991,-0.81036 0,-1.06026 0.24991,-0.24991 0.81036,0.2499 1.06027,0 0.2499,-0.24991 -0.24991,-0.81036 0,-1.06027 0.2499,-0.2499 0.81035,0.24991 1.06026,0 0.24991,-0.2499 -0.15805,-0.74415 0,-1.06026 3.51646,-3.51646 -0.49981,0.99963 1.06026,-2.12053 0.22353,-0.44705 0.83675,-0.61322 1.06027,-1.06027 0.15805,-0.31611 -0.15806,-0.74415 0,-1.06026 0.22352,-0.44705 0.83674,-0.61322 1.06026,-1.06027 0.15806,-0.31611 -0.15805,-0.74415 0,-1.06026 0.22353,-0.44705 0.90221,-0.5861 1.06027,-1.06027 0.22352,-0.67057 -0.22352,-1.44995 0,-2.12052 0.15805,-0.47417 0.83674,-0.61322 1.06026,-1.06027 0.15806,-0.31611 0,-0.70684 0,-1.06026 0.35343,-0.35343 0.83675,-0.61322 1.06027,-1.06027 0.31611,-0.63222 -0.31611,-1.48831 0,-2.12053 0.22352,-0.44705 0.83674,-0.61322 1.06026,-1.06026 0.15806,-0.31611 -0.15805,-0.74416 0,-1.06027 0.22353,-0.44704 0.83674,-0.61322 1.06027,-1.06026 0.31611,-0.63222 -0.49982,-1.62072 0,-2.12053 0.2499,-0.24991 0.81036,0.2499 1.06026,0 0.53014,-0.53013 -0.53013,-2.65066 0,-3.1808 0.24991,-0.2499 0.81036,0.24991 1.06027,0 0.0341,-0.0341 0,-2.92365 0,-3.18079 0,-2.48651 -0.24991,0.49981 1.06026,-2.12053 0.15806,-0.31611 -0.15805,-0.74416 0,-1.06027 0.22353,-0.44704 0.83674,-0.61321 1.06027,-1.06026 0.15805,-0.31611 0,-0.70684 0,-1.06026 0,-0.35343 0.2499,-0.81036 0,-1.06027 -0.49982,-0.49981 -1.62072,0.49981 -2.12053,0 -0.24991,-0.24991 0.2499,-0.81036 0,-1.06026 -0.49982,-0.49982 -1.48831,0.31611 -2.12053,0 -0.44705,-0.22353 -0.5861,-0.90221 -1.06027,-1.06027 -0.54273,-0.18091 -5.60359,0 -6.36159,0 -0.35342,0 -0.74415,0.15806 -1.06026,0 -0.44705,-0.22352 -0.61322,-0.83674 -1.06026,-1.06026 -0.31611,-0.15806 -0.70685,0 -1.06027,0 -0.35342,0 -0.70684,0 -1.06026,0 -0.758,0 -5.81886,0.18091 -6.36159,0 -0.47417,-0.15806 -0.61322,-0.83675 -1.06027,-1.06027 -0.31611,-0.15805 -0.70684,0 -1.06026,0 -0.35342,0 -0.70685,0 -1.06027,0 -1.76711,0 -3.53421,0 -5.30132,0 -1.06027,0 -2.17494,0.33529 -3.1808,0 -0.47416,-0.15805 -0.5861,-0.90221 -1.06026,-1.06026 -0.48535,-0.16179 -4.70953,0 -5.30132,0 -2.82738,0 -5.65475,0 -8.48212,0 -0.74821,0 -6.09127,-0.1622 -6.36159,0 -1.51528,0.90917 -2.82737,2.12053 -4.24106,3.18079 z"
       id="path1005"
       inkscape:connector-curvature="0" /><path
       style="fill:#000000;fill-opacity:1;fill-rule:evenodd;stroke:#000000;stroke-width:1.1135416px;stroke-linecap:butt;stroke-linejoin:miter;stroke-opacity:1"
       d="m 230.81757,333.94897 c -0.36674,1.68926 -0.73348,3.37854 -1.10022,5.0678 -0.36674,0 -0.8409,-0.29862 -1.10023,0 -0.25932,0.29862 0.25933,0.96833 0,1.26695 -0.25932,0.29863 -0.84089,-0.29862 -1.10022,0 -0.25933,0.29863 0.25933,0.96833 0,1.26695 -0.25933,0.29863 -0.8409,-0.29862 -1.10023,0 -2.2764,2.62137 3.47866,-0.10253 -1.10022,2.5339 -0.32803,0.18887 -0.77221,-0.18886 -1.10023,0 -0.46389,0.26711 -0.73348,0.84464 -1.10022,1.26696 -0.36674,0.42231 -0.86828,0.73276 -1.10023,1.26694 -0.16401,0.37774 0.25933,0.96834 0,1.26696 -2.2764,2.62136 0.089,-4.0058 -2.20044,1.26695 -0.32803,0.75546 0.51864,1.93666 0,2.5339 -0.25933,0.29863 -0.84091,-0.29861 -1.10024,0 -0.25932,0.29863 0.16402,0.88923 0,1.26696 -2.28943,5.27274 0.076,-1.35442 -2.20045,1.26694 -0.25933,0.29863 0.25933,0.96833 0,1.26696 -0.25933,0.29862 -0.8409,-0.29863 -1.10022,0 -0.25933,0.29862 0.25932,0.96832 0,1.26695 -0.25933,0.29862 -0.8409,-0.29863 -1.10023,0 -0.25933,0.29862 0.25933,0.96833 0,1.26695 -0.25933,0.29862 -0.8409,-0.29862 -1.10022,0 -0.51866,0.59725 0.51865,1.93665 0,2.53391 -0.25933,0.29861 -1.10023,0.42231 -1.10023,0 0,-0.42233 1.10023,-0.42233 1.10023,0 0,0.42231 -1.46697,0 -1.10023,0 1.46697,0 2.93393,0 4.4009,0 0.36674,0 0.84091,-0.29863 1.10023,0 0.25932,0.29861 -0.25932,0.96832 0,1.26694 0.25932,0.29863 0.73348,0 1.10022,0 2.5672,0 5.13439,0 7.70158,0 0.36675,0 0.73349,0 1.10023,0 0.36674,0 0.7722,-0.18886 1.10022,0 0.4639,0.2671 0.63633,0.99986 1.10023,1.26695 0.28446,0.16379 5.82151,0 6.60136,0 0.36674,0 0.84089,-0.29862 1.10022,0 0.25933,0.29863 -0.25933,0.96833 0,1.26696 0.38619,0.44472 4.74116,-0.43757 5.50113,0 0.46389,0.26709 0.63632,0.99985 1.10022,1.26694 0.0576,0.0331 3.24312,0.0331 3.30067,0 0.4639,-0.26709 0.63633,-0.99985 1.10023,-1.26694 0.65605,-0.37774 1.6818,0.59724 2.20045,0 0.25933,-0.29863 -0.25932,-0.96833 0,-1.26696 0.51865,-0.59724 1.6818,0.59725 2.20046,0 0.25931,-0.29862 -0.25933,-0.96832 0,-1.26695 0.25931,-0.29862 0.8409,0.29863 1.10022,0 0.25933,-0.29862 -0.25932,-0.96833 0,-1.26694 0.51865,-0.59726 1.6818,0.59724 2.20045,0 0.25933,-0.29863 -0.16401,-0.88923 0,-1.26696 0.23195,-0.5342 0.86827,-0.73276 1.10023,-1.26695 0.32802,-0.75546 -0.51866,-1.93666 0,-2.5339 0.51865,-0.59725 1.68179,0.59724 2.20045,0 0.25932,-0.29863 -0.16402,-0.88922 0,-1.26696 0.23194,-0.53419 0.86828,-0.73276 1.10022,-1.26694 0.16402,-0.37773 -0.25933,-0.96833 0,-1.26696 0.25933,-0.29861 0.8409,0.29863 1.10023,0 0.25932,-0.29861 -0.25933,-0.96833 0,-1.26694 0.25932,-0.29863 0.84089,0.29861 1.10022,0 0.25933,-0.29863 -0.25933,-0.96833 0,-1.26696 0.25933,-0.29862 0.8409,0.29863 1.10023,0 2.2764,-2.62136 -3.47865,0.10252 1.10022,-2.53391 0.32803,-0.18886 0.84091,0.29863 1.10023,0 0.51865,-0.59724 -0.51865,-1.93664 0,-2.5339 0.25932,-0.29861 0.8409,0.29863 1.10022,0 0.11003,-0.12669 0.11003,-3.67415 0,-3.80085 -0.25932,-0.29862 -0.77219,0.18886 -1.10022,0 -0.46389,-0.26709 -0.63633,-0.99985 -1.10023,-1.26695 -0.28929,-0.16657 -3.82556,0 -4.4009,0 -3.30067,0 -6.60135,0 -9.90203,0 -0.26683,0 -3.26529,0.0407 -3.30068,0 -0.25932,-0.29862 0.25933,-0.96832 0,-1.26695 -0.0354,-0.0408 -3.03384,0 -3.30067,0 -2.58022,0 0.51865,0.29863 -2.20045,-1.26696 -0.69152,-0.39815 -3.70939,0.39816 -4.4009,0 -0.4639,-0.26709 -0.63634,-0.99985 -1.10022,-1.26694 -0.32803,-0.18886 -0.74061,0.0828 -1.10024,0 -1.48274,-0.34149 -2.93393,-0.84463 -4.4009,-1.26695 z"
       id="path1007"
       inkscape:connector-curvature="0" /></g></svg>